<svg width="280" height="180" viewBox="0 0 280 180" fill="none" xmlns="http://www.w3.org/2000/svg">
<path d="M78.4997 102.619L103.322 92.3772V101.312L86.7738 108.503V120.706L78.4997 123.975V102.619ZM97.4432 52.7166C110.29 52.7166 120.959 62.7407 120.959 76.2514V103.055C120.524 113.733 129.451 122.231 140.12 122.231C150.571 122.231 158.846 113.515 158.846 103.055V73.2006L150.571 76.4694V102.837C150.571 108.721 145.781 113.297 139.902 113.297C134.241 113.297 129.233 108.503 129.233 102.837V76.2514C129.451 58.3825 115.08 44 97.4432 44C79.5884 44 65 58.3825 65 76.2514V128.551L73.9273 125.282V76.2514C73.9273 63.1766 84.3787 52.7166 97.4432 52.7166ZM183.014 122.231C193.684 122.231 202.176 113.515 202.176 103.055V56.2031L193.901 59.4719V103.055C193.901 108.721 188.677 113.515 182.797 113.515C176.918 113.515 172.128 108.721 172.128 103.055V68.4065L163.2 71.6753V103.055C163.418 113.515 172.128 122.231 183.014 122.231ZM206.748 54.6778V103.055C206.748 116.13 196.078 126.808 183.014 126.808C173.435 126.808 164.725 120.924 161.023 112.861C157.321 120.924 149.483 126.808 140.12 126.808C127.273 126.808 116.822 116.13 116.822 103.055V76.2514C116.822 65.5736 108.112 57.0749 97.4432 57.0749C86.9915 57.0749 78.4997 65.7915 78.4997 76.2514V97.3892L103.322 87.1472V78.2126L86.7738 85.6217V76.2514C86.7738 70.3677 91.5641 65.7915 97.4432 65.7915C102.887 65.7915 108.112 70.3677 108.112 76.2514C108.33 76.4694 108.112 103.055 108.112 103.055C108.112 120.706 122.265 135.524 139.902 135.524C148.176 135.524 155.362 131.82 161.023 126.808C166.684 131.82 174.524 135.524 182.797 135.524C200.652 135.524 214.805 120.706 214.805 103.055V51.409L206.748 54.6778Z" fill="white"/>
</svg>
