<svg width="280" height="180" viewBox="0 0 280 180" fill="none" xmlns="http://www.w3.org/2000/svg">
<path d="M214.99 111.113H223.66V68.9238H200.193L214.99 111.113Z" fill="#FD0100"/>
<path d="M267.999 89.9142C267.999 92.4102 267.573 94.7849 266.788 97.0036H227.927C227.122 94.7295 226.712 92.3308 226.715 89.9142C226.715 78.3182 235.948 68.9062 247.349 68.9062C258.749 68.9062 267.982 78.3182 267.982 89.9142H267.999Z" fill="#FD0100"/>
<path d="M230.844 107.68L227.926 102.22H229.871L231.203 104.855C231.476 105.392 231.783 106.12 231.783 106.12H231.8C231.8 106.12 232.124 105.392 232.397 104.855L233.694 102.22H235.555L232.636 107.68V111.112H230.861V107.68H230.844ZM236.271 102.203H242.723V103.728H238.046V105.722H242.142V107.195H238.046V109.604H242.757V111.112H236.271V102.22V102.203ZM246.341 102.203H248.184L251.273 111.095H249.413L248.815 109.206H245.658L245.078 111.095H243.269L246.324 102.203H246.341ZM246.085 107.836H248.406L247.621 105.271C247.467 104.803 247.262 103.902 247.262 103.902H247.245C247.245 103.902 247.023 104.803 246.87 105.271L246.085 107.836ZM252.007 102.203H256.035C257.724 102.203 258.851 103.191 258.851 104.682C258.851 105.722 258.373 106.519 257.246 106.831V106.866C258.048 107.108 258.475 107.576 258.578 108.651C258.697 109.916 258.646 110.87 258.953 111.008V111.095H257.246C257.024 110.991 257.007 110.003 256.922 109.05C256.854 108.079 256.308 107.524 255.198 107.524H253.765V111.095H251.99V102.203H252.007ZM253.782 106.138H255.676C256.649 106.138 257.127 105.635 257.127 104.924C257.127 104.214 256.666 103.659 255.727 103.659H253.782V106.138ZM259.602 108.356H261.342C261.462 109.431 262.059 109.847 263.322 109.847C264.227 109.847 265.029 109.518 265.029 108.703C265.029 107.836 264.192 107.663 262.861 107.351C261.291 106.987 259.858 106.571 259.858 104.716C259.858 102.966 261.274 102.047 263.22 102.047C265.165 102.047 266.462 103.035 266.599 104.82H264.892C264.79 103.919 264.107 103.468 263.203 103.468C262.247 103.468 261.615 103.884 261.615 104.508C261.615 105.236 262.23 105.444 263.527 105.722C265.336 106.12 266.804 106.554 266.804 108.478C266.804 110.28 265.37 111.286 263.39 111.286C261.018 111.286 259.653 110.211 259.602 108.339V108.356Z" fill="white"/>
<path d="M134.846 97.5407L123.445 68.906H111.209V111.113H121.534V86.9327L130.63 111.113H139.061L148.141 86.9327V111.113H158.466V68.906H146.229L134.846 97.5407ZM177.291 68.906L162.084 111.113H172.768L175.686 102.671H195.108L198.061 111.113H208.745L193.658 68.906H177.274H177.291ZM178.724 93.866L184.186 78.0407H186.507L192.053 93.866H178.741H178.724ZM39.8357 89.7927C38.368 88.8567 36.7808 88.0767 35.0912 87.47C33.3845 86.8633 31.7291 86.3087 30.1077 85.7887C28.9131 85.39 27.8379 84.9567 26.848 84.5233C25.8581 84.09 25.0731 83.5873 24.5099 83.0153C23.9296 82.4607 23.6565 81.7327 23.6565 80.8487C23.6565 80.0513 23.8955 79.3407 24.3904 78.734C24.8853 78.1273 25.5339 77.6767 26.3189 77.3473C27.104 77.018 27.9744 76.862 28.9301 76.862C29.6811 76.862 30.4491 77.0007 31.2171 77.2607C31.6608 77.4167 32.0533 77.6073 32.4288 77.85C32.8043 78.0927 32.4459 77.85 32.4971 77.8847C32.6507 77.9887 32.8043 78.11 32.9408 78.2313C33.3504 78.6127 33.9136 79.3407 34.2891 80.6407V80.658C34.4597 81.2473 34.5963 81.958 34.6475 82.8073H44.3072C44 75.9433 40.8939 73.222 40.8939 73.222C39.5285 71.6793 37.8048 70.5007 35.7056 69.686C33.6064 68.8887 31.2171 68.4727 28.5205 68.4727C25.5509 68.4727 22.9227 68.9407 20.6187 69.894C18.3147 70.8473 16.5056 72.234 15.1573 74.0887C13.8091 75.9433 13.1435 78.1967 13.1435 80.8487C13.1093 83.0153 13.5019 84.8353 14.3381 86.274C15.1744 87.7127 16.2837 88.8913 17.6661 89.81C19.0485 90.7113 20.5504 91.4567 22.1717 92.046C23.7931 92.6353 25.3973 93.138 26.9845 93.5887C28.4181 94.0393 29.664 94.4553 30.7563 94.8887C31.8485 95.3047 32.7019 95.8247 33.3163 96.4313C33.9307 97.038 34.2379 97.8353 34.2379 98.8407C34.2379 100.089 33.7259 101.094 32.7189 101.891C31.712 102.671 30.2784 103.07 28.4181 103.07C27.3429 103.07 26.3701 102.914 25.4827 102.619C24.5952 102.325 23.8443 101.822 23.2299 101.111C23.0421 100.886 22.8715 100.643 22.7179 100.366C22.3595 99.6033 22.0693 98.5633 21.9669 97.1247H12C12.0512 98.286 12.1877 99.3087 12.3584 100.227C12.8363 102.689 13.8261 104.751 15.328 106.433C16.8299 108.114 18.7584 109.397 21.1136 110.263C23.4688 111.13 26.1312 111.563 29.1008 111.563C32.6165 111.563 35.5349 111.009 37.8219 109.882C40.1088 108.755 41.8325 107.247 42.9931 105.358C44.1365 103.469 44.7168 101.337 44.7168 98.962C44.7168 96.7433 44.2731 94.906 43.3856 93.45C42.4982 91.9824 41.2892 90.7427 39.8528 89.8273L39.8357 89.7927ZM22.6667 100.331C22.5131 100.037 22.3595 99.742 22.2571 99.3953C22.3765 99.7247 22.5131 100.037 22.6667 100.331ZM81.0005 79.046C82.656 77.9367 84.5675 77.382 86.7008 77.382C88.8341 77.382 90.5579 77.8153 92.1109 78.682C93.6469 79.5487 94.9269 80.9007 95.9168 82.7553H106.003L105.815 81.5593C105.713 80.866 105.542 80.19 105.286 79.5313C104.43 77.4471 103.144 75.5735 101.515 74.0367C99.6373 72.2513 97.4016 70.8647 94.8075 69.9113C92.2133 68.9407 89.3973 68.4727 86.3424 68.4727C83.2875 68.4727 80.3008 68.9927 77.7408 70.0327C75.1637 71.0727 72.9451 72.5633 71.0677 74.4873C69.1904 76.4113 67.7397 78.6993 66.7328 81.334C65.7259 83.9687 65.2139 86.846 65.2139 89.9833C65.2139 93.1207 65.7259 95.998 66.7328 98.6327C67.7397 101.267 69.1904 103.555 71.1019 105.479C73.0133 107.403 75.2491 108.894 77.8432 109.934C80.4373 110.974 83.3216 111.494 86.4789 111.494C89.8411 111.494 92.8107 110.905 95.3877 109.709C97.9648 108.53 100.132 106.987 101.924 105.133L101.993 105.063C104.599 102.29 106.048 98.6009 106.037 94.7673V87.47H86.5643V95.6687H96.5312V97.4193C95.1551 99.4955 93.1649 101.074 90.848 101.926C90.1824 102.186 89.4827 102.359 88.7488 102.463C88.2368 102.533 87.9296 102.55 87.9296 102.55C87.7077 102.55 87.5029 102.567 87.2811 102.567C84.8747 102.567 82.7925 102.047 81.0688 101.007C79.3451 99.9673 78.0309 98.494 77.1264 96.6047C76.2219 94.7153 75.7611 92.4967 75.7611 89.966C75.7611 87.5913 76.2219 85.4593 77.1605 83.5527C78.0821 81.646 79.3792 80.138 81.0517 79.0287L81.0005 79.046ZM49.9392 68.906H60.2645V78.058H49.9392V68.906ZM49.9392 82.79H60.2645V111.113H49.9392V82.79Z" fill="white"/>
</svg>
