<svg width="280" height="180" viewBox="0 0 280 180" fill="none" xmlns="http://www.w3.org/2000/svg">
<g clip-path="url(#clip0_429_3018)">
<path fill-rule="evenodd" clip-rule="evenodd" d="M156.033 58.5883C156.033 49.9536 162.986 43 171.412 43C179.838 43 186.791 49.9536 186.791 58.5883C186.791 67.223 179.838 74.1767 171.412 74.1767C162.986 74.1767 156.033 67.223 156.033 58.5883ZM171.412 49.2667C166.333 49.2667 162.185 53.4656 162.185 58.5883C162.185 63.7111 166.333 67.91 171.412 67.91C176.491 67.91 180.639 63.7111 180.639 58.5883C180.639 53.4656 176.491 49.2667 171.412 49.2667Z" fill="white"/>
<path fill-rule="evenodd" clip-rule="evenodd" d="M39 108.721C39 93.1901 51.3592 80.5996 66.6049 80.5996H69.9114V86.8663H66.6049C54.7565 86.8663 45.1515 96.6513 45.1515 108.721C45.1515 120.791 54.7565 130.576 66.6049 130.576H69.9114V136.843H66.6049C51.3592 136.843 39 124.252 39 108.721Z" fill="white"/>
<path fill-rule="evenodd" clip-rule="evenodd" d="M119.123 52.4C119.123 47.2085 123.254 43 128.35 43H140.653C145.749 43 149.881 47.2085 149.881 52.4V60.3369C149.881 64.0348 147.753 67.3817 144.458 68.9005C147.656 70.3769 149.881 73.6572 149.881 77.4667V86.71H143.729V77.4667C143.729 75.7362 142.352 74.3333 140.653 74.3333H131.272C129.81 74.3333 128.55 73.2844 128.258 71.8245C127.967 70.3647 128.724 68.8976 130.071 68.3156L141.855 63.2212C142.991 62.73 143.729 61.5943 143.729 60.3369V52.4C143.729 50.6695 142.352 49.2667 140.653 49.2667H128.35C126.652 49.2667 125.275 50.6695 125.275 52.4V86.71H119.123V52.4Z" fill="white"/>
<path fill-rule="evenodd" clip-rule="evenodd" d="M76.0625 52.4C76.0625 47.2085 80.1936 43 85.2898 43H103.744C108.84 43 112.972 47.2085 112.972 52.4V55.4229C112.972 58.4744 111.518 61.336 109.072 63.0978L106.537 64.924L109.09 66.7723C111.525 68.5355 112.972 71.3907 112.972 74.4343V77.31C112.972 82.5015 108.84 86.71 103.744 86.71H85.2898C80.1936 86.71 76.0625 82.5015 76.0625 77.31V52.4ZM101.223 61.0767L97.5855 58.4429C92.4305 54.7108 85.2898 58.4653 85.2898 64.9077C85.2898 71.3415 92.4136 75.098 97.5701 71.3833L101.214 68.7584L105.526 71.8803C106.338 72.4681 106.82 73.4198 106.82 74.4343V77.31C106.82 79.0405 105.443 80.4433 103.744 80.4433H85.2898C83.5912 80.4433 82.214 79.0405 82.214 77.31V52.4C82.214 50.6695 83.5912 49.2667 85.2898 49.2667H103.744C105.443 49.2667 106.82 50.6695 106.82 52.4V55.4229C106.82 56.44 106.335 57.3939 105.52 57.9812L101.223 61.0767ZM95.9004 64.9111L94.0184 66.2667C92.9365 67.0463 91.4413 66.2579 91.4413 64.9077C91.4413 63.5556 92.9399 62.7677 94.0218 63.5509L95.9004 64.9111Z" fill="white"/>
<path fill-rule="evenodd" clip-rule="evenodd" d="M51.457 108.799C51.457 100.147 58.3423 93.1328 66.8358 93.1328H69.9116V99.3995H66.8358C61.7398 99.3995 57.6085 103.608 57.6085 108.799C57.6085 113.991 61.7398 118.199 66.8358 118.199H69.9116V124.466H66.8358C58.3423 124.466 51.457 117.452 51.457 108.799Z" fill="white"/>
<path fill-rule="evenodd" clip-rule="evenodd" d="M76.0625 108.799C76.0625 100.147 82.948 93.1328 91.4413 93.1328C99.9346 93.1328 106.82 100.147 106.82 108.799C106.82 117.452 99.9346 124.466 91.4413 124.466C82.948 124.466 76.0625 117.452 76.0625 108.799ZM91.4413 99.3995C86.3451 99.3995 82.214 103.608 82.214 108.799C82.214 113.991 86.3451 118.199 91.4413 118.199C96.5374 118.199 100.669 113.991 100.669 108.799C100.669 103.608 96.5374 99.3995 91.4413 99.3995Z" fill="white"/>
<path fill-rule="evenodd" clip-rule="evenodd" d="M131.52 93.1328H156.033V133.612C156.033 136.061 153.501 137.651 151.354 136.552L137.671 129.548V136.999H131.52V119.385L149.882 128.785V99.3995H137.671V110.725L119.124 101.325V136.999H112.973V96.5192C112.973 94.0763 115.494 92.4854 117.641 93.5734L131.52 100.608V93.1328Z" fill="white"/>
<path d="M76.0625 130.576H106.82V136.843H76.0625V130.576Z" fill="white"/>
<path d="M156.033 80.5996H186.791V86.8663H156.033V80.5996Z" fill="white"/>
<path d="M171.411 93.1328C166.315 93.1328 162.184 97.3413 162.184 102.533V111.933V136.999H168.335V118.199H180.638V111.933H168.335V110.253V102.533C168.335 100.802 169.712 99.3995 171.411 99.3995H186.79V93.1328H171.411Z" fill="white"/>
<path d="M238.476 83.7985C238.332 83.538 238.093 83.408 237.758 83.408C237.566 83.408 237.327 83.4597 237.04 83.5639L236.249 83.9548C236.297 84.0069 236.417 84.0327 236.609 84.0327H236.896C237.422 84.0327 238.021 83.9806 238.691 83.8764C243.293 83.1064 239.799 84.7542 237.758 85.2829C236.8 85.4913 236.13 85.5955 235.747 85.5955C235.699 85.8034 235.387 85.9076 234.813 85.9076L234.167 85.9859H233.664C233.664 86.1943 233.544 86.2985 233.305 86.2985L233.018 86.2202H232.659C232.371 86.2202 232.228 86.3243 232.228 86.5327L230.289 86.8453C230.193 86.9494 229.953 87.0795 229.57 87.2358L229.139 87.3141L228.852 87.4704C228.852 87.5745 228.9 87.6787 228.996 87.7829C229.092 87.8871 229.139 88.0171 229.139 88.1734L228.421 88.6422C228.134 88.6422 227.416 88.7723 226.267 89.0327C225.118 89.2932 224.447 89.4753 224.256 89.5795H223.251C223.251 89.6316 223.226 89.7099 223.179 89.8141C223.131 89.9183 223.083 89.9704 223.035 89.9704C222.987 89.9704 222.963 89.9183 222.963 89.8141C222.58 89.8662 222.006 89.892 221.239 89.892C221.239 90.0483 221.144 90.1266 220.952 90.1266L220.737 90.2046H220.234L219.444 90.5951C219.444 90.9597 219.277 91.1422 218.941 91.1422V92.5483L218.582 93.0171C218.534 93.5381 218.343 94.0586 218.008 94.5795H217.792C217.649 94.6316 217.577 94.6837 217.577 94.7358L217.72 94.8141L217.864 94.97C217.864 95.2825 217.696 95.4388 217.361 95.4388C217.457 95.8556 217.29 96.0639 216.859 96.0639C216.428 97.2095 215.997 98.1472 215.566 98.8765C215.566 99.189 215.518 99.4753 215.422 99.7358C215.231 99.9963 215.015 100.126 214.776 100.126C214.537 100.126 214.417 100.022 214.417 99.8137L214.489 99.4232H214.632C214.728 99.4232 214.776 99.397 214.776 99.3453C214.776 99.2932 214.728 99.2411 214.632 99.189L214.417 99.1107V98.9544C214.369 98.8502 214.321 98.7981 214.273 98.7981C214.226 98.7981 214.154 98.8502 214.058 98.9544L213.914 99.0327L213.842 99.1107V100.283L213.914 100.361L214.058 100.439L214.417 100.673C214.656 100.881 214.776 101.038 214.776 101.142C214.776 101.194 214.728 101.246 214.632 101.298H214.417C214.417 101.454 214.321 101.689 214.13 102.001C213.938 102.262 213.842 102.522 213.842 102.783C213.842 103.043 213.746 103.173 213.555 103.173H213.268C213.268 103.329 213.244 103.46 213.196 103.564C213.148 103.772 213.076 103.902 212.981 103.954V104.189C212.933 104.293 212.885 104.345 212.837 104.345L212.693 103.72L212.55 103.251C212.502 103.043 212.454 102.913 212.406 102.861C212.262 102.861 212.143 103.095 212.047 103.564C211.951 104.084 211.831 104.345 211.688 104.345L211.041 105.673C211.041 105.881 210.898 106.116 210.611 106.376C210.275 106.689 210.108 106.949 210.108 107.157V108.095L210.754 107.939C210.85 107.314 211.137 106.559 211.616 105.673C211.855 105.673 211.975 105.491 211.975 105.126V104.97L212.262 104.736C212.358 104.632 212.454 104.58 212.55 104.58C212.598 104.58 212.645 104.605 212.693 104.657V105.439L212.406 105.673C212.406 105.777 212.358 105.934 212.262 106.142C212.167 106.35 212.119 106.532 212.119 106.689L211.76 107.157L211.616 108.251C211.52 108.304 211.448 108.408 211.4 108.564L211.329 108.876C211.281 109.189 211.185 109.345 211.041 109.345C210.898 109.345 210.754 109.58 210.611 110.048C210.515 110.413 210.467 110.751 210.467 111.064L210.108 111.767C209.773 111.767 209.605 111.923 209.605 112.235L209.533 112.704C209.533 112.861 209.462 113.017 209.318 113.173L209.031 113.954C209.27 113.954 209.27 114.163 209.031 114.579L208.743 115.048C208.6 115.204 208.504 115.308 208.456 115.361C208.36 115.517 208.289 115.725 208.24 115.986V116.376L208.169 116.689C207.881 117.053 207.498 117.965 207.02 119.423C206.78 120.152 206.589 120.699 206.445 121.064C206.206 121.689 205.942 122.209 205.655 122.626C205.655 122.834 205.607 123.121 205.512 123.485C205.416 123.85 205.368 124.137 205.368 124.345L205.081 124.579L204.793 124.892C204.602 125.1 204.506 125.334 204.506 125.595C204.315 125.595 204.219 125.673 204.219 125.829C204.219 126.089 204.123 126.22 203.932 126.22C203.932 126.689 203.74 126.923 203.357 126.923C203.165 127.288 202.974 127.834 202.783 128.564L202.567 129.423L202.208 130.282C202.208 130.647 202.064 130.829 201.777 130.829C201.681 130.829 201.633 130.855 201.633 130.907C201.633 130.959 201.729 131.012 201.921 131.064C202.064 131.168 202.16 131.22 202.208 131.22C202.112 131.636 202.016 131.949 201.921 132.157L201.274 132.47L200.771 133.954C200.676 133.954 200.436 134.449 200.054 135.439L199.91 135.985L199.766 136.454L199.551 137.001C199.263 137.001 199.12 136.897 199.12 136.688C199.12 136.584 199.192 136.272 199.335 135.751C199.527 135.282 199.646 135.022 199.694 134.97C199.694 134.813 199.742 134.631 199.838 134.423L199.91 134.11V133.876C200.006 133.824 200.077 133.694 200.125 133.485C200.173 133.329 200.197 133.173 200.197 133.016C200.437 133.016 200.556 132.86 200.556 132.548V132.392C200.652 132.34 200.724 132.209 200.771 132.001C200.819 131.897 200.843 131.767 200.843 131.61C200.987 131.506 201.13 131.194 201.274 130.673C201.37 130.204 201.418 129.84 201.418 129.579V129.423C201.466 129.319 201.514 129.267 201.561 129.267H201.705C201.705 127.964 202.041 126.741 202.711 125.595L203.07 125.439V124.813C203.07 124.553 203.165 124.423 203.357 124.423H203.644L203.716 123.876L203.86 123.173C203.956 122.6 204.075 122.209 204.219 122.001C204.219 121.897 204.267 121.793 204.362 121.689C204.458 121.585 204.506 121.454 204.506 121.298C204.698 121.089 204.793 120.777 204.793 120.361C204.65 120.361 204.554 120.308 204.506 120.204C204.458 120.1 204.458 119.97 204.506 119.814C204.41 120.022 204.291 120.386 204.147 120.907L203.932 121.532L203.716 122.158C203.333 123.199 202.854 123.72 202.28 123.72L202.208 122.782C202.208 122.574 202.352 122.418 202.639 122.313C202.926 122.209 203.07 122.079 203.07 121.923C203.07 121.506 202.998 121.116 202.854 120.751C202.806 120.751 202.759 120.881 202.711 121.142V121.532C202.711 121.689 202.663 121.819 202.567 121.923L202.352 122.158C202.064 122.418 201.921 122.652 201.921 122.861C201.921 123.121 201.849 123.381 201.705 123.642V124.189C201.561 124.345 201.37 124.605 201.13 124.97C200.939 125.282 200.771 125.595 200.628 125.907C200.341 125.907 200.197 125.777 200.197 125.517V124.97L200.556 124.579C200.317 123.954 200.197 123.407 200.197 122.939C200.197 122.522 200.317 122.313 200.556 122.313C200.556 122.001 200.652 121.558 200.843 120.986C201.035 120.413 201.13 120.022 201.13 119.814C201.13 119.449 201.035 119.162 200.843 118.954C200.843 118.798 200.987 118.459 201.274 117.939L201.561 117.314C201.657 117.053 201.705 116.845 201.705 116.689V116.064C201.705 115.751 201.777 115.595 201.921 115.595C202.112 115.022 202.375 114.579 202.711 114.267C202.471 114.267 202.4 114.007 202.495 113.486L202.639 112.939C202.687 112.731 202.711 112.6 202.711 112.548C202.711 112.444 202.687 112.392 202.639 112.392C202.591 112.392 202.519 112.47 202.423 112.626L202.28 112.783L202.208 112.939V113.954L201.633 113.329L201.13 113.407L201.059 113.954L200.7 114.658C200.604 114.97 200.556 115.231 200.556 115.438C200.317 115.438 200.149 115.621 200.054 115.986L199.91 116.376V116.767H199.766C199.67 116.819 199.623 116.871 199.623 116.923C199.623 117.183 199.551 117.314 199.407 117.314L198.976 117.939C198.689 117.939 198.545 118.043 198.545 118.251C198.545 118.564 198.497 118.772 198.401 118.876C198.306 118.98 198.258 119.11 198.258 119.267C197.971 119.579 197.779 120.022 197.683 120.595C197.588 120.647 197.516 120.751 197.468 120.907L197.396 121.298C197.348 121.61 197.228 121.767 197.037 121.767H196.893C196.846 121.819 196.75 122.131 196.606 122.704C196.415 123.277 196.319 123.616 196.319 123.72C196.223 123.72 196.127 123.772 196.032 123.876C195.888 124.032 195.768 124.11 195.673 124.11C195.529 124.11 195.457 124.006 195.457 123.798C195.457 123.537 195.433 123.355 195.385 123.251L195.242 123.095L195.17 123.017C195.026 122.965 194.978 122.808 195.026 122.548C194.882 122.548 194.811 122.626 194.811 122.782V123.017L194.882 123.251C194.835 123.407 194.715 123.485 194.523 123.485C194.38 123.485 194.308 123.381 194.308 123.173C194.308 122.861 194.404 122.444 194.595 121.923C194.595 121.715 194.715 121.61 194.954 121.61H195.098C195.098 121.402 195.17 121.089 195.313 120.673C195.409 120.256 195.457 119.918 195.457 119.658L195.744 119.423C195.744 119.267 195.792 119.189 195.888 119.189C195.936 119.189 196.008 119.241 196.104 119.345L196.247 119.423L196.319 119.501C196.319 119.762 196.223 119.944 196.032 120.048C195.84 120.152 195.744 120.621 195.744 121.454C195.553 121.558 195.457 121.689 195.457 121.845C195.457 121.897 195.505 121.949 195.601 122.001H195.744L195.816 121.845L195.96 121.61C196.104 121.454 196.199 121.376 196.247 121.376C196.534 121.376 196.75 121.22 196.893 120.907C196.989 120.647 197.061 120.256 197.109 119.735C197.205 118.694 197.372 118.173 197.611 118.173C197.803 117.808 197.947 117.444 198.042 117.079C198.234 116.558 198.306 116.168 198.258 115.907L197.683 116.376L197.396 117.079V117.548L196.893 117.626V118.407C196.75 118.355 196.654 118.486 196.606 118.798L196.535 119.11C196.535 119.215 196.486 119.267 196.391 119.267C196.247 119.267 196.151 119.215 196.104 119.11C196.055 119.006 196.032 118.876 196.032 118.72C196.032 118.251 196.223 117.262 196.606 115.751L196.893 114.892L197.109 114.111C197.252 113.538 197.348 113.173 197.396 113.017L197.468 112.548C197.516 112.34 197.588 112.183 197.683 112.079C197.683 111.871 197.755 111.767 197.899 111.767C198.138 111.767 198.258 111.689 198.258 111.532L197.971 110.986L198.401 110.204C198.545 110.204 198.689 109.944 198.832 109.423L198.904 108.798C198.952 108.642 198.976 108.511 198.976 108.408L199.335 107.783C199.335 107.366 199.168 107.157 198.832 107.157V107.001C198.784 106.949 198.737 106.923 198.689 106.923C198.545 106.923 198.402 107.053 198.258 107.314C198.066 107.574 197.971 107.783 197.971 107.939L197.109 108.095V109.423L196.463 111.22H196.175C196.079 111.272 196.032 111.35 196.032 111.454V111.532L195.457 110.829C195.457 110.673 195.505 110.569 195.601 110.517C195.696 110.413 195.744 110.308 195.744 110.204C195.888 110.048 196.151 109.319 196.535 108.017C196.678 107.496 196.797 107.001 196.893 106.532C197.037 106.064 197.109 105.777 197.109 105.673C197.396 105.829 197.588 105.725 197.683 105.361L197.755 104.97C197.803 104.762 197.875 104.632 197.971 104.58C197.971 104.423 197.995 104.293 198.042 104.189C198.09 103.98 198.162 103.85 198.258 103.798V103.173L198.545 102.783V102.392L198.617 101.923C198.713 101.507 198.881 101.298 199.12 101.298C199.12 101.142 199.168 100.96 199.263 100.751C199.359 100.543 199.407 100.387 199.407 100.283V99.7358C199.407 99.5274 199.503 99.4232 199.694 99.4232L199.766 99.0327L199.982 98.7202C200.125 98.3035 200.197 97.8346 200.197 97.3137L200.556 97.1575C200.556 97.0537 200.891 96.6369 201.561 95.9076H201.705V95.6734L201.633 95.2825C201.633 95.0221 201.729 94.8921 201.921 94.8921C201.921 94.84 201.897 94.7358 201.849 94.5795C201.801 94.4232 201.753 94.3453 201.705 94.3453V94.5795C200.556 94.5795 199.862 94.3453 199.623 93.8765C199.383 93.8765 199.072 93.9286 198.689 94.0327C198.258 94.0848 197.851 94.1628 197.468 94.267C196.415 94.4753 195.744 94.6837 195.457 94.8921C195.17 94.8921 194.906 94.97 194.667 95.1263C194.571 95.1263 194.38 95.1784 194.092 95.2825L193.662 95.4388L193.231 95.5951C192.417 95.9076 191.914 96.0639 191.722 96.0639C191.627 96.116 191.411 96.246 191.076 96.4544L190.717 96.689L190.214 96.9232C189.496 97.3921 188.994 97.6263 188.706 97.6263C188.563 97.6263 188.467 97.6004 188.419 97.5483L188.347 97.3137C188.347 97.1058 188.227 97.0016 187.988 97.0016C187.749 97.0016 187.509 97.0274 187.27 97.0795L186.624 97.3137C186.48 97.5221 186.169 97.6263 185.69 97.6263H184.684L184.397 98.2514H183.248C182.578 98.2514 181.596 98.1472 180.304 97.9388L178.867 97.7046L177.502 97.6263L177.143 97.3137V96.8453L177.072 96.2202C177.024 95.7514 176.856 95.5172 176.569 95.5172H176.426C176.426 95.6734 176.282 95.8818 175.995 96.1419C175.707 96.4023 175.564 96.6628 175.564 96.9232C175.324 96.9232 175.181 97.1316 175.133 97.5483C175.037 98.0172 174.917 98.2514 174.774 98.2514C174.63 98.2514 174.558 98.1734 174.558 98.0172L174.486 97.7826V96.5327L174.774 96.2981C174.774 96.1419 174.917 95.8035 175.205 95.2825C175.444 94.8141 175.564 94.4495 175.564 94.189L176.21 93.7981C176.21 93.5902 176.258 93.2776 176.354 92.8609C176.401 92.4962 176.426 92.2099 176.426 92.0016L176.138 91.2202C176.138 91.0639 176.21 90.9597 176.354 90.9076C176.449 90.8555 176.569 90.8297 176.713 90.8297C176.713 90.465 176.856 90.2567 177.143 90.2046C177.431 90.1525 177.574 90.0483 177.574 89.892C177.574 89.4753 177.718 89.1111 178.005 88.7985C178.293 88.486 178.436 88.2513 178.436 88.0951C178.197 87.5225 178.245 86.9753 178.58 86.4548C178.915 85.8818 179.346 85.5955 179.873 85.5955C179.873 85.3871 179.968 85.1525 180.16 84.892C180.351 84.5795 180.447 84.3453 180.447 84.189L181.309 83.0954C181.309 82.7308 181.429 82.5483 181.668 82.5483L182.099 81.7672C182.291 81.7151 182.386 81.5328 182.386 81.2203L182.961 80.5953C182.961 80.0745 183.248 79.6579 183.823 79.3454C184.206 78.3037 184.78 77.3662 185.546 76.5329C185.546 76.4287 185.594 76.2985 185.69 76.1423C185.786 75.986 185.834 75.8558 185.834 75.7517L186.121 75.0485C186.121 74.8402 186.193 74.5798 186.336 74.2673L186.48 73.9548L186.624 73.5642L186.911 73.4079L187.198 72.7829L187.485 72.158C187.485 71.8975 187.605 71.6632 187.844 71.4548C188.036 71.1944 188.132 70.96 188.132 70.7517V70.5954C188.18 70.5434 188.227 70.5173 188.275 70.5173C188.611 70.5173 188.754 70.283 188.706 69.8142C188.611 69.3455 188.682 69.1111 188.922 69.1111C188.922 68.7986 189.089 68.6424 189.425 68.6424H189.496C189.496 68.3298 189.592 68.0694 189.784 67.8611L190.071 67.0799C190.214 66.9236 190.382 66.7413 190.573 66.533L191.004 65.908L191.22 65.0487C191.507 65.1528 191.675 65.0747 191.722 64.8143V64.5018C191.771 64.3976 191.842 64.3455 191.938 64.3455C192.177 64.3455 192.297 64.2414 192.297 64.033C193.063 62.3664 193.925 61.0383 194.882 60.0487C194.882 59.632 195.002 59.4237 195.242 59.4237H195.457L195.888 58.4862C196.079 58.4862 196.247 58.2779 196.391 57.8612C196.582 57.4967 196.75 57.3144 196.893 57.3144C196.893 57.0019 196.965 56.7154 197.109 56.455C197.252 56.1425 197.444 55.9863 197.683 55.9863V55.1269C197.731 55.0748 197.827 55.0488 197.971 55.0488C198.162 55.0488 198.258 54.9446 198.258 54.7363L198.473 54.5019L198.689 54.1894C198.928 53.9811 199.096 53.8769 199.192 53.8769C199.287 53.8769 199.359 53.929 199.407 54.0332V54.2675C199.407 54.5279 199.359 54.8144 199.263 55.1269L198.545 55.4394C198.545 55.6998 198.45 55.9863 198.258 56.2987L197.971 56.6113L197.755 57.0019V57.3144L198.33 56.6113H199.048C199.335 56.1425 199.646 55.7259 199.982 55.3613C200.173 55.3613 200.365 55.1529 200.556 54.7363L200.771 54.2675C200.819 54.1113 200.843 53.9811 200.843 53.8769L201.13 53.6425C201.227 53.3821 201.466 53.0436 201.849 52.6269L202.495 52.9394H202.711C202.806 52.8873 202.854 52.8092 202.854 52.7051V52.6269C202.902 52.6269 203.189 52.2623 203.716 51.5332C204.243 50.804 204.578 50.4395 204.721 50.4395L204.793 50.2832L204.865 50.1269C205.009 49.9186 205.129 49.7363 205.224 49.5801C205.511 49.1634 205.655 49.1634 205.655 49.5801L206.23 49.2676L206.804 49.8926C207.092 49.8926 207.307 49.9707 207.451 50.1269L208.169 50.4395L209.246 49.8926C209.485 49.8926 209.797 49.9707 210.18 50.1269C210.563 50.3353 210.85 50.4395 211.041 50.4395L210.898 51.3769L210.467 52.0801H210.252C210.252 52.1322 210.323 52.1842 210.467 52.2363C210.611 52.2884 210.706 52.3144 210.754 52.3144C211.041 52.3144 211.257 52.2363 211.4 52.0801L212.119 52.4707C212.119 52.6269 212.143 52.7571 212.191 52.8613C212.239 52.9655 212.31 53.0436 212.406 53.0957C212.31 53.4603 212.095 53.9811 211.76 54.6581L211.329 55.4394L210.97 56.2987C210.826 56.2987 210.754 56.3769 210.754 56.5331C210.754 56.8456 210.658 57.0019 210.467 57.0019C210.467 57.3665 210.347 57.6269 210.108 57.7831C209.773 58.4081 209.318 59.3977 208.743 60.7518C208.743 60.8039 208.456 61.1945 207.881 61.9237C207.307 62.7049 207.02 63.1997 207.02 63.408L206.876 63.7206L206.661 64.1112C206.565 64.3716 206.517 64.632 206.517 64.8924L206.23 65.5955C206.23 65.6997 206.182 65.8299 206.086 65.9862C205.99 66.1424 205.942 66.2986 205.942 66.4549C205.655 66.4549 205.512 66.6111 205.512 66.9236V67.0799L205.009 67.8611C205.009 68.0174 204.985 68.1476 204.937 68.2517C204.889 68.4601 204.841 68.5903 204.793 68.6424C204.793 68.8507 204.721 68.9549 204.578 68.9549C204.243 68.9549 204.123 69.2413 204.219 69.8142C204.315 70.3871 204.171 70.6736 203.788 70.6736H203.644L203.214 71.1423C202.878 71.1423 202.711 71.2725 202.711 71.5329V71.7673C202.615 71.8715 202.543 72.0538 202.495 72.3142L202.352 72.9392C202.208 73.4079 202.041 73.6423 201.849 73.6423H201.705L201.274 74.5016C201.083 74.5016 200.939 74.6579 200.843 74.9704L200.7 75.361L200.628 75.7517C200.532 75.9079 200.413 76.1683 200.269 76.5329L199.838 77.6266C199.503 78.512 199.215 78.9547 198.976 78.9547H198.832C198.832 79.111 198.784 79.3193 198.689 79.5797C198.593 79.8401 198.545 80.0745 198.545 80.2828C198.545 80.5433 198.713 80.6735 199.048 80.6735C199.383 80.6735 199.646 80.5693 199.838 80.361C199.934 80.361 200.221 80.2828 200.7 80.1266L201.346 79.9703L202.064 79.8141C203.309 79.5016 203.979 79.2672 204.075 79.111L204.362 79.1891H204.65C204.889 79.137 205.009 79.0068 205.009 78.7985H206.373C206.421 78.6943 206.876 78.5381 207.738 78.3297C208.169 78.2777 208.48 78.1995 208.671 78.0953C208.959 78.0433 209.15 77.9652 209.246 77.861H210.539L210.754 77.4704L211.041 77.236C211.041 76.9756 211.185 76.8454 211.472 76.8454H211.616C211.568 76.6371 211.592 76.3506 211.688 75.986L211.76 75.5954L211.831 75.1267C211.975 75.1787 212.095 75.1787 212.191 75.1267C212.334 75.0746 212.406 74.9704 212.406 74.8142C212.598 74.8142 212.693 74.736 212.693 74.5798C212.693 74.3194 212.813 74.1892 213.052 74.1892C213.292 74.1371 213.412 73.9288 213.412 73.5642C213.412 73.0434 213.483 72.7048 213.627 72.5486C213.675 72.4965 213.795 72.4183 213.986 72.3142L214.273 72.2361L214.632 72.0017L214.776 71.1423L215.566 70.8298L215.997 70.283C216.284 70.283 216.428 70.1527 216.428 69.8924C216.428 69.2153 216.572 68.8767 216.859 68.8767C217.146 68.9288 217.29 68.9028 217.29 68.7986C217.29 68.4861 217.337 68.3298 217.433 68.3298C218.295 67.6007 218.893 67.0278 219.229 66.6111L220.091 66.533C220.091 66.5851 220.282 66.6893 220.665 66.8455C221.048 67.0017 221.239 67.2882 221.239 67.7049C221.239 67.9653 221.431 68.0955 221.814 68.0955H222.029L222.46 68.0174C222.796 68.0174 222.963 68.0695 222.963 68.1736L223.682 68.3298C223.49 68.7465 223.61 68.9549 224.04 68.9549C224.04 69.1632 224.112 69.2673 224.256 69.2673C224.447 69.2673 224.639 69.1632 224.83 68.9549L225.764 69.033C225.764 69.6059 225.956 69.8924 226.339 69.8924H229.068L229.355 71.4548L229.139 72.0798C228.948 71.9236 228.852 72.0277 228.852 72.3923V73.0954C228.517 73.6163 228.254 74.1371 228.062 74.6579C227.871 74.71 227.775 74.8923 227.775 75.2048L227.129 75.7517C227.129 76.0641 227.033 76.3245 226.841 76.5329C226.841 76.6371 226.889 76.6891 226.985 76.6891H227.129L227.272 76.611C227.416 76.611 227.488 76.6891 227.488 76.8454L227.703 77.0016L227.631 77.3141C227.44 77.3141 227.201 77.3662 226.913 77.4704L226.554 77.5485L226.339 77.6266H226.123C226.123 77.6787 226.195 77.7308 226.339 77.7829C226.434 77.835 226.506 77.861 226.554 77.861L227.129 77.7829H228.062C228.924 77.7829 229.355 77.9131 229.355 78.1735C229.355 78.4339 229.188 78.5641 228.852 78.5641H228.78L228.421 78.7985C228.277 78.7985 227.966 78.8766 227.488 79.0328L226.985 79.1891C226.793 79.2412 226.65 79.2672 226.554 79.2672C226.362 79.4755 226.267 79.6579 226.267 79.8141C226.267 79.9703 226.554 80.0485 227.129 80.0485H228.277L228.493 80.6735H229.499C229.881 80.6735 230.073 80.6995 230.073 80.7516C230.073 80.8557 230.025 80.986 229.93 81.1422L229.786 81.2984L229.642 81.4547L230.576 81.6109L231.94 81.1422C232.946 81.1422 233.784 81.2724 234.454 81.5328L234.957 81.9235C235.005 81.9235 235.1 81.9495 235.244 82.0016L235.675 82.1578C236.01 82.262 236.178 82.2099 236.178 82.0016C236.273 82.0016 236.465 81.9755 236.752 81.9235H237.47C238.093 81.9235 238.524 82.0276 238.763 82.2361C238.907 82.0797 239.17 81.9755 239.553 81.9235H240.415L240.846 81.6109C240.893 81.5068 240.989 81.4287 241.133 81.3766C241.229 81.3245 241.348 81.2984 241.492 81.2984L241.923 81.6891C241.923 81.8453 241.875 82.0276 241.779 82.2361L241.564 82.7829L240.918 82.5483C240.87 82.7567 240.534 82.9129 239.912 83.0171C239.72 83.0692 239.505 83.0954 239.266 83.0954H238.835L238.476 83.7985ZM192.153 68.6424C192.058 68.6945 192.01 68.7465 192.01 68.7986C192.01 68.9028 192.058 68.9549 192.153 68.9549C192.201 68.9549 192.249 68.9288 192.297 68.8767V68.7205L192.944 68.1736C192.944 67.9653 193.135 67.6267 193.518 67.158C193.853 66.7413 194.021 66.4289 194.021 66.2205L194.308 65.908V65.7518C194.356 65.6476 194.404 65.5955 194.451 65.5955H194.595C194.931 65.0226 195.098 64.5018 195.098 64.033L195.816 62.4706L196.606 60.9862L197.109 60.6737C196.917 60.4654 196.63 60.3612 196.247 60.3612C196.008 60.3612 195.816 60.4914 195.673 60.7518C195.529 61.0643 195.361 61.2206 195.17 61.2206L194.811 61.8456C194.667 61.8456 194.595 61.9237 194.595 62.0799C194.595 62.3924 194.5 62.5487 194.308 62.5487C193.925 62.9653 193.733 63.356 193.733 63.7206L193.446 64.3455C193.829 64.3455 194.14 64.1372 194.38 63.7206C194.571 63.3039 194.715 63.0955 194.811 63.0955C194.859 63.0955 194.882 63.1476 194.882 63.2518V63.408C194.882 63.5122 194.835 63.6424 194.739 63.7987C194.643 63.9549 194.595 64.0851 194.595 64.1893C194.404 64.3976 194.308 64.6581 194.308 64.9705L193.877 65.283L193.733 65.6736L193.446 65.908L193.303 66.2205L193.087 66.533L192.728 67.2361C192.441 67.809 192.297 68.2778 192.297 68.6424H192.153ZM226.77 73.8767C226.626 74.0329 226.482 74.2412 226.339 74.5016C226.195 74.7621 226.099 74.9964 226.051 75.2048C226.051 75.361 226.028 75.5173 225.98 75.6735C225.931 75.8818 225.86 76.0121 225.764 76.0641C225.764 76.1683 225.716 76.2725 225.62 76.3766C225.525 76.4808 225.477 76.611 225.477 76.7672L224.83 77.3923L224.902 78.1735L225.764 77.7829L226.051 77.1579V76.7672C226.099 76.611 226.171 76.5068 226.267 76.4548C226.267 76.2464 226.362 75.986 226.554 75.6735C226.745 75.361 226.841 75.0746 226.841 74.8142C227.081 74.8142 227.201 74.6579 227.201 74.3454V74.1892L228.062 73.5642C228.062 73.4079 227.895 73.2777 227.56 73.1735L227.129 73.0173H226.841L226.77 73.8767ZM196.247 93.1734C196.104 93.1734 195.601 93.2776 194.739 93.486C193.877 93.746 193.231 93.8765 192.8 93.8765C192.608 93.8765 192.513 93.9544 192.513 94.1107C192.513 94.2669 192.584 94.3711 192.728 94.4232C192.872 94.5274 193.015 94.5795 193.159 94.5795H194.595C194.787 94.5795 195.146 94.4495 195.673 94.189L196.247 93.9544C196.486 93.9023 196.678 93.8765 196.822 93.8765H197.037C197.133 93.8765 197.181 93.8502 197.181 93.7981C197.181 93.6422 197.061 93.486 196.822 93.3297C196.582 93.2255 196.391 93.1734 196.247 93.1734ZM186.767 76.6891C186.624 76.6891 186.528 76.8454 186.48 77.1579C186.432 77.4704 186.312 77.6266 186.121 77.6266L185.834 77.9391L185.618 78.2516C185.379 78.5641 185.259 78.8245 185.259 79.0328C185.259 79.1891 185.331 79.2933 185.474 79.3454C185.57 79.3974 185.69 79.4235 185.834 79.4235C186.073 79.111 186.36 78.6162 186.695 77.9391L187.126 77.1579L187.557 76.3766H187.701C187.749 76.3766 187.772 76.3506 187.772 76.2985C187.772 76.2464 187.701 76.1423 187.557 75.986L187.342 75.8298L187.198 75.7517L186.767 76.6891ZM185.762 98.5639C185.857 98.616 185.929 98.694 185.977 98.7981C186.073 98.9023 186.121 98.9807 186.121 99.0327C186.121 99.0848 186.073 99.1107 185.977 99.1107C185.738 99.1107 185.283 99.2149 184.612 99.4232L183.823 99.6575C183.631 99.7096 183.464 99.7616 183.32 99.8137C183.176 99.8658 183.08 99.7879 183.033 99.5795L182.961 99.267V99.1107C183.105 99.1107 183.296 99.0586 183.535 98.9544C183.775 98.9023 183.966 98.8765 184.11 98.8765H184.612C184.852 98.8765 184.972 98.7723 184.972 98.5639H185.762ZM211.831 100.205C211.784 100.205 211.736 100.257 211.688 100.361L211.616 100.439V100.986C211.616 101.194 211.76 101.298 212.047 101.298L212.406 100.595L212.478 100.439L212.55 100.361H212.765L212.981 100.439H213.124C213.172 100.439 213.268 100.23 213.412 99.8137H213.555C213.603 99.8137 213.627 99.7879 213.627 99.7358C213.627 99.6316 213.555 99.5274 213.412 99.4232C213.268 99.3191 213.124 99.267 212.981 99.267C212.837 99.267 212.717 99.4232 212.621 99.7358L212.478 100.126L212.406 100.439L211.831 100.205ZM215.566 92.7825C215.566 92.9388 215.494 93.0951 215.35 93.2514C215.255 93.3555 215.111 93.4597 214.919 93.5639C214.919 93.4076 214.872 93.3555 214.776 93.4076L214.704 93.486L214.632 93.6422C214.632 93.746 214.68 93.9286 214.776 94.189C214.872 94.3974 214.919 94.5795 214.919 94.7358L215.566 94.5795L215.71 93.8765L216.141 93.2514L215.566 92.7825ZM213.268 100.751C213.268 101.168 213.076 101.481 212.693 101.689V102.548H212.837C213.124 102.548 213.268 102.418 213.268 102.157C213.412 102.157 213.555 102.053 213.699 101.845L213.771 101.533L213.842 101.298H213.986C214.082 101.298 214.13 101.272 214.13 101.22C214.13 101.168 214.01 101.09 213.771 100.986L213.483 100.829L213.268 100.751ZM184.397 79.8922L184.11 80.2828V80.8297L184.684 80.986C184.684 80.8297 184.732 80.6474 184.828 80.4391C184.924 80.1787 184.972 79.9964 184.972 79.8922C184.972 79.5276 184.78 79.2933 184.397 79.1891V79.8922ZM188.634 75.361V75.5954C188.586 75.6996 188.539 75.7517 188.491 75.7517C188.443 75.7517 188.371 75.8818 188.275 76.1423C188.18 76.4027 188.132 76.585 188.132 76.6891H187.916C187.821 76.7412 187.772 76.8193 187.772 76.9235C187.772 77.0277 187.797 77.1058 187.844 77.1579C187.94 77.262 188.036 77.3141 188.132 77.3141C188.227 77.3141 188.299 77.262 188.347 77.1579V76.8454L189.137 75.1267V74.9704L189.065 74.8142C189.065 74.6579 189.041 74.5798 188.994 74.5798C188.945 74.5798 188.922 74.7621 188.922 75.1267L188.634 75.361ZM201.561 81.2984L202.208 81.1422C202.783 81.038 203.07 80.8818 203.07 80.6735C202.591 80.8297 202.184 80.9078 201.849 80.9078C201.801 80.9078 201.753 80.8818 201.705 80.8297V80.6735L200.269 81.1422C200.317 81.1943 200.46 81.2464 200.7 81.2984H201.561ZM194.595 125.204C194.643 125.1 194.715 125.048 194.811 125.048C194.954 125.048 195.122 125.152 195.313 125.361C195.409 125.361 195.457 125.386 195.457 125.439C195.457 125.491 195.385 125.595 195.242 125.751C195.098 125.907 194.978 126.012 194.882 126.064L195.098 126.376C195.146 126.48 195.098 126.558 194.954 126.61H194.595V125.204ZM187.485 92.7825C187.485 92.9388 187.557 93.0692 187.701 93.1734C187.844 93.2776 187.988 93.3297 188.132 93.3297H188.634C188.874 93.3297 188.994 93.3035 188.994 93.2514C188.994 93.0951 188.802 92.9388 188.419 92.7825L187.988 92.6263C187.844 92.5742 187.749 92.5483 187.701 92.5483C187.557 92.5483 187.485 92.6263 187.485 92.7825ZM208.743 105.986C208.743 106.09 208.695 106.246 208.6 106.454C208.504 106.663 208.456 106.819 208.456 106.923C208.456 107.027 208.528 107.105 208.671 107.157H208.959C209.246 107.157 209.39 107.08 209.39 106.923C209.39 106.767 209.318 106.584 209.174 106.376C209.031 106.22 208.887 106.09 208.743 105.986ZM178.221 94.8141C178.173 95.0221 178.053 95.1263 177.862 95.1263V95.7514L178.436 95.5172C178.436 95.2046 178.628 94.9441 179.011 94.7358L178.221 94.267V94.8141ZM194.882 127.235C194.882 127.34 194.835 127.418 194.739 127.47C194.643 127.522 194.523 127.548 194.38 127.548H194.236C194.14 127.496 194.092 127.444 194.092 127.392C194.092 127.235 194.14 127.079 194.236 126.923C194.332 126.819 194.451 126.715 194.595 126.61L194.882 127.235ZM192.441 96.3765L192.01 96.9232H191.22C191.22 96.767 191.316 96.6628 191.507 96.6107C191.651 96.6107 191.722 96.5327 191.722 96.3765H192.441ZM201.705 113.642C201.897 113.85 201.992 114.085 201.992 114.345C201.992 114.397 201.944 114.449 201.849 114.501C201.801 114.553 201.729 114.579 201.633 114.579C201.538 114.267 201.49 114.032 201.49 113.876C201.49 113.72 201.561 113.642 201.705 113.642ZM208.743 111.142C208.743 111.402 208.935 111.532 209.318 111.532L209.174 110.907L208.743 110.673V111.142ZM208.169 79.111L208.815 79.4235C208.959 79.4235 209.126 79.3714 209.318 79.2672C209.509 79.1631 209.653 79.111 209.749 79.111L209.605 78.9547C209.557 78.8506 209.509 78.7985 209.462 78.7985C209.413 78.7985 209.366 78.8506 209.318 78.9547V79.111H208.169ZM203.07 80.6735C203.309 80.6735 203.62 80.6214 204.003 80.5172C204.387 80.413 204.674 80.361 204.865 80.361C204.961 80.361 205.009 80.3349 205.009 80.2828C205.009 80.2308 204.937 80.1526 204.793 80.0485L204.65 79.9703H204.578C204.338 79.9703 204.219 80.1006 204.219 80.361L203.07 80.6735ZM193.733 96.9232C193.733 96.819 193.757 96.7149 193.805 96.6107C193.853 96.5065 193.925 96.4544 194.021 96.4544L194.308 96.689H194.523C194.523 96.7411 194.404 96.7932 194.164 96.8453C193.973 96.8974 193.829 96.9232 193.733 96.9232ZM181.524 100.126C181.668 100.126 181.788 100.178 181.884 100.283L182.099 100.673C181.716 100.673 181.524 100.491 181.524 100.126ZM205.799 80.1266C205.894 80.1266 205.99 80.1006 206.086 80.0485C206.182 79.9964 206.23 79.9183 206.23 79.8141H205.368L205.799 80.1266ZM206.804 79.5016C206.804 79.5537 206.852 79.6058 206.948 79.6579L207.02 79.736H207.092L207.594 79.6579C207.594 79.6058 207.547 79.5537 207.451 79.5016L207.379 79.4235H207.307L206.804 79.5016ZM216.141 94.8921L216.643 94.8141L216.141 94.267V94.8921ZM209.605 109.814L209.821 110.204V109.58L209.605 109.032V109.814ZM181.668 84.3453H181.884C182.027 84.2932 182.099 84.2411 182.099 84.189C182.099 84.1369 182.051 84.0589 181.955 83.9548L181.884 83.8764L181.812 83.7985L181.668 84.3453ZM196.032 123.173L195.888 122.548L195.457 122.626L196.032 123.173ZM199.263 94.8921L198.545 94.8141L199.91 94.5795L199.263 94.8921ZM198.832 82.2361C198.832 82.392 198.904 82.4703 199.048 82.4703C199.192 82.4703 199.311 82.4441 199.407 82.392C199.407 82.2882 199.311 82.2361 199.12 82.2361H198.832ZM195.098 95.9076C195.002 95.9597 194.835 95.986 194.595 95.986C194.404 95.986 194.308 95.9076 194.308 95.7514L195.098 95.9076ZM203.357 110.829C203.357 110.934 203.381 111.011 203.429 111.064C203.476 111.168 203.548 111.22 203.644 111.22C203.644 111.168 203.596 111.064 203.501 110.907C203.453 110.699 203.405 110.595 203.357 110.595V110.829ZM179.873 86.9232C179.873 86.9753 179.897 87.0274 179.945 87.0795C179.945 87.1837 179.968 87.2358 180.016 87.2358C180.064 87.2358 180.112 87.2099 180.16 87.1578V87.0015C180.16 86.8974 180.112 86.8453 180.016 86.8453H179.945L179.873 86.9232ZM234.741 84.111C234.741 84.3194 234.813 84.4236 234.957 84.4236L235.028 84.3453L235.1 84.189L234.741 84.111ZM199.12 113.954C199.12 114.163 199.192 114.267 199.335 114.267C199.383 114.267 199.407 114.215 199.407 114.111C199.407 114.007 199.335 113.954 199.192 113.954H199.12ZM203.07 111.532C203.07 111.741 203.142 111.845 203.285 111.845C203.333 111.845 203.357 111.793 203.357 111.689C203.357 111.584 203.285 111.532 203.142 111.532H203.07ZM197.396 82.2361C197.396 82.4441 197.468 82.5483 197.611 82.5483C197.659 82.5483 197.683 82.4962 197.683 82.392C197.683 82.2882 197.611 82.2361 197.468 82.2361H197.396ZM188.634 96.689C188.634 96.7411 188.658 96.7932 188.706 96.8453C188.706 96.9495 188.73 97.0016 188.778 97.0016C188.874 97.0016 188.922 96.9495 188.922 96.8453C188.922 96.7411 188.874 96.689 188.778 96.689H188.634ZM197.109 57.9394C197.109 58.0956 197.205 58.1737 197.396 58.1737L197.109 57.6269V57.9394ZM191.794 69.5017L191.866 69.5799C191.962 69.5799 192.01 69.5278 192.01 69.4236C192.01 69.3194 191.962 69.2673 191.866 69.2673C191.818 69.3194 191.771 69.3455 191.722 69.3455L191.794 69.5017ZM197.683 57.6269C197.683 57.6789 197.708 57.731 197.755 57.7831C197.755 57.8873 197.779 57.9394 197.827 57.9394C197.875 57.9394 197.923 57.9133 197.971 57.8612V57.705L197.683 57.6269ZM196.032 122.001C196.032 122.053 196.055 122.105 196.104 122.158C196.104 122.261 196.127 122.313 196.175 122.313C196.223 122.313 196.271 122.288 196.319 122.235V122.079L196.032 122.001ZM235.675 84.111C235.675 84.1631 235.699 84.2152 235.747 84.2673C235.747 84.3715 235.771 84.4236 235.818 84.4236C235.867 84.4236 235.914 84.3973 235.962 84.3453V84.189L235.675 84.111ZM189.209 96.3765C189.209 96.4286 189.233 96.4807 189.281 96.5327C189.281 96.6369 189.305 96.689 189.353 96.689C189.4 96.689 189.448 96.6628 189.496 96.6107V96.4544L189.209 96.3765ZM205.224 118.564C205.272 118.564 205.32 118.538 205.368 118.486V118.329L205.009 118.251L205.224 118.564ZM201.13 111.532C201.13 111.584 201.155 111.637 201.202 111.689C201.202 111.793 201.227 111.845 201.274 111.845C201.322 111.845 201.37 111.819 201.418 111.767V111.611L201.13 111.532ZM198.545 115.361C198.593 115.413 198.641 115.438 198.689 115.438H198.832C198.832 115.283 198.737 115.204 198.545 115.204V115.361ZM228.062 87.6266C228.11 87.6787 228.158 87.7046 228.206 87.7046H228.277C228.277 87.5483 228.206 87.4704 228.062 87.4704V87.6266ZM181.309 84.7357C181.309 84.8399 181.357 84.892 181.453 84.892H181.524C181.524 84.7878 181.477 84.7357 181.381 84.7357H181.309Z" fill="#FF0099"/>
</g>
<defs>
<clipPath id="clip0_429_3018">
<rect width="203" height="94" fill="white" transform="translate(39 43)"/>
</clipPath>
</defs>
</svg>
