<svg width="60" height="60" viewBox="0 0 60 60" fill="none" xmlns="http://www.w3.org/2000/svg">
<path fill-rule="evenodd" clip-rule="evenodd" d="M45.6532 55.5975C54.2585 50.3237 60 40.8322 60 30C60 13.4316 46.5687 0 30 0C15.3888 0 3.21733 10.4453 0.545321 24.2758C0.616566 24.3184 0.689808 24.368 0.76638 24.4253L1.06401 24.663C1.49814 25.0099 1.73917 25.3445 1.30105 25.8678C0.938166 26.3013 0.581277 26.7397 0.229048 27.1818C0.191761 27.2284 0.15514 27.2751 0.117853 27.3217C0.0432795 28.1629 0.00332919 29.0142 0 29.8738C0.594593 29.6201 1.18985 29.3525 1.68257 28.9766C1.8184 28.8717 1.93759 28.7466 2.05544 28.6227C2.35174 28.3108 2.64071 28.0071 3.17205 28.0531C3.22865 28.0581 3.37513 27.7481 3.37713 27.567C3.44838 26.1811 4.50373 25.419 5.37598 24.6323C5.65563 24.378 6.43066 24.1779 7.12247 24.6517C7.08651 24.658 7.0479 24.6836 7.0146 24.7189C6.99862 24.7362 6.98398 24.7559 6.97132 24.7762C6.95601 24.8005 6.94403 24.8261 6.93737 24.8514C6.93337 24.8677 6.93071 24.8837 6.93071 24.899C6.90874 25.2063 6.89409 25.5808 7.38215 25.4017C7.44673 25.3721 7.39946 25.0498 7.26296 24.7375C7.49268 24.1696 7.83225 23.6685 8.25107 23.2714C8.49609 23.0407 8.87562 22.998 9.1606 23.3276C9.09535 23.4561 8.99015 23.568 8.88095 23.6782L8.841 23.7191C8.73646 23.8233 8.63192 23.9279 8.55802 24.0461C8.46613 24.1939 8.42219 24.3627 8.48744 24.5777C9.01412 26.2537 8.04332 27.2874 7.08252 28.3104L7.06055 28.3334C6.94003 28.4619 6.82018 28.5901 6.70299 28.7196C6.67503 28.7542 6.60511 28.7469 6.5119 28.7176C6.41136 28.6863 6.28485 28.6294 6.15501 28.5711C6.01452 28.5082 5.87069 28.4436 5.75351 28.408C5.37864 28.2918 5.0617 28.384 4.81867 28.7386C4.56632 29.1058 4.6309 29.3808 4.91389 29.688C6.15234 31.0633 7.90949 30.4148 8.42418 28.9563C8.04799 28.082 8.52606 27.9852 9.02677 27.8836C9.24383 27.8397 9.46489 27.7944 9.62402 27.6849C9.70858 27.6266 9.77517 27.55 9.81379 27.4455C10.0155 26.9085 10.4497 26.4534 10.8725 26.01C10.979 25.8984 11.0849 25.7876 11.1861 25.6764C11.3146 25.5152 11.6169 25.4926 11.8499 25.4553L12.4565 25.3807C12.9652 25.3178 13.4732 25.2552 13.9826 25.199C14.3934 25.1534 14.8049 25.1121 15.2191 25.0781C15.6319 25.0468 15.8083 24.7828 15.9841 24.5205C16.0753 24.384 16.1659 24.2478 16.2897 24.1453C16.7065 24.625 16.7252 25.198 16.7438 25.7686C16.7538 26.0672 16.7631 26.3652 16.8297 26.6488C16.9123 26.9668 16.8317 27.0856 16.6946 27.1242C16.5328 27.1699 16.2931 27.1043 16.1479 27.1206C15.6918 27.1715 15.4987 27.4758 15.3076 27.7774C15.237 27.889 15.1665 28.0005 15.0826 28.0984C14.8608 28.3534 14.8588 28.672 14.8568 28.9986C14.8555 29.2476 14.8535 29.5019 14.755 29.7363C14.697 29.8732 14.6058 30.0033 14.462 30.1218C13.8821 30.5933 13.4839 31.2704 13.0205 31.876C12.3793 32.7046 12.6855 34.839 13.5145 35.582C13.683 35.7285 13.8581 35.8664 14.0339 36.0029C14.1584 36.1001 14.2836 36.1966 14.4074 36.2955C14.9334 36.7563 14.7703 37.3166 14.0192 37.6718C13.93 37.7157 13.8042 37.7047 13.679 37.6941C13.5718 37.6851 13.4659 37.6761 13.3847 37.7014C13.3387 37.7154 13.3014 37.7404 13.2755 37.782C13.2622 37.8039 13.2522 37.8302 13.2462 37.8622C13.2355 37.9161 13.2362 37.9854 13.2508 38.0743C13.5478 39.916 13.4266 40.3475 12.1129 41.1271C11.9225 41.239 11.4464 41.2244 11.4511 41.269C11.4484 41.5413 11.4817 41.8203 11.5143 42.0973C11.5709 42.579 11.6269 43.0544 11.495 43.4782C11.2746 44.1354 10.5142 44.6045 10.7926 45.4771C10.8145 45.5603 10.7326 45.6682 10.6428 45.7867C10.5669 45.8872 10.485 45.9951 10.4557 46.102C10.423 46.2171 10.4324 46.339 10.451 46.4645L10.4683 46.5694C10.4776 46.6263 10.4869 46.6839 10.4936 46.7418L10.6341 46.7242L10.8432 46.6942C11.0036 46.6702 11.1634 46.6466 11.3232 46.634C11.4231 46.626 11.5223 46.6226 11.6215 46.6266C12.0084 46.6513 12.0776 46.5644 11.9931 46.2125C11.9451 46.0337 11.9178 45.8469 11.8999 45.6592C11.8885 45.5413 11.8805 45.4228 11.8726 45.3056L11.8559 45.0869C11.8006 44.0878 11.9465 43.7778 13.1117 43.7942C14.223 43.8165 14.3215 43.1869 14.4327 42.4815L14.4593 42.3103C14.4873 42.1256 14.5539 41.9365 14.6018 41.751C14.6438 41.5909 14.6717 41.4334 14.6498 41.284C14.5972 40.9167 14.6418 40.7087 14.974 40.8522C15.2816 40.976 15.7877 41.3599 15.7431 41.4664C15.3742 42.4112 15.3902 43.3584 15.5347 44.3475C15.54 44.3977 15.3582 44.482 15.1951 44.5575C15.1412 44.5825 15.0892 44.6065 15.0466 44.6281L14.9554 44.6714L14.8642 44.7114C14.7057 44.7799 14.5406 44.8518 14.5459 44.8988C14.6777 45.8779 14.4334 46.8204 14.3821 47.7749C14.3535 48.3971 14.0831 48.8152 13.7749 49.1928C13.5798 49.4325 13.3694 49.6555 13.1969 49.9046C13.1097 50.0297 13.0318 50.1616 12.9705 50.3051C12.9259 50.4116 12.9659 50.5654 13.0231 50.6719C13.0404 50.7092 13.095 50.7495 13.151 50.7715C13.1922 50.7875 13.2342 50.7934 13.2615 50.7808C13.4726 50.6799 13.6796 50.5694 13.8861 50.4555L14.219 50.2694C14.9261 49.8709 15.6379 49.4704 16.4635 49.3156C16.7611 49.2484 17.0455 48.8662 17.2385 48.5735C17.5455 48.0968 17.9923 48.0735 18.4377 48.0505L18.6102 48.0405C18.6668 48.0369 18.7234 48.0322 18.7793 48.0252C18.8319 48.0189 18.8845 48.0106 18.9364 47.9996C19.0257 47.9896 19.2148 48.0589 19.2148 48.0589C19.1728 48.2892 19.1974 48.6142 19.0636 48.7307C18.9864 48.7913 18.9025 48.8495 18.8146 48.9025C18.7633 48.9334 18.7107 48.9624 18.6574 48.989C18.481 49.0773 18.2946 49.1392 18.1168 49.1532C17.8038 49.1661 17.5362 49.3679 17.4003 49.553C17.3664 49.5996 17.3404 49.6452 17.3244 49.6865C17.3051 49.7348 17.2991 49.777 17.3091 49.8083C17.411 50.1423 17.407 50.4282 17.3404 50.6866C17.2439 51.0598 17.0155 51.3754 16.7851 51.6933C16.6739 51.8468 16.5627 52.0006 16.4655 52.1617C16.4369 52.2067 16.4442 52.2913 16.4722 52.3838C16.5201 52.5416 16.628 52.7234 16.7265 52.7763C17.0142 52.9251 17.3937 52.9841 17.6913 52.9171C17.8478 52.8902 17.9816 52.6618 18.1015 52.461L18.1035 52.456L18.1694 52.3439C18.6568 51.5552 19.2933 50.9869 20.2907 51.1124C20.5058 51.1364 20.7009 51.0731 20.8794 50.9769C20.9506 50.9386 21.0192 50.895 21.0851 50.8497C21.1517 50.8034 21.2163 50.7552 21.2782 50.7089C21.5059 50.5388 21.7017 50.3923 21.8768 50.4492C22.8735 50.7781 23.801 51.2955 24.8551 51.5279C24.9816 51.5475 25.1653 52.0805 25.0941 52.1451C24.2512 53.0187 24.7832 53.4185 25.3305 53.8297L25.4696 53.9352C25.5642 54.0084 25.6561 54.0834 25.7373 54.1626C25.8452 54.2661 25.9078 54.3933 25.9304 54.5275C25.9524 54.6613 25.9344 54.8021 25.8805 54.934C25.8039 55.1211 25.6547 55.2895 25.4457 55.3927C25.3784 55.424 25.2719 55.407 25.1687 55.3648C25.0741 55.3261 24.9829 55.2662 24.9276 55.2023C24.8511 55.1261 24.8624 54.9906 24.8737 54.8544C24.8917 54.6273 24.9097 54.398 24.5255 54.4339C24.4502 54.4406 24.377 54.4625 24.3078 54.4962C24.2045 54.5461 24.1107 54.6217 24.0321 54.7116C23.811 54.9646 23.7172 55.3295 23.9043 55.5425L23.9955 55.6404L24.132 55.7896C24.3877 56.0755 24.5921 56.3652 24.5521 56.7916C24.5248 57.1562 24.6467 57.6396 24.4562 57.853C24.2259 58.0987 24.0328 58.3903 23.8397 58.6826C23.7052 58.8857 23.5707 59.0888 23.4235 59.2769C24.5341 59.5252 25.6681 59.712 26.8213 59.8335C26.9911 59.6464 27.1356 59.423 27.2987 59.2293C27.3693 59.1404 27.4379 59.0458 27.5051 58.9493L27.6296 58.7675C27.8953 58.3777 28.161 57.9878 28.5198 57.8274C28.6483 57.7734 28.7762 57.7232 28.9027 57.6736L28.9207 57.6666L29.0985 57.5966C29.2256 57.546 29.3521 57.4941 29.478 57.4378C29.5918 57.3869 29.705 57.3323 29.8176 57.2714C29.8668 57.2448 29.9161 57.2168 29.9647 57.1875C30.02 57.1542 30.0752 57.1192 30.1305 57.0823C30.4295 56.8785 30.5127 57.009 30.548 57.2088C30.576 57.3669 30.5746 57.568 30.6272 57.6819C30.6871 57.8017 30.7551 57.9209 30.8236 58.0424C30.8716 58.1267 30.9202 58.2119 30.9675 58.2991C30.6279 58.6986 30.6678 59.0555 31.0873 59.3701C30.8643 59.6045 30.807 59.8092 30.8509 59.988C31.4442 59.9714 32.0335 59.9381 32.6181 59.8875C32.664 59.8345 32.71 59.7809 32.7539 59.7257C32.7952 59.7749 32.8438 59.8199 32.8984 59.8618C34.284 59.729 35.6423 59.5019 36.9667 59.187C36.452 58.7525 36.462 58.6726 37.2849 58.4279C37.5213 58.3584 37.7357 58.2751 37.8942 58.1606C38.1106 58.0045 38.2238 57.7901 38.1492 57.4728C37.9854 56.7118 38.4135 56.3023 38.7877 55.8085C39.0028 55.5282 39.3204 55.4596 39.6427 55.3901C39.7339 55.3701 39.8258 55.3501 39.9157 55.3255C40.0056 55.3008 40.0934 55.2715 40.1773 55.2323C40.2945 55.1773 40.4044 55.1031 40.5003 54.9969C40.5589 54.932 40.6121 54.8551 40.6587 54.7632C40.8085 54.4576 41.017 54.1769 41.2493 53.9072C41.4085 53.7225 41.5783 53.543 41.7474 53.3643C41.8626 53.2427 41.9771 53.1216 42.0883 52.9994C42.1276 52.9498 42.5517 53.1056 42.5744 53.2048C42.7888 54.6154 43.6763 54.9789 44.9634 54.869C45.1065 54.8531 45.2797 55.0438 45.4348 55.2146C45.4734 55.2569 45.5107 55.2982 45.546 55.3345C45.6319 55.43 45.6665 55.5189 45.6532 55.5975ZM11.2953 17.1963L11.3106 17.2738C11.3252 17.3454 11.3399 17.4197 11.3505 17.4889C11.3712 17.6267 11.3745 17.7439 11.3186 17.7772C11.0915 17.932 10.7526 17.7835 10.5396 17.5325C10.4184 17.389 10.3378 17.2122 10.3431 17.0391C10.3458 16.9596 10.445 16.8357 10.4896 16.8307C10.72 16.8727 10.9311 16.9393 11.2706 17.0481C11.276 17.0911 11.2846 17.1417 11.2953 17.1963ZM8.22243 18.5755C8.12722 18.459 7.99472 18.3665 7.85889 18.2713L7.8509 18.2653L7.84291 18.2603C7.77899 18.2153 7.71373 18.1694 7.65181 18.1198C7.62318 18.0951 7.59721 18.0682 7.57058 18.0412C7.51265 17.9813 7.45605 17.923 7.37882 17.9017C7.29093 17.8774 7.20237 17.8611 7.11448 17.8488C7.04324 17.8388 6.97266 17.8311 6.90274 17.8238L6.77357 17.8092L6.68968 17.7982C6.70099 17.8375 6.71032 17.8777 6.71897 17.9187L6.74161 18.0349C6.7516 18.0882 6.76159 18.1418 6.77357 18.1944C6.79221 18.2782 6.81618 18.3598 6.85081 18.4351C6.88077 18.4963 6.91606 18.5559 6.95335 18.6148L7.00462 18.6914L7.06055 18.7733C7.18173 18.9478 7.30291 19.1219 7.34553 19.3176C7.37549 19.4521 7.40412 19.5713 7.44673 19.6635C7.46404 19.7021 7.48469 19.7358 7.50866 19.7641C7.54195 19.8044 7.58256 19.8333 7.63317 19.849C7.71373 19.8739 7.82027 19.8653 7.96542 19.813C8.06197 19.7681 8.10192 19.6169 8.19314 19.5277C8.26904 19.4558 8.32431 19.3839 8.36159 19.3123C8.38024 19.2767 8.39422 19.2411 8.40421 19.2054L8.41619 19.1548L8.42085 19.1229C8.44149 18.9391 8.36026 18.756 8.22243 18.5755ZM33.226 51.193C33.0063 51.2029 32.7792 51.2133 32.5462 51.2093C32.656 52.0895 32.7659 52.9694 32.9077 53.8347C32.9277 53.9768 33.0708 54.1103 33.2546 54.2002C33.5456 54.3427 33.9384 54.3763 34.1082 54.1636C34.6655 53.4911 35.1263 53.575 35.6303 54.1399C35.8214 54.3504 35.9286 54.4119 36.0405 54.3024C36.0591 54.2841 36.0778 54.2608 36.0971 54.2325C36.1257 54.1916 36.1557 54.1399 36.1883 54.0774C36.2296 54.0011 36.2749 53.9285 36.3221 53.8583C36.3947 53.7508 36.4726 53.6482 36.5505 53.546C36.8468 53.1568 37.1391 52.7727 37.1211 52.1205C37.1185 52.0133 37.1231 51.9057 37.1331 51.7975C37.1538 51.5678 37.1977 51.3361 37.2423 51.1004C37.2856 50.872 37.3295 50.64 37.3535 50.4033C37.3795 50.1526 37.3828 49.8962 37.3402 49.6336C37.2077 48.756 37.4281 48.5053 38.301 48.4304C39.3544 48.3575 40.2719 48.1757 40.7966 47.1117C40.8245 47.0541 40.8565 46.9988 40.8918 46.9456C40.9164 46.9076 40.9424 46.8707 40.9697 46.834C41.0003 46.7934 41.0323 46.7535 41.0649 46.7142C41.1202 46.6473 41.1788 46.582 41.2374 46.5168C41.3459 46.3946 41.4544 46.2731 41.5456 46.1432C41.6009 46.064 41.6495 45.9814 41.6881 45.8935C41.7773 45.6805 41.5017 45.2367 41.2833 45.0013C41.24 44.9517 41.1661 44.9287 41.0789 44.9178C41.0056 44.9088 40.9231 44.9084 40.8398 44.9081L40.7413 44.9071C40.6907 44.9058 40.6408 44.9034 40.5942 44.8978L40.5948 44.9707C40.5955 45.0736 40.5961 45.1791 40.6241 45.2673C40.7733 45.7927 40.6274 46.5094 40.176 46.5148C39.6786 46.5221 39.2778 46.7525 38.879 46.9812C38.7917 47.0315 38.7045 47.0817 38.6159 47.1293C38.4948 47.1946 38.3722 47.2555 38.2451 47.3058C38.0993 47.3634 37.9474 47.4073 37.787 47.4276C37.6738 47.4416 37.5559 47.4443 37.4321 47.432C37.2523 47.419 37.0679 47.4183 36.8828 47.428C36.8288 47.4306 36.7749 47.4343 36.721 47.439L36.659 47.4446L36.5432 47.4573C36.2063 47.4972 35.8727 47.5691 35.5604 47.664C35.3101 47.7482 34.9811 48.4404 35.0557 48.5C35.924 49.3965 35.7389 50.5694 35.916 51.6454C35.9339 51.7612 35.9473 51.8778 35.9593 51.9933L35.9772 52.1717C35.9846 52.2503 35.9919 52.3279 36.0005 52.4041C36.0631 52.9618 35.8574 53.2447 35.5305 53.0443L35.4379 52.989C35.3094 52.9125 35.1742 52.8319 35.0764 52.736C35.0231 52.6844 34.9811 52.6285 34.9572 52.5662C34.8979 52.4158 34.8899 52.236 34.8826 52.0575C34.8779 51.9394 34.8733 51.8218 34.8533 51.7136C34.8147 51.5036 34.7195 51.3291 34.4604 51.2549C34.0796 51.1543 33.6674 51.173 33.226 51.193ZM30.9422 58.1776C31.4875 57.4954 31.9949 56.7833 32.6048 56.1731C32.7259 56.0466 33.2666 56.2343 33.5323 56.3855C33.6461 56.4471 33.6901 56.6368 33.7327 56.8196L33.7367 56.8346L33.7387 56.8446C33.7527 56.9038 33.766 56.9611 33.7826 57.0124L33.7134 57.032L33.6262 57.052L33.5682 57.0646L33.497 57.0816L33.453 57.0946L33.1334 57.2005C32.9876 57.2497 32.8638 57.2937 32.7599 57.336C32.5954 57.4029 32.4816 57.4655 32.4123 57.5367C32.3804 57.5693 32.3584 57.604 32.3444 57.6416C32.2732 57.837 32.4343 58.118 32.7479 58.6647C32.8398 58.8235 32.9184 58.9766 32.939 59.1251C32.9623 59.2939 32.911 59.457 32.7186 59.6168L32.3484 59.5629C32.1333 59.5316 31.9209 59.4996 31.7072 59.459C31.4862 59.4044 31.2757 59.3378 31.0527 59.2609C31.2531 59.0242 31.321 58.8025 31.2558 58.5957C31.2112 58.4532 31.1033 58.3181 30.9328 58.1899L30.9422 58.1776ZM20.591 48.752C20.8887 48.5829 21.171 48.3821 21.4879 48.1884L21.4979 48.176C21.6291 47.8338 21.7503 47.5039 21.8495 47.1766C21.8621 47.161 21.8062 47.0987 21.7496 47.0594C21.7163 47.0365 21.683 47.0215 21.663 47.0278C21.1204 47.1224 20.3773 48.0529 20.4053 48.6032C20.3999 48.6604 20.5711 48.7766 20.591 48.752ZM24.905 46.084L24.9403 46.0064L24.9749 45.9342L24.9623 45.9245C24.9536 45.8499 24.9623 45.7431 24.9503 45.6658C24.9443 45.6275 24.933 45.5962 24.9123 45.5799C24.8917 45.5633 24.8617 45.5526 24.8284 45.5476C24.8145 45.5453 24.7991 45.5443 24.7832 45.5443C24.7073 45.544 24.6214 45.5673 24.5654 45.6072C24.377 45.7414 24.144 45.8806 24.0527 46.0713C23.9509 46.2747 23.9908 46.5301 23.9715 46.7581C24.0348 46.7378 24.1027 46.7209 24.1706 46.7039C24.3364 46.6626 24.5055 46.6203 24.6234 46.5271C24.7505 46.4266 24.8291 46.2518 24.905 46.084ZM41.3019 50.0148C41.6222 49.8433 41.8126 49.7318 42.0157 49.6299C42.033 49.6219 42.079 49.6482 42.1216 49.6865C42.1595 49.7208 42.1955 49.7644 42.2048 49.8007C42.324 50.2618 41.8186 50.8943 41.4171 50.7362C41.2979 50.6816 41.3372 50.2255 41.3019 50.0148ZM3.36315 22.4967L2.98429 22.5393C2.96764 22.6178 2.95099 22.7007 2.93568 22.7853L2.90439 22.9757L2.88774 23.0923C3.00959 23.0673 3.19269 23.0919 3.23264 23.0423C3.27792 22.9365 3.29989 22.8196 3.32187 22.7004L3.33718 22.6172C3.34517 22.5769 3.35316 22.5366 3.36315 22.4967ZM8.93089 17.5362L9.30975 17.4936L9.28911 17.5858L9.28511 17.6078L9.26913 17.6926L9.26713 17.7036C9.24516 17.8208 9.22386 17.9353 9.17858 18.0392C9.13929 18.0888 8.95552 18.0642 8.83434 18.0892L8.86364 17.8954C8.87296 17.8348 8.88361 17.7742 8.89493 17.715L8.91024 17.636L8.93089 17.5362ZM9.94429 23.0889L9.9403 23.067L9.9383 23.053C9.93097 23.014 9.92299 22.9737 9.91899 22.9378C9.73788 22.9355 9.53214 22.9131 9.35636 22.9554C9.31175 22.9604 9.25981 23 9.22053 23.0496L9.20388 23.072C9.19056 23.0916 9.17858 23.1119 9.17059 23.1319C9.1606 23.1575 9.15527 23.1825 9.15794 23.2038C9.16593 23.2707 9.31707 23.4119 9.40629 23.4019C9.5874 23.4042 9.78316 23.337 9.95694 23.2724C9.97758 23.263 9.96227 23.1815 9.94429 23.0889ZM16.0087 23.2504C16.056 23.2451 16.11 23.2347 16.1606 23.2251C16.2018 23.2171 16.2405 23.2098 16.2718 23.2058C16.311 23.2008 16.3383 23.2011 16.3437 23.2128C16.3723 23.289 16.4009 23.3699 16.4242 23.4518C16.4535 23.5557 16.4742 23.6616 16.4728 23.7631C16.4828 23.8523 16.3417 24.0038 16.2744 24.0111C16.2425 24.0148 16.2025 24.0015 16.1646 23.9792C16.1506 23.9708 16.1366 23.9615 16.1233 23.9512C16.1053 23.9369 16.0886 23.9212 16.0747 23.9046C16.0487 23.8746 16.0301 23.8423 16.0267 23.813C16.0014 23.7088 15.9988 23.594 16.0014 23.4798C16.0034 23.4015 16.0074 23.324 16.0087 23.2504ZM42.1196 42.0077C42.069 42.0174 42.015 42.0277 41.9678 42.033L41.9644 42.1582L41.9598 42.2914C41.9591 42.3213 41.9591 42.3513 41.9604 42.3813C41.9624 42.4552 41.9691 42.5277 41.9858 42.596C41.9957 42.6852 42.1442 42.8041 42.2334 42.7941C42.3007 42.7864 42.4418 42.6353 42.4319 42.546C42.4339 42.3649 42.3673 42.1692 42.3027 41.9957C42.2927 41.9748 42.2115 41.9904 42.1196 42.0077ZM42.5171 43.2362C42.5264 43.399 42.5364 43.5694 42.4925 43.5897C42.3926 43.628 42.314 43.643 42.2521 43.6404C42.1922 43.638 42.1482 43.619 42.1156 43.5881C42.0131 43.4902 42.027 43.2738 42.0404 43.0867C42.0417 43.0764 42.0443 43.0654 42.0483 43.0541L42.0583 43.0284L42.0696 43.0058L42.091 42.9712L42.1116 42.9409L42.1402 42.9059L42.1675 42.879C42.1928 42.8563 42.2181 42.841 42.2388 42.8387C42.2734 42.8347 42.3054 42.8533 42.3373 42.882C42.3586 42.9016 42.3806 42.9259 42.4032 42.9509C42.4332 42.9842 42.4645 43.0191 42.4991 43.0468L42.5091 43.0344C42.5084 43.0907 42.5124 43.1626 42.5171 43.2362ZM44.1983 42.2917L44.3382 42.2318C44.4247 42.1935 44.5113 42.1555 44.5985 42.1229L44.5559 41.7434C44.5119 41.7637 44.466 41.7833 44.4187 41.8033L44.4067 41.8083L44.3968 41.8133C44.3428 41.8359 44.2889 41.8589 44.2363 41.8845C44.171 41.9162 44.1084 41.9511 44.0525 41.9917C44.0379 42.0027 44.0325 42.0257 44.0325 42.0557C44.0325 42.0989 44.0452 42.1565 44.0572 42.2128V42.2178L44.0592 42.2228C44.0678 42.2647 44.0765 42.3057 44.0805 42.339L44.1544 42.31L44.1983 42.2917ZM36.2109 54.5834C36.2103 54.6393 36.2143 54.7109 36.2183 54.7838C36.2249 54.8887 36.2316 54.9966 36.2236 55.0661C36.2189 55.1047 36.2096 55.1314 36.1936 55.1387C35.9905 55.2166 35.8747 55.1986 35.8094 55.1291C35.7861 55.1041 35.7695 55.0728 35.7582 55.0368C35.7449 54.9969 35.7375 54.9509 35.7342 54.9023C35.7289 54.8171 35.7355 54.7232 35.7422 54.6357C35.7542 54.5441 35.8807 54.4622 35.9499 54.3753L36.2109 54.5834ZM46.5547 42.5937L46.4782 42.608L46.4162 42.6186L46.3716 42.6246L46.3683 42.7538C46.3656 42.818 46.363 42.8833 46.3636 42.9479C46.3643 42.9842 46.3656 43.0201 46.3683 43.0554C46.3723 43.1007 46.379 43.145 46.3896 43.1876C46.3943 43.2295 46.4296 43.2781 46.4748 43.3168C46.5261 43.36 46.59 43.391 46.6373 43.3857C46.7045 43.378 46.8457 43.2269 46.8357 43.1376C46.8377 42.9565 46.7711 42.7608 46.7065 42.5873C46.6979 42.5687 46.6333 42.5787 46.5547 42.5937ZM46.913 43.626L46.915 43.7139L46.9203 43.8265C46.9303 43.9899 46.9403 44.1607 46.8956 44.1813C46.3976 44.3724 46.4222 43.9859 46.4442 43.6783C46.4569 43.5868 46.5754 43.4376 46.6426 43.4303C46.6673 43.4276 46.6906 43.4363 46.7139 43.4523C46.7445 43.4729 46.7738 43.5052 46.8051 43.5398L46.8091 43.5438C46.8384 43.5768 46.869 43.6111 46.903 43.6384L46.913 43.626Z" fill="white"/>
<path d="M45.1631 55.8914C45.1132 55.9008 45.0593 55.9087 45.0013 55.9151C44.8302 55.9344 44.6611 55.957 44.4926 55.9797C44.3002 56.0056 44.1084 56.0313 43.9167 56.0516C43.7729 56.0666 43.629 56.0785 43.4839 56.0849L43.4499 56.0865C41.8626 56.1578 41.7907 56.1608 42.0071 57.5004C43.0944 57.025 44.1477 56.4874 45.1631 55.8914Z" fill="white"/>
<path d="M4.41184 31.9249C4.39719 31.8986 4.39187 31.852 4.3892 31.8001C4.39054 31.834 4.3932 31.8657 4.39919 31.891C4.40252 31.9043 4.40652 31.9156 4.41184 31.9249Z" fill="white"/>
<path d="M24.5295 30.7629H27.0658V41.3121C27.0658 41.5204 27.2329 41.6891 27.439 41.6891H31.7395C31.9456 41.6891 32.1127 41.5204 32.1127 41.3121V30.8126H35.0284C35.218 30.8126 35.3775 30.6689 35.3992 30.4786L35.842 26.5949C35.8542 26.4881 35.8207 26.3811 35.7499 26.3009C35.6791 26.2207 35.5777 26.1748 35.4714 26.1748H32.1129V23.7403C32.1129 23.0064 32.5039 22.6343 33.2755 22.6343C33.3854 22.6343 35.4714 22.6343 35.4714 22.6343C35.6775 22.6343 35.8446 22.4654 35.8446 22.2572V18.6923C35.8446 18.484 35.6775 18.3153 35.4714 18.3153H32.4451C32.4237 18.3142 32.3763 18.3125 32.3065 18.3125C31.7814 18.3125 29.9562 18.4166 28.5144 19.7566C26.917 21.2416 27.139 23.0196 27.1921 23.3278V26.1747H24.5294C24.3233 26.1747 24.1562 26.3434 24.1562 26.5517V30.3858C24.1563 30.594 24.3233 30.7629 24.5295 30.7629Z" fill="#00172D"/>
</svg>
