<svg width="60" height="60" viewBox="0 0 60 60" fill="none" xmlns="http://www.w3.org/2000/svg">
<path fill-rule="evenodd" clip-rule="evenodd" d="M39.0177 58.6246C51.18 54.7956 60 43.4289 60 30.0021C60 13.4324 46.5676 0 29.9979 0C13.4282 0 -0.00415039 13.4324 -0.00415039 30.0021C-0.00415039 30.4131 0.00411547 30.8222 0.02049 31.2292C0.123157 31.2231 0.225219 31.2062 0.326387 31.1736C0.356067 31.167 0.535584 31.4462 0.501047 31.5007C0.434748 31.5958 0.378424 31.7015 0.321957 31.8074C0.24769 31.9468 0.173167 32.0867 0.0753738 32.2033C0.120615 32.8272 0.184932 33.4458 0.267746 34.0585C0.408712 34.1252 0.543803 34.2201 0.671475 34.346C1.1111 34.7773 1.61323 34.6881 2.08631 34.5041C2.56917 34.308 2.89149 34.5214 3.22274 34.7408C3.30308 34.794 3.38395 34.8475 3.46777 34.8957C3.5794 34.9611 3.58534 35.0932 3.59129 35.2253C3.59969 35.4118 3.6081 35.5985 3.91368 35.5984C3.99049 35.5985 4.06801 35.5772 4.14529 35.556C4.31118 35.5104 4.47601 35.4651 4.6305 35.6325C4.55563 35.71 4.50206 35.8159 4.44832 35.9221C4.31594 36.1839 4.1825 36.4477 3.72697 36.2949L3.71993 36.2924C3.50079 36.2171 3.19293 36.1113 3.03561 36.2005C2.63759 36.4219 2.23111 36.356 1.82579 36.2903C1.49025 36.2359 1.15549 36.1816 0.826973 36.2905C0.781491 36.3062 0.726805 36.3208 0.665343 36.3344C0.755762 36.7552 0.855007 37.1728 0.962876 37.5869C1.24773 37.9179 1.62933 37.9346 2.01651 37.9515C2.3756 37.9671 2.73949 37.983 3.03542 38.2501C3.17602 38.3759 3.41603 38.3783 3.66494 38.3808C3.84751 38.3826 4.03487 38.3845 4.19132 38.4351C4.50988 38.5351 4.82782 38.7366 5.05428 38.982C5.34276 39.2929 5.69631 39.27 6.04511 39.2475C6.35486 39.2275 6.66086 39.2077 6.91422 39.4221C7.41485 39.1765 7.75244 39.4231 8.09084 39.6704C8.22699 39.7698 8.36328 39.8694 8.51037 39.937C8.80426 40.0655 8.84861 40.3123 8.89327 40.5608C8.90769 40.641 8.92214 40.7214 8.94504 40.7981C9.02553 41.0528 8.96222 41.1527 8.68206 41.2935C8.36057 41.4572 8.06502 41.3792 7.76865 41.3009C7.51049 41.2327 7.25171 41.1644 6.97465 41.2555C6.30533 41.468 5.79519 42.1123 6.03065 42.7453C6.14327 43.0604 6.29187 43.3618 6.44171 43.6658C6.54232 43.8699 6.64349 44.0751 6.73469 44.2863C6.77091 44.3731 6.7555 44.4795 6.74061 44.5823C6.73472 44.623 6.72891 44.6631 6.72641 44.7012C6.68175 44.694 6.63691 44.6886 6.59246 44.6833C6.47609 44.6693 6.36217 44.6557 6.26188 44.6105C6.10835 44.5514 5.95969 44.4445 5.82586 44.3342C5.57637 44.1252 5.33317 44.1875 5.18018 44.4089C5.15456 44.4465 5.12684 44.4858 5.09828 44.5263C4.92428 44.7731 4.71921 45.0639 4.76781 45.2807C4.83256 45.5694 5.00415 45.501 5.19044 45.4266C5.3201 45.3749 5.45688 45.3204 5.56971 45.3814C6.1537 45.7022 6.68986 45.4983 7.22073 45.2964C7.37661 45.2371 7.53209 45.178 7.68813 45.1324C7.7067 45.1282 7.69136 45.0273 7.67316 44.9074C7.6477 44.7398 7.61664 44.5353 7.66466 44.5064C7.84496 44.4138 8.01541 44.4836 8.19575 44.5574C8.39289 44.6381 8.60185 44.7236 8.84844 44.6072C9.10847 44.4917 9.11763 44.6648 9.12708 44.8435C9.1318 44.9327 9.13659 45.0233 9.17266 45.08C9.24139 45.191 9.32843 45.2885 9.41606 45.3866C9.59319 45.5849 9.7727 45.786 9.80808 46.1065C9.86339 46.5617 9.8258 46.7416 9.40399 46.5634C9.05376 46.4155 8.77282 46.4787 8.45882 46.5493L8.42824 46.5562C8.29468 46.5861 8.15293 46.6491 8.05085 46.7499C7.96937 46.8383 8.35223 47.7812 8.51817 47.8608C8.65686 47.9233 8.92668 47.9797 8.96697 47.9161C9.32232 47.4156 9.68244 47.2491 10.1914 47.7116C10.3773 47.8804 10.6159 48.0061 10.8454 48.1261C11.1022 48.2633 11.3191 48.2225 11.4769 47.9533C11.5383 47.8564 11.5977 47.7582 11.6571 47.66C11.7758 47.4637 11.8946 47.2674 12.0295 47.0813C12.1101 46.9541 12.2821 46.783 12.4017 46.7952C12.9553 46.8659 13.5031 46.9456 14.0379 47.1063C14.3532 47.1914 14.6241 47.4268 14.6604 47.8317C14.6951 48.2127 14.972 48.3479 15.2489 48.4831C15.355 48.5349 15.4611 48.5867 15.5536 48.6523L15.6039 48.6887C15.8638 48.8757 16.099 49.045 16.1439 49.4084C16.159 49.5452 16.2822 49.7124 16.4037 49.8021C16.7258 50.0572 16.8887 50.2622 16.3339 50.3945C16.206 50.4261 16.0758 50.4525 15.9458 50.4789C15.738 50.5211 15.5305 50.5632 15.3338 50.6265C15.014 50.7294 14.9276 51.2475 15.1895 51.4771C15.3188 51.5845 15.4538 51.6828 15.5889 51.7811C15.7239 51.8794 15.8589 51.9777 15.9882 52.0851C16.0427 52.1197 16.0703 52.2771 16.0415 52.3226C16.0069 52.3771 15.8791 52.3979 15.804 52.3758C15.7354 52.3556 15.6671 52.3223 15.5982 52.2887C15.5165 52.2488 15.4339 52.2085 15.3492 52.1894C15.0373 52.1191 14.6354 52.4119 14.6417 52.6832C14.6491 53.0041 14.8105 52.9683 14.9827 52.93C15.0393 52.9174 15.0971 52.9046 15.151 52.9041C15.6719 52.9096 15.6884 52.9382 15.9058 53.317L15.9189 53.3398C15.9458 53.3872 15.9497 53.4619 15.9537 53.5377C15.9631 53.7161 15.9728 53.9007 16.2834 53.749C16.4515 53.6645 16.6142 53.3475 16.5949 53.157C16.5896 53.1095 16.5826 53.0626 16.5757 53.0171C16.5331 52.7341 16.4982 52.5024 16.9557 52.5072C17.2213 52.51 17.2879 52.4249 17.1514 52.1984C17.0078 51.9405 17.0868 51.7012 17.1682 51.4548C17.2421 51.2311 17.3179 51.0015 17.2311 50.7466C17.1249 50.4119 17.5095 50.5283 17.7117 50.631C17.7931 50.6779 17.8714 50.7297 17.9498 50.7814C18.0868 50.8719 18.2239 50.9625 18.3773 51.0273C18.4557 51.0642 18.7086 50.9062 18.7135 50.8584C18.6699 50.5252 18.5992 50.1748 18.4963 49.855C18.3701 49.4313 18.672 49.4571 18.871 49.545C18.9236 49.5656 18.9757 49.5898 19.0271 49.6137C19.2845 49.7331 19.5238 49.8442 19.7162 49.4567C19.7598 49.3668 19.8295 49.2802 19.8997 49.1932C20.0955 48.9502 20.294 48.7038 19.9327 48.3717C19.2345 47.7256 19.3273 47.0969 19.8266 46.3693L19.8909 46.2771C20.3684 45.5913 20.3741 45.5832 21.1927 46.1019C21.3045 46.1728 21.4354 46.2364 21.5662 46.3C21.8606 46.4432 22.155 46.5863 22.2325 46.8117C22.3242 47.0728 22.4728 47.2836 22.6186 47.4904C22.7471 47.6728 22.8735 47.8521 22.9566 48.0599C23.2384 48.7605 23.6771 49.153 24.4809 48.9494C24.5551 48.9328 24.6772 48.921 24.7168 48.9589C24.7405 48.9854 24.7649 49.0122 24.7896 49.0392C24.9277 49.1905 25.073 49.3497 25.1328 49.528C25.1709 49.6285 25.0122 49.859 24.8828 49.9425C24.7568 50.0409 24.5663 50.0603 24.3965 50.0672C24.1581 50.0817 24.0915 50.1667 24.228 50.3933C24.2743 50.4608 24.3264 50.5193 24.3933 50.5744C24.5819 50.7373 24.8102 50.8606 25.039 50.9842C25.5489 51.2596 26.0613 51.5364 26.1418 52.2553C26.3067 52.4164 26.5149 52.5356 26.7228 52.6545C27.1691 52.91 27.6139 53.1646 27.6253 53.8319C27.6224 53.8609 27.673 53.8865 27.7282 53.9143C27.7642 53.9325 27.8021 53.9517 27.8285 53.9734C27.956 54.09 28.1255 54.1703 28.2942 54.2501C28.6052 54.3974 28.9136 54.5435 28.9512 54.914C28.9771 55.1719 29.1361 55.3201 29.2887 55.4623C29.4337 55.5974 29.573 55.7271 29.5866 55.9405C29.6013 56.2599 29.8109 56.4174 30.0276 56.5804C30.0778 56.6181 30.1284 56.6561 30.177 56.6965C30.6999 57.117 30.7053 57.3496 30.2288 57.9006C30.0807 58.0741 29.8359 58.1991 29.6133 58.249C29.3668 58.2965 29.2417 58.4337 29.4416 58.5603C29.6926 58.7251 29.813 58.9895 29.9339 59.2551C30.0657 59.5447 30.1981 59.8357 30.5013 60C30.7894 59.9953 31.0766 59.9865 31.3628 59.9736C31.6656 59.5532 32.0412 59.5079 32.307 59.905C32.3095 59.9087 32.312 59.9123 32.3144 59.916C34.227 59.77 36.0895 59.4446 37.885 58.9567C37.7422 58.5334 37.6323 58.0998 37.5229 57.6681L37.5225 57.6667C37.4883 57.5318 37.4541 57.3966 37.419 57.2624C37.8593 57.2104 38.2361 57.1182 37.957 56.5339C38.165 56.2373 38.3876 56.3512 38.6134 56.4667C38.8169 56.5709 39.0231 56.6764 39.2238 56.4836C39.3786 56.3398 39.5851 56.4962 39.4766 56.7075C39.3541 56.9638 39.343 57.2537 39.3319 57.5431C39.317 57.9317 39.3022 58.3196 39.0177 58.6246ZM2.90746 28.7479C2.88568 28.7715 2.85872 28.8019 2.82773 28.8368C2.74282 28.9324 2.6276 29.0622 2.50579 29.1809C2.45309 29.2238 2.34012 29.2414 2.27411 29.225C2.02246 29.1801 2.02885 29.0696 2.18849 28.8779C2.29917 28.7458 2.38853 28.5967 2.47781 28.4476C2.55714 28.3152 2.6364 28.1829 2.73047 28.0628C2.78397 27.9945 2.91789 27.9936 3.03648 27.9927C3.06555 27.9925 3.09382 27.9923 3.11963 27.9911C3.11963 27.9911 3.18592 28.1477 3.16955 28.2137C3.13775 28.2999 3.09421 28.3831 3.03828 28.49C3.00043 28.5623 2.95687 28.6456 2.90746 28.7479ZM3.4149 29.2731L5.33159 30.4877L5.28554 30.5603C5.52473 30.6953 5.76234 30.8305 5.9996 30.9656L6.00145 30.9667C6.48915 31.2443 6.97559 31.5213 7.47114 31.7925C7.52564 31.8271 7.64104 31.7856 7.70858 31.7393C7.77613 31.693 7.86004 31.5806 7.84097 31.5303C7.80246 31.4436 7.75559 31.3601 7.70858 31.2763C7.64031 31.1546 7.57171 31.0324 7.52799 30.8992C7.47662 30.7298 7.35648 30.6133 7.23453 30.495C7.07274 30.3381 6.90774 30.1781 6.8959 29.8875C6.8833 29.6133 6.7062 29.6865 6.53441 29.7575C6.45979 29.7884 6.38618 29.8188 6.32748 29.8202C6.22001 29.8195 6.1008 29.8542 5.98256 29.8887C5.65432 29.9844 5.33349 30.078 5.29157 29.4056C5.28887 29.2893 5.06663 29.0976 4.95034 29.1003L4.90936 29.1015C4.44353 29.1154 3.98646 29.129 3.54459 28.9479C3.49342 28.9282 3.3756 28.9936 3.36166 29.0357C3.35437 29.1075 3.3604 29.2386 3.4149 29.2731ZM36.1197 53.7274C36.084 53.6974 36.0433 53.6685 36.0025 53.6395C35.9009 53.5674 35.798 53.4943 35.7661 53.4014L35.7568 53.3739L35.7482 53.3495C35.6842 53.1681 35.5712 52.8481 36.0566 53.0635C36.1294 53.1001 36.2553 53.0185 36.3722 52.9427C36.4102 52.9182 36.448 52.8937 36.4818 52.8747C36.5517 52.8345 36.6258 52.7754 36.6984 52.7175C36.834 52.6093 36.9646 52.5052 37.0528 52.5362C37.2933 52.6095 37.5071 52.7735 37.7215 52.9379C37.7829 52.985 37.8444 53.0322 37.9066 53.0773C37.9611 53.1118 37.9862 53.2932 37.9599 53.3147C37.8519 53.398 37.7178 53.4415 37.5822 53.4854C37.3424 53.5631 37.0981 53.6422 36.987 53.9459C36.971 53.9874 36.6979 53.9329 36.4738 53.8881C36.4214 53.8777 36.3718 53.8678 36.3287 53.8598C36.2747 53.8511 36.2281 53.813 36.1815 53.775C36.1582 53.756 36.1349 53.737 36.1106 53.7216L36.1197 53.7274ZM28.8332 50.2682C28.5659 49.7676 28.2976 49.2652 27.7134 49.0117L27.7043 49.0059C27.6594 48.9774 27.6158 48.945 27.5724 48.9126C27.4754 48.8403 27.3794 48.7688 27.2716 48.7445C27.1641 48.7114 27.0261 48.777 26.9061 48.8341L26.8743 48.8491C26.8537 48.8616 26.873 49.052 26.9275 49.0866C27.0135 49.1504 27.104 49.2103 27.1944 49.27C27.5959 49.5354 27.9944 49.7988 27.9693 50.396L29.0593 51.0867C29.0749 51.0622 29.0975 51.0333 29.1198 51.0049C29.1635 50.9493 29.206 50.8953 29.1917 50.8778C29.057 50.6872 28.9452 50.4779 28.8332 50.2682ZM13.2608 42.2852C13.2231 42.3131 13.1837 42.3499 13.1438 42.387C13.0563 42.4685 12.9669 42.5517 12.8909 42.5474C12.773 42.5324 12.6569 42.4949 12.5405 42.4572C12.2847 42.3746 12.0273 42.2915 11.7459 42.4456L11.3728 41.4071C11.397 41.4017 11.4242 41.3914 11.4521 41.3809C11.5096 41.3593 11.5696 41.3367 11.6102 41.3539C11.7247 41.4067 11.8346 41.47 11.9437 41.5328C12.1161 41.632 12.2865 41.7302 12.4705 41.7844C12.6516 41.8388 12.8519 41.8353 13.0504 41.8318C13.145 41.8301 13.2393 41.8284 13.3308 41.8331C13.3162 41.9063 13.3038 41.981 13.2914 42.0556C13.2789 42.1305 13.2664 42.206 13.2517 42.2794L13.2608 42.2852ZM2.91419 33.4463C2.97824 33.3968 3.03988 33.3493 3.09111 33.3202C3.13135 33.2218 3.17539 33.1319 3.21713 33.0468C3.29546 32.8869 3.36569 32.7437 3.38746 32.5913C3.40293 32.4866 3.25246 32.3021 3.13437 32.2273C3.01628 32.1524 2.81491 32.0885 2.69376 32.139C2.34183 32.2725 2.21465 33.4778 2.55228 33.6281C2.63397 33.6626 2.77943 33.5503 2.91419 33.4463ZM14.2518 46.3786C14.1902 46.399 14.1315 46.4184 14.0902 46.401C13.7195 46.2425 13.3522 46.0989 12.9476 46.2753C12.9476 46.2753 12.8201 46.0545 12.7935 45.9358C12.7846 45.8959 12.8266 45.8481 12.8674 45.8018C12.8873 45.7791 12.9069 45.7568 12.9202 45.736C13.0807 45.4565 13.3444 45.4312 13.6092 45.4058C13.7512 45.3922 13.8936 45.3785 14.0205 45.3256C14.0262 45.3165 14.1685 45.534 14.2042 45.6584C14.2399 45.7964 14.268 45.9389 14.2957 46.0792C14.3138 46.1711 14.3318 46.2621 14.3515 46.3502L14.3367 46.3535C14.3087 46.3597 14.2799 46.3693 14.2518 46.3786ZM0.647555 33.0577C0.933381 33.2897 1.22712 33.3485 1.44495 32.9646C1.45288 32.9155 1.46027 32.8672 1.46755 32.8197C1.4842 32.7108 1.50032 32.6055 1.52077 32.5034C1.48257 32.5009 1.44484 32.4976 1.40738 32.4944C1.31299 32.4863 1.22036 32.4784 1.12648 32.4827C1.01179 32.4917 0.89755 32.5205 0.782238 32.5495C0.735929 32.5612 0.689277 32.5729 0.64252 32.5834C0.590639 32.5951 0.540383 32.6139 0.492585 32.6319C0.472086 32.6396 0.451858 32.6472 0.43233 32.6539C0.454326 32.6964 0.472782 32.7444 0.491397 32.7929C0.530933 32.8958 0.57118 33.0006 0.647555 33.0577ZM13.4702 37.5546C13.4466 37.5328 13.4163 37.5058 13.3814 37.4748C13.2857 37.3899 13.156 37.2747 13.0373 37.1529C12.9943 37.1002 12.9767 36.9872 12.9931 36.9212C13.038 36.6696 13.1485 36.676 13.3402 36.8356C13.4723 36.9463 13.6215 37.0356 13.7705 37.1249C13.9029 37.2042 14.0352 37.2835 14.1553 37.3776C14.2236 37.4311 14.2246 37.565 14.2254 37.6836C14.2256 37.7127 14.2258 37.7409 14.227 37.7667C14.227 37.7667 14.0704 37.833 14.0044 37.8167C13.9183 37.7848 13.835 37.7413 13.7282 37.6854C13.6558 37.6475 13.5726 37.604 13.4702 37.5546ZM11.9628 34.6896C11.6807 35.1348 11.7304 35.2171 12.3208 35.5913L12.3266 35.5822C12.3515 35.598 12.377 35.6201 12.4016 35.6416C12.4489 35.6827 12.4934 35.7214 12.5264 35.7088C12.5767 35.6898 12.6606 35.5774 12.6473 35.5181C12.5923 35.2032 12.5224 34.8917 12.4526 34.5802C12.4483 34.5266 12.345 34.4481 12.3393 34.4572C12.307 34.4739 12.2722 34.4898 12.237 34.5059C12.1279 34.5557 12.015 34.6073 11.9628 34.6896ZM12.7198 35.8303C12.6551 35.7962 12.59 35.7619 12.5298 35.7237C12.5294 35.7828 12.5228 35.8467 12.5161 35.911C12.5 36.0672 12.4836 36.226 12.5557 36.3257C12.6377 36.4488 12.7856 36.5268 12.9354 36.6057C13.0001 36.6398 13.0653 36.6741 13.1255 36.7123C13.1259 36.6531 13.1325 36.5892 13.1391 36.5249C13.1553 36.3687 13.1717 36.21 13.0996 36.1102C13.0176 35.9871 12.8697 35.9092 12.7198 35.8303ZM42.2225 56.3723C42.1692 56.3979 42.1142 56.4312 42.0589 56.4646C41.9246 56.5459 41.7881 56.6285 41.6671 56.606C41.5207 56.5844 41.3871 56.4839 41.2517 56.3821C41.1933 56.3382 41.1345 56.2939 41.0742 56.2557L41.3505 55.8197L42.2225 56.3723ZM40.1272 56.2031C40.3479 56.4576 40.6023 56.6187 40.9442 56.4408L40.9385 56.4498C40.9945 56.4217 41.0594 56.2591 41.0594 56.2591C41.0131 56.2269 40.968 56.1941 40.9232 56.1615C40.7711 56.0509 40.6229 55.9432 40.4507 55.8734C40.3817 55.8397 40.2646 55.8944 40.1588 55.9438C40.1305 55.957 40.1029 55.9698 40.0773 55.9805C40.0625 55.9839 40.0842 56.1504 40.1272 56.2031ZM29.743 51.8764C29.5767 52.0384 29.1879 51.8684 28.9859 51.524C28.9487 51.4622 28.9345 51.3641 28.9509 51.2981C29.0048 51.0522 29.1178 51.0347 29.2831 51.2158C29.3687 51.3145 29.4653 51.4029 29.5629 51.4923C29.633 51.5565 29.7038 51.6213 29.7715 51.6908C29.7945 51.7054 29.7835 51.7494 29.7719 51.7957C29.7652 51.8225 29.7584 51.8501 29.7578 51.8731L29.743 51.8764ZM34.5471 49.5542C34.5554 49.6029 34.5635 49.6505 34.5671 49.688L34.5729 49.6789C34.5982 49.695 34.6218 49.7161 34.6444 49.7363C34.6866 49.7741 34.725 49.8085 34.7636 49.7998C34.8082 49.7898 34.8772 49.6808 34.8788 49.6181C34.8709 49.4095 34.8589 49.1472 34.5375 49.3128C34.509 49.33 34.5285 49.4447 34.5471 49.5542ZM1.45432 30.5388C1.4479 30.585 1.44455 30.6315 1.44124 30.6775C1.43532 30.7598 1.42951 30.8407 1.40638 30.9159C1.39244 30.9379 1.34098 30.9454 1.2848 30.9537C1.2482 30.959 1.20956 30.9647 1.17802 30.9749C1.18444 30.9287 1.18778 30.8822 1.19109 30.8362C1.19701 30.7539 1.20283 30.673 1.22596 30.5978C1.2399 30.5758 1.29137 30.5683 1.34757 30.56C1.38417 30.5547 1.42278 30.549 1.45432 30.5388ZM13.964 39.4525C14.007 39.528 14.048 39.6001 14.0863 39.6764L14.3386 39.6198C14.322 39.5923 14.3056 39.563 14.2888 39.5332C14.243 39.4516 14.1948 39.3657 14.1343 39.2994C14.1128 39.2769 14.0441 39.2994 13.9794 39.3207C13.9517 39.3297 13.9248 39.3386 13.9026 39.3435C13.9234 39.3811 13.9439 39.4172 13.964 39.4525ZM5.19268 35.4729C5.18245 35.4396 5.17154 35.404 5.16447 35.3724L5.16114 35.3576C5.1331 35.3603 5.1041 35.3624 5.07466 35.3645C4.97597 35.3717 4.87237 35.3792 4.78349 35.4111C4.74997 35.4238 4.72533 35.4761 4.70069 35.5284C4.68837 35.5545 4.67604 35.5807 4.66261 35.6019C4.68381 35.6153 4.70547 35.6347 4.72714 35.6541C4.77047 35.6929 4.8138 35.7316 4.85337 35.7228C4.97542 35.711 5.10232 35.6513 5.21439 35.595C5.22769 35.587 5.21132 35.5337 5.19268 35.4729ZM32.0924 55.6C32.0957 55.554 32.0991 55.5075 32.1055 55.4614C32.0739 55.4715 32.0354 55.4772 31.9988 55.4826C31.9426 55.4908 31.8911 55.4984 31.8771 55.5204C31.854 55.5955 31.8482 55.6764 31.8422 55.7588C31.8389 55.8048 31.8356 55.8512 31.8292 55.8974C31.8607 55.8873 31.8993 55.8816 31.9359 55.8762C31.9921 55.868 32.0436 55.8604 32.0575 55.8384C32.0807 55.7632 32.0865 55.6824 32.0924 55.6ZM9.57371 42.1768L9.32143 42.2334C9.32785 42.1872 9.33119 42.1407 9.3345 42.0947C9.34042 42.0124 9.34624 41.9315 9.36937 41.8563C9.38331 41.8343 9.43478 41.8268 9.49098 41.8185C9.52758 41.8132 9.56619 41.8075 9.59772 41.7973C9.59467 41.9227 9.58585 42.0572 9.57371 42.1768ZM8.32707 42.8382L8.07478 42.8948C8.06264 43.0144 8.05383 43.1488 8.05077 43.2742C8.08231 43.2641 8.12091 43.2584 8.15751 43.253C8.21371 43.2448 8.26518 43.2372 8.27912 43.2152C8.30225 43.1401 8.30807 43.0592 8.31399 42.9769C8.3173 42.9308 8.32065 42.8844 8.32707 42.8382ZM11.2027 47.3212C11.1263 47.3596 11.0542 47.4006 10.9788 47.4435C10.9434 47.4636 10.9074 47.4841 10.8698 47.505C10.8648 47.4827 10.856 47.4558 10.8469 47.4281C10.8257 47.3634 10.8032 47.2947 10.8257 47.2733C10.892 47.2127 10.9778 47.1646 11.0595 47.1187C11.0893 47.102 11.1186 47.0855 11.1461 47.0689L11.2027 47.3212Z" fill="white"/>
<path d="M19.3947 24.6575C20.405 22.6872 21.9543 21.0309 23.8695 19.8735C25.7848 18.7162 27.9906 18.1034 30.2407 18.1035C33.5117 18.1035 36.2597 19.2823 38.3606 21.2021L34.8808 24.6135C33.6222 23.4347 32.0225 22.834 30.2407 22.834C27.0789 22.834 24.4026 24.9275 23.4498 27.7382C23.2071 28.4519 23.0687 29.2131 23.0687 29.9982C23.0687 30.7832 23.2071 31.5445 23.4498 32.2582C24.4038 35.0701 27.0789 37.1624 30.2407 37.1624C31.8732 37.1624 33.2629 36.7401 34.3504 36.0264C34.9809 35.6196 35.5206 35.0918 35.937 34.4748C36.3534 33.8577 36.6378 33.1644 36.7731 32.4366H30.2407V27.8357H41.6717C41.815 28.6137 41.8926 29.4249 41.8926 30.2682C41.8926 33.8913 40.5697 36.9411 38.2733 39.0108C36.2657 40.8283 33.5178 41.8929 30.2407 41.8929C28.6466 41.8935 27.068 41.5863 25.5952 40.9887C24.1223 40.3912 22.784 39.5151 21.6568 38.4104C20.5296 37.3058 19.6356 35.9942 19.0259 34.5508C18.4161 33.1074 18.1026 31.5604 18.1033 29.9982C18.1033 28.0784 18.5718 26.2633 19.3947 24.6575Z" fill="#00172D"/>
</svg>
