<svg width="1667" height="1412" viewBox="0 0 1667 1412" fill="none" xmlns="http://www.w3.org/2000/svg">
<path opacity="0.15" d="M649.228 1176.67C644.94 1173.74 640.652 1170.74 636.436 1167.81C641.224 1167.95 651.8 1171.88 649.228 1176.67ZM736.838 1344.54C736.838 1340.75 736.695 1337.03 736.838 1333.25C736.981 1329.1 736.838 1324.81 737.838 1320.81C740.411 1310.81 749.272 1308.09 756.847 1315.09C761.563 1319.45 766.351 1324.1 769.638 1329.46C783.93 1352.83 799.58 1375.77 800.581 1405.78C806.083 1401.57 807.798 1397.35 806.012 1391.56C804.082 1385.42 802.725 1379.05 800.438 1373.12C794.721 1358.47 796.65 1343.54 799.223 1328.82C800.438 1321.81 801.51 1313.02 811.443 1311.74C820.947 1310.52 824.877 1317.81 828.45 1324.38C836.811 1339.68 844.6 1355.26 852.461 1370.76C854.391 1374.62 855.748 1378.84 857.392 1382.91C858.178 1382.77 858.893 1382.7 859.679 1382.56C859.893 1377.84 860.25 1373.12 860.25 1368.41C860.25 1358.97 859.679 1349.47 859.964 1340.04C862.108 1275.5 874.757 1212.97 895.838 1152.08C901.769 1134.93 909.487 1118.28 920.849 1103.84C931.211 1090.69 947.504 1088.84 961.295 1098.27C971.586 1105.34 977.874 1115.06 980.518 1126.78C986.164 1151.94 991.595 1177.17 991.094 1203.18C989.951 1257.49 983.162 1311.23 971.085 1364.19C969.513 1370.98 967.941 1377.77 966.369 1384.56C968.013 1383.99 968.37 1383.13 968.727 1382.2C974.23 1368.12 977.731 1352.83 985.735 1340.32C1001.17 1316.24 1018.03 1292.87 1039.4 1273.36C1049.12 1264.43 1059.34 1255.85 1070.13 1248.27C1082.99 1239.2 1096.36 1236.77 1111.36 1245.84C1125.15 1254.21 1130.44 1261.21 1126.87 1277C1124.51 1287.22 1121.01 1297.51 1116.08 1306.73C1101.14 1335.03 1081.78 1360.26 1060.34 1383.91C1051.48 1393.71 1042.12 1403.07 1034.76 1410.71C1046.26 1402.64 1059.98 1393.42 1073.2 1383.63C1083.06 1376.27 1094.35 1372.98 1106.07 1371.12C1120.15 1368.98 1127.87 1378.2 1124.15 1391.85C1123.15 1395.42 1121.01 1398.64 1119.51 1402.14C1119.08 1403.07 1119.15 1404.21 1118.87 1405.85C1121.87 1407.35 1124.8 1408.86 1127.73 1410.43C1133.16 1405.93 1138.02 1401.71 1143.09 1397.78C1158.38 1385.84 1174.32 1374.91 1192.61 1368.12C1201.69 1364.69 1210.91 1363.33 1219.98 1368.62C1227.41 1372.98 1229.63 1379.34 1225.34 1386.63C1223.48 1389.85 1220.55 1392.42 1217.98 1395.28C1215.84 1397.71 1213.55 1399.99 1211.26 1402.28C1214.84 1406.85 1218.41 1404.93 1220.63 1402.85C1225.63 1398.28 1230.2 1393.2 1234.63 1387.99C1235.7 1386.77 1236.13 1384.34 1235.85 1382.7C1233.27 1369.19 1242.21 1361.76 1250.71 1354.04C1253.64 1351.4 1256.78 1349.11 1259.86 1346.61C1227.34 1347.32 1196.33 1355.9 1161.81 1356.69C1167.74 1353.47 1171.32 1351.33 1174.96 1349.54C1193.61 1340.32 1212.55 1331.46 1230.99 1321.88C1264.57 1304.52 1300.23 1290.94 1331.39 1269.07C1338.54 1264.07 1345.75 1259.21 1352.9 1254.35C1352.47 1253.63 1352.04 1252.85 1351.54 1252.13C1339.61 1257.49 1327.96 1263.85 1315.6 1268.14C1294.59 1275.43 1273.22 1281.93 1251.78 1287.94C1238.35 1291.72 1224.48 1294.3 1210.76 1297.01C1201.05 1298.87 1191.9 1296.3 1183.61 1291.15C1173.32 1284.79 1175.82 1271.29 1168.17 1263.07C1165.89 1260.64 1166.03 1254.92 1166.82 1251.06C1168.03 1245.2 1170.32 1239.48 1172.89 1234.05C1180.89 1217.4 1193.68 1204.32 1206.9 1190.75C1200.83 1194.1 1195.69 1197.25 1190.25 1199.82C1181.68 1203.82 1172.89 1207.54 1162.96 1205.25C1152.31 1202.75 1148.66 1196.96 1150.52 1186.24C1153.17 1170.95 1160.38 1157.66 1169.03 1145.08C1173.89 1138.08 1179.25 1131.43 1184.61 1124.43C1178.18 1120.92 1174.53 1125 1171.25 1128.29C1156.38 1143.29 1139.16 1156.16 1129.23 1175.52C1128.23 1177.52 1126.73 1179.38 1125.23 1181.03C1120.08 1186.67 1115.01 1192.89 1106.07 1190.46C1099.57 1188.74 1096.64 1182.03 1096.86 1170.38C1097.21 1146.94 1105.15 1125.78 1117.58 1106.35C1128.73 1088.98 1142.3 1073.83 1161.31 1064.32C1164.17 1062.89 1166.24 1058.82 1167.46 1055.53C1176.96 1029.59 1186.18 1003.51 1195.4 977.423C1196.19 975.136 1196.19 972.563 1196.61 969.919C1179.89 972.421 1173.46 967.275 1171.96 951.124C1171.75 948.48 1171.53 945.836 1171.75 943.191C1174.32 911.818 1177.68 880.731 1187.75 850.502C1191.9 838.21 1199.04 828.634 1207.19 819.558C1216.19 809.552 1225.91 810.982 1233.27 822.202C1234.06 823.345 1234.7 824.489 1236.42 827.204C1237.85 818.557 1239.42 811.625 1240.13 804.693C1241.28 793.759 1241.99 782.825 1242.49 771.819C1242.71 767.245 1242.49 762.243 1237.42 760.17C1232.92 758.312 1229.27 761.028 1226.34 764.029C1222.34 768.031 1217.91 771.891 1215.05 776.679C1208.83 787.041 1202.19 797.475 1198.04 808.695C1183.54 847.715 1170.03 887.02 1156.31 926.326C1155.24 929.47 1155.17 933.043 1155.17 936.402C1155.45 957.627 1155.74 978.852 1156.45 1000.01C1156.88 1013.16 1154.81 1025.59 1149.45 1037.6C1141.73 1054.75 1130.51 1069.47 1117.94 1083.26C1107.93 1094.12 1097.71 1104.92 1082.35 1106.56C1067.34 1138.65 1055.27 1171.52 1027.68 1196.18C1025.75 1192.46 1024.32 1190.32 1023.54 1187.89C1020.96 1180.03 1017.68 1173.16 1011.68 1166.8C1004.6 1159.3 998.884 1149.8 994.667 1140.29C987.95 1125.21 986.807 1108.78 987.093 1092.41C987.307 1080.9 985.878 1069.61 983.091 1057.61C981.376 1059.32 980.232 1059.89 979.804 1060.82C972.8 1075.47 961.724 1070.4 955.864 1059.11C944.216 1036.52 937.142 1012.94 933.997 987.857C930.067 955.912 925.422 924.039 920.849 892.166C920.349 888.521 919.277 884.662 917.49 881.517C892.122 837.995 877.615 790.829 871.112 741.161C869.755 730.727 869.826 719.936 871.112 709.502C872.613 696.352 876.115 693.851 889.406 691.707C889.12 688.777 889.049 685.847 888.549 682.917C885.047 663.193 881.545 643.397 877.758 623.673C877.043 620.028 875.471 616.526 874.185 612.953C871.327 605.163 867.682 597.517 865.681 589.513C854.819 546.348 843.743 503.183 836.597 459.161C836.025 455.588 834.882 452.014 834.024 448.513C833.31 466.379 834.525 483.959 834.453 501.611C834.382 517.833 832.881 534.056 831.952 550.278C831.38 561.212 829.094 572.432 830.666 583.009C833.31 600.804 832.809 618.527 832.381 636.25C832.381 638.895 831.595 641.467 831.237 644.04C829.236 642.539 828.736 641.181 828.45 639.824C824.592 623.029 820.876 606.164 816.945 589.37C815.945 585.01 814.373 580.722 813.158 576.363C813.086 576.149 813.229 575.791 813.301 575.505C813.301 583.652 814.015 591.442 814.373 599.232C815.016 610.952 815.445 622.672 815.945 634.392C816.231 640.681 815.516 647.185 816.659 653.33C821.233 678.7 826.807 703.856 831.023 729.226C834.453 749.736 836.668 770.461 838.955 791.114C839.527 796.26 838.884 801.834 837.597 806.908C834.882 817.771 826.021 820.058 818.017 812.268C814.944 809.267 812.372 805.765 808.227 800.905C810.228 810.767 811.8 818.557 813.372 826.275C823.234 874.514 833.667 922.61 842.671 970.991C847.959 999.649 850.817 1028.81 848.459 1058.11C847.101 1074.76 845.101 1091.41 836.597 1106.27C834.31 1110.28 830.952 1113.71 826.878 1118.92C822.876 1112.78 819.232 1108.7 817.445 1103.99C813.372 1093.05 810.157 1081.76 806.655 1070.61C805.369 1066.54 805.44 1061.61 799.509 1060.47C799.08 1062.82 799.009 1065.18 798.294 1067.33C795.722 1074.9 789.79 1076.97 783.216 1072.54C780.715 1070.9 778.142 1068.83 776.642 1066.33C770.425 1055.61 764.35 1044.74 758.705 1033.67C756.061 1028.45 754.489 1022.66 752.202 1016.44C751.202 1018.01 750.63 1018.52 750.63 1019.02C750.416 1039.03 750.416 1059.11 750.13 1079.12C749.987 1089.69 749.487 1100.34 748.843 1110.92C748.701 1113.13 747.414 1115.35 745.985 1119.28C742.483 1113.92 739.839 1110.28 737.696 1106.35C727.691 1088.05 717.901 1069.68 707.825 1051.39C706.039 1048.17 704.038 1043.81 701.179 1042.81C686.244 1037.74 676.668 1026.52 667.378 1015.01C627.718 965.846 597.061 911.89 580.197 850.502C577.696 841.354 573.98 833.35 583.412 826.775C573.551 805.908 564.047 785.683 554.328 765.602C551.684 760.17 548.611 754.953 545.253 750.022C533.462 732.585 520.599 715.862 511.952 696.495C511.309 695.137 510.308 693.922 508.165 690.707C513.024 706.357 516.74 719.793 521.313 732.942C524.029 740.66 527.816 748.021 531.675 755.239C535.748 762.886 540.893 770.032 544.824 777.822C566.548 820.272 580.483 865.509 589.772 912.104C592.345 925.039 595.275 938.761 593.345 951.41C591.487 963.702 594.846 973.492 598.776 983.998C600.634 988.929 602.492 993.931 604.279 998.934C616.356 1032.17 625.431 1066.18 627.289 1101.63C628.075 1117.42 629.004 1133.29 619.5 1147.58C614.498 1155.16 608.924 1157.37 601.849 1151.3C595.632 1145.94 590.058 1139.43 585.413 1132.64C578.482 1122.64 572.622 1111.85 566.048 1101.06C569.335 1112.99 572.908 1124.57 575.695 1136.29C581.054 1158.66 586.056 1181.1 590.916 1203.61C591.773 1207.61 592.917 1212.11 589.63 1217.62C570.335 1188.32 547.611 1163.87 522.814 1139.93C524.529 1145.29 526.101 1149.87 527.53 1154.44C532.675 1171.45 538.178 1188.39 542.751 1205.54C544.681 1212.76 545.181 1220.55 545.11 1228.05C544.967 1243.2 538.106 1248.13 524.029 1243.49C516.883 1241.13 509.951 1237.91 503.162 1234.55C455.069 1211.04 408.834 1184.46 366.03 1152.08C348.951 1139.15 337.303 1138.43 320.224 1125.5C316.579 1122.78 307.361 1109.99 303.073 1113.21C306.146 1116.28 309.076 1119.21 312.077 1122.07C326.226 1135.79 340.375 1149.51 354.453 1163.23C362.171 1170.74 367.816 1179.67 371.889 1189.6C375.82 1199.18 374.391 1203.04 364.743 1207.47C361.099 1209.11 357.026 1209.75 350.737 1211.54C365.244 1216.47 376.391 1225.91 390.898 1218.47C392.47 1217.69 394.614 1217.9 396.472 1218.04C425.771 1219.83 449.138 1233.34 468.433 1254.71C471.148 1257.71 473.435 1261.5 474.793 1265.35C478.723 1276.36 473.149 1285.36 461.501 1286.65C457.07 1287.15 452.354 1286.65 447.995 1285.65C428.343 1280.86 411.693 1270.57 397.472 1256.49C394.328 1253.35 390.398 1249.42 389.898 1245.42C388.54 1234.62 380.608 1231.69 372.533 1228.41C366.244 1225.83 359.956 1223.19 353.524 1220.97C351.38 1220.26 348.879 1220.69 346.307 1220.55C357.526 1235.55 368.388 1249.56 378.607 1264C387.182 1276.22 386.539 1284.79 376.391 1298.01C382.251 1296.73 386.753 1295.66 391.112 1294.73C389.969 1280.08 395.686 1275.5 408.62 1279.86C410.407 1280.43 412.193 1281.15 413.837 1282.01C430.916 1291.08 444.708 1304.02 455.57 1319.81C463.216 1330.89 459.929 1336.68 446.351 1338.53C445.922 1338.53 445.637 1339.46 445.136 1340.11C453.569 1345.97 461.787 1352.11 470.362 1357.47C475.364 1360.62 480.938 1363.55 486.655 1364.76C527.03 1373.41 565.047 1387.99 600.563 1408.86C602.635 1410.07 604.922 1410.79 607.78 1412C607.995 1407.93 607.923 1404.85 608.281 1401.85C609.781 1389.77 614.426 1386.27 625.789 1389.99C636.222 1393.35 646.155 1398.06 656.445 1402C663.377 1404.64 670.451 1407.07 679.455 1410.28C670.951 1403.5 664.377 1398.28 657.803 1392.99C640.652 1379.05 625.646 1362.98 612.068 1345.61C601.278 1331.82 591.988 1317.02 586.342 1300.37C584.556 1295.01 582.984 1289.44 582.555 1283.79C581.769 1274 587.128 1269 596.918 1269.21C601.849 1269.29 606.78 1269.79 611.639 1269.21C624.288 1267.78 635.722 1271 646.441 1277.22C653.301 1281.22 660.375 1285.08 666.592 1289.94C685.672 1304.87 704.466 1320.24 723.332 1335.46C727.405 1338.75 731.407 1342.04 735.48 1345.39C735.909 1345.04 736.338 1344.61 736.767 1344.25L736.838 1344.54ZM1073.77 470.024C1071.2 460.233 1067.7 450.514 1066.27 440.58C1065.34 433.862 1062.27 429.574 1057.7 425.287C1046.4 414.638 1034.97 404.062 1024.11 392.913C1016.18 384.766 1008.53 376.262 1001.96 367.114C995.454 358.11 997.311 352.893 1007.53 347.033C993.524 334.669 975.802 328.523 959.366 317.589C968.942 309.657 977.088 302.867 985.735 295.721C983.662 294.792 983.091 294.292 982.376 294.22C975.587 293.72 969.299 292.005 967.084 284.715C964.725 277.069 968.87 270.851 974.516 267.064C982.519 261.632 991.666 257.773 1000.31 253.271C1002.46 252.199 1004.81 251.413 1007.24 250.412C1003.31 243.409 997.454 240.979 990.951 239.836C986.878 239.121 982.662 239.05 978.517 238.692C955.507 236.763 932.425 235.476 909.487 232.618C898.767 231.26 888.263 227.329 878.044 223.47C870.04 220.469 864.466 214.108 861.108 205.961C858.178 198.815 860.608 192.383 864.824 185.38C860.393 185.594 857.32 185.522 854.39 186.023C833.095 189.31 811.8 192.812 790.433 196.171C766.994 199.815 744.699 207.105 724.404 219.468C675.382 249.483 629.79 283.858 590.201 325.808C570.978 346.175 551.755 366.685 532.39 386.91C527.244 392.27 522.099 397.916 513.024 400.774C510.308 395.2 506.521 390.126 505.378 384.623C501.876 367.615 498.446 350.463 496.659 333.24C494.015 307.656 493.086 281.857 490.943 256.201C488.227 222.97 486.226 189.739 490.085 156.436C490.157 155.579 489.156 154.578 488.37 153.006C486.226 153.506 483.939 153.578 482.01 154.435C467.146 161.081 451.782 166.799 437.705 174.731C407.548 191.74 380.965 213.68 354.882 236.477C294.14 289.504 242.617 350.249 201.027 419.212C157.794 490.963 129.996 568.859 111.273 650.186C103.841 682.488 100.911 715.219 104.27 748.379C106.843 774.106 112.345 799.19 118.919 824.131C130.782 869.083 146.718 912.176 171.3 951.91C177.231 961.486 181.519 972.135 186.307 982.426C187.593 985.07 188.951 988.357 188.522 991.001C187.593 996.075 190.523 998.72 193.31 1001.79C208.316 1018.37 223.823 1034.52 238.258 1051.6C248.048 1063.11 256.552 1075.62 265.342 1087.91C269.344 1093.48 270.416 1093.91 277.061 1090.27C268.272 1080.19 258.839 1070.33 250.55 1059.61C240.831 1046.89 229.969 1034.59 226.467 1018.23C224.252 1007.94 221.822 997.29 231.398 989.572C230.827 981.068 230.112 973.135 229.755 965.203C229.469 957.413 230.398 949.48 226.182 941.619C225.181 946.121 224.681 949.909 223.466 953.411C219.178 965.631 209.746 967.275 201.242 957.27C199.813 955.555 198.455 953.625 197.454 951.624C194.096 944.835 190.523 938.117 187.95 931.042C185.806 925.254 183.091 921.109 177.731 917.178C171.228 912.533 165.726 905.53 161.796 898.455C152.291 881.089 149.362 862.007 150.505 842.355C150.648 839.71 151.148 837.066 151.934 834.565C155.007 824.274 161.01 822.773 169.37 830.063C170.442 830.992 171.514 831.849 173.229 833.279C174.516 828.848 175.802 825.275 176.588 821.63C184.234 786.612 196.525 753.381 214.605 722.365C216.32 719.435 217.964 716.434 219.321 713.289C229.612 689.778 246.762 673.698 270.987 665.122C280.492 661.763 288.138 656.332 294.498 648.328C301.429 639.681 301.501 630.39 301.572 618.956C297.499 627.174 294.784 633.821 290.996 639.895C287.709 645.255 282.778 649.257 275.918 647.971C269.772 646.827 266.342 642.111 264.556 636.322C263.555 633.106 262.698 629.747 262.269 626.388C258.91 597.445 266.128 570.789 279.92 545.633C283.564 538.987 287.923 532.77 295.641 529.839C297.571 529.125 299.286 527.124 300.643 525.409C308.504 515.189 316.436 505.041 323.939 494.607C326.012 491.677 327.227 487.89 328.013 484.316C330.514 473.239 332.372 462.019 335.016 451.014C336.802 443.439 339.518 436.006 342.09 427.431C338.374 429.646 335.802 431.147 333.301 432.719C322.081 439.794 310.505 436.649 305.145 424.643C303.216 420.213 302.001 415.282 301.429 410.422C298.142 381.765 303.859 353.893 309.576 326.022C316.936 290.147 339.804 265.992 369.96 248.912C388.611 238.335 409.335 231.331 429.558 223.828C444.779 218.182 454.641 222.47 463.573 235.905C465.431 238.692 467.361 241.479 469.862 243.623C477.722 250.341 482.796 258.702 484.225 268.707C485.655 278.427 486.655 288.289 486.584 298.079C486.298 326.594 483.01 354.822 477.722 382.765C475.65 393.842 473.649 405.491 465.431 414.067C461.572 418.069 460.072 421.856 460.786 427.145C461.286 430.861 461.144 434.72 461.072 438.508C460.643 474.883 450.782 508.757 433.703 540.702C430.487 546.705 427.986 553.065 425.556 559.426C424.77 561.498 425.27 564 425.128 567.144C433.917 561.284 441.278 556.067 448.924 551.35C455.713 547.134 463.002 546.133 470.648 549.492C477.437 552.422 479.938 556.639 478.794 563.714C478.223 567.073 477.437 570.289 476.722 573.647C482.367 564.285 488.299 554.781 495.802 546.419C505.735 535.485 515.096 523.979 525.672 513.76C542.966 497.037 563.546 488.604 587.914 494.607C597.204 496.894 606.065 501.111 615.141 504.398C660.447 435.435 698.75 362.04 747.986 295.792C736.123 282.5 735.695 274.496 746.342 260.489C749.987 255.701 754.274 251.27 758.991 247.554C771.854 237.406 786.146 229.688 801.438 223.685C819.089 216.753 837.097 217.11 855.034 221.112C874.257 225.4 878.759 233.833 872.327 252.27C885.69 256.201 898.124 254.843 910.701 248.769C927.852 240.55 945.931 237.334 964.725 242.909C969.656 244.338 973.729 247.268 974.444 252.914C975.159 258.416 972.515 262.776 967.941 265.206C961.653 268.564 954.792 270.851 948.29 273.853C945.288 275.211 942.072 276.64 939.929 278.927C931.711 287.788 923.779 296.864 915.918 306.012C905.342 318.375 894.337 330.381 884.547 343.388C879.902 349.534 877.258 357.395 874.614 364.756C872.97 369.187 873.256 374.118 878.187 379.049C879.33 362.826 890.621 357.109 902.984 351.535C901.769 349.82 900.84 348.748 900.197 347.533C895.98 339.457 897.124 334.169 904.627 329.167C907.414 327.308 910.63 325.808 913.846 324.807C933.426 318.804 950.433 326.594 966.298 336.313C975.23 341.744 974.801 348.748 967.941 357.324C967.298 358.11 967.084 359.182 966.798 359.896C971.085 364.184 976.588 367.543 978.589 372.403C980.447 376.976 978.589 383.051 978.231 390.555C990.237 398.559 1003.39 407.277 1016.25 415.853C1028.83 406.348 1035.33 406.849 1045.12 417.711C1048.12 421.07 1051.34 424.572 1053.34 428.502C1060.34 442.224 1066.84 456.231 1073.56 470.095L1073.42 470.309L1073.77 470.024ZM1257.28 300.295C1263.14 304.297 1269.58 307.727 1276.01 310.729C1297.37 320.591 1318.88 330.167 1337.46 344.746C1366.4 367.472 1394.13 391.627 1417.93 419.784C1431.15 435.435 1443.8 451.514 1452.16 470.381C1455.52 478.028 1458.02 485.531 1449.37 491.749C1456.09 500.825 1462.88 508.972 1468.52 517.905C1478.95 534.413 1490.96 550.278 1493.18 570.789C1493.82 576.577 1498.18 579.079 1503.89 578.078C1509.54 577.078 1511.61 574.005 1510.9 567.573C1508.04 542.632 1518.62 523.193 1537.12 507.971C1547.99 499.11 1561.13 497.109 1574.71 501.968C1584.07 505.256 1590.43 511.402 1591.08 521.692C1592.36 541.631 1594.65 561.927 1581.29 578.293C1584.29 582.366 1586.86 585.796 1590.58 590.727C1591.43 587.44 1591.86 586.082 1592.08 584.724C1595.01 565.357 1602.8 547.706 1611.59 530.483C1614.44 524.908 1618.59 519.406 1623.45 515.475C1629.24 510.758 1631.52 505.041 1633.31 498.395C1631.88 497.752 1630.95 497.109 1629.88 496.823C1602.08 490.105 1586.36 469.452 1572.07 447.155C1571.07 445.583 1570.42 443.724 1570 441.866C1567.85 433.148 1571.93 426.787 1580.71 425.287C1583.57 424.786 1586.5 424.858 1589.43 424.643C1589.36 423.286 1589.43 422.428 1589.22 421.785C1570.28 368.043 1542.41 320.019 1498.03 283C1490.6 276.783 1482.17 271.852 1474.52 266.563C1462.3 276.783 1456.59 278.927 1441.15 279.427C1419.43 280.07 1398.06 277.426 1376.77 273.281C1354.9 268.993 1333.39 263.276 1311.02 253.342C1314.67 258.059 1317.17 260.775 1319.17 263.919C1324.1 271.637 1323.67 279.999 1319.88 287.788C1316.31 295.078 1308.88 294.935 1301.95 294.435C1279.87 292.791 1260.14 284.215 1241.56 272.852C1237.78 270.565 1234.35 267.064 1231.84 263.419C1229.56 260.132 1227.06 255.701 1227.49 252.128C1228.63 242.98 1222.34 238.335 1217.77 232.618C1212.41 225.971 1205.05 225.257 1197.04 226.972C1192.97 227.83 1188.75 227.901 1184.68 228.687C1166.89 232.046 1149.09 235.619 1131.3 238.835C1123.8 240.193 1121.87 241.551 1121.65 247.482C1121.44 253.414 1124.37 257.273 1130.8 258.488C1134.8 259.203 1139.02 258.988 1143.73 259.203C1144.09 256.701 1144.02 254.414 1144.73 252.485C1147.02 246.768 1149.81 240.479 1156.53 239.907C1173.6 238.478 1190.75 238.478 1206.55 246.625C1217.2 252.128 1218.48 257.416 1212.98 268.85C1227.7 279.284 1242.42 290.004 1257.36 300.223L1257.28 300.295ZM1157.31 485.96C1156.1 493.392 1152.09 495.751 1144.45 495.894C1142.66 495.894 1140.95 495.608 1138.95 495.393C1136.23 503.469 1140.95 508.757 1144.59 513.546C1158.03 531.054 1156.03 550.35 1152.24 570.003C1150.88 577.006 1152.09 579.293 1158.96 578.936C1161.96 578.793 1164.89 577.935 1167.89 577.364C1179.61 575.077 1191.26 574.934 1202.83 578.078C1212.26 580.651 1221.84 582.938 1231.13 586.082C1234.49 587.226 1238.06 589.87 1239.78 592.871C1244.14 600.304 1248.35 608.022 1251.21 616.169C1257.36 633.678 1262.29 651.544 1268.15 669.196C1273.93 686.49 1279.44 703.785 1279.79 722.222C1279.87 725.796 1278.29 727.94 1276.58 741.018C1278.51 740.803 1289.66 725.295 1289.73 723.009C1290.37 712.003 1293.52 702.355 1301.23 694.28C1303.02 692.422 1304.23 689.778 1305.02 687.348C1308.95 674.77 1313.1 662.192 1316.45 649.4C1319.81 636.608 1322.46 623.673 1325.24 610.738C1327.03 602.233 1329.89 593.658 1329.89 585.153C1329.89 551.779 1324.17 519.62 1307.45 490.034C1302.88 481.887 1300.3 472.668 1296.66 464.02C1295.37 460.876 1294.09 457.589 1292.01 455.016C1287.01 448.87 1281.72 442.867 1276.22 437.15C1270.08 430.646 1262.57 427.43 1253.57 430.218C1240.21 434.363 1226.77 438.365 1213.62 443.153C1198.26 448.727 1183.32 455.159 1176.25 469.309C1170.03 466.164 1164.96 463.592 1158.6 460.376C1158.17 470.452 1158.53 478.456 1157.24 486.175L1157.31 485.96ZM1583 655.189C1580.86 655.76 1578.64 656.118 1576.57 656.975C1557.28 665.194 1524.55 660.405 1508.54 646.827C1505.18 643.969 1502.39 640.467 1499.32 637.322C1486.89 645.898 1473.17 652.616 1463.02 662.835C1441.51 684.561 1418.57 704.928 1402.42 731.727C1385.41 759.884 1365.98 786.541 1347.75 813.983C1344.97 818.2 1343.04 823.059 1340.75 827.633C1349.11 824.06 1355.83 819.272 1362.83 814.984C1374.12 808.123 1385.34 800.905 1397.2 795.045C1409.14 789.185 1421.86 785.397 1435.58 786.183C1444.65 786.755 1451.44 790.686 1456.44 798.047C1465.66 811.41 1468.81 825.632 1462.16 840.997C1457.87 851.002 1453.3 860.864 1448.58 871.441C1451.01 871.727 1452.8 872.155 1454.59 872.084C1471.45 871.798 1487.67 875.3 1504.04 878.873C1521.05 882.661 1533.91 891.38 1541.27 907.531C1542.34 909.889 1543.77 912.104 1545.2 914.748C1553.77 912.89 1561.99 911.104 1572.28 908.888C1569.64 915.32 1567.99 919.537 1566.21 923.61C1560.06 937.832 1553.92 952.125 1547.56 966.275C1545.06 971.849 1544.63 976.494 1548.63 981.997C1552.06 986.713 1554.13 992.788 1555.77 998.577C1566.28 1035.6 1562.78 1071.26 1544.34 1105.27C1539.41 1114.42 1534.34 1123.28 1519.62 1121.78C1521.55 1125.86 1522.05 1128.93 1523.83 1130.36C1529.05 1134.43 1530.26 1139.58 1528.98 1145.51C1527.91 1150.65 1526.62 1155.8 1525.05 1160.87C1521.76 1171.31 1514.97 1179.45 1506.9 1186.67C1528.83 1176.74 1544.77 1159.16 1563.14 1144.79C1565.14 1143.22 1565.78 1138.65 1565.57 1135.57C1565.28 1131.93 1563.78 1128.21 1562.28 1124.78C1559.13 1117.78 1559.78 1111.21 1561.71 1103.84C1568.71 1077.12 1575.43 1050.32 1586.5 1024.88C1587.93 1021.66 1589.08 1018.52 1586.07 1015.44C1578 1007.08 1579.64 996.79 1582.43 987.571C1586.86 973.135 1592.93 959.2 1598.72 945.264C1600.29 941.548 1602.94 938.046 1605.8 935.044C1614.59 925.54 1623.16 925.54 1631.95 935.187C1635.67 939.261 1638.53 944.049 1641.88 948.623C1657.32 933.901 1672.4 863.794 1665.11 840.211C1663.68 843.784 1662.68 847 1661.18 849.93C1657.32 857.791 1651.1 863.079 1642.53 865.295C1625.66 869.583 1612.8 858.363 1614.94 841.14C1615.44 837.138 1616.3 833.207 1617.23 828.348C1598.51 827.99 1580.86 828.491 1563.42 832.207C1560.71 832.778 1557.63 835.708 1556.42 838.353C1552.13 847.286 1544.98 849.716 1535.91 849.072C1501.25 846.786 1470.67 816.699 1468.02 782.181C1467.74 778.465 1467.59 774.749 1467.38 770.89C1464.16 769.889 1461.73 768.746 1459.16 768.46C1445.94 767.102 1432.93 766.602 1420.21 772.748C1409.71 777.822 1405.14 774.463 1405.64 762.957C1406.14 751.809 1409.28 741.447 1416.5 732.513C1436.15 708.287 1457.73 685.99 1481.67 666.123C1490.67 658.619 1501.68 656.261 1513.68 658.69C1526.62 661.263 1539.77 662.907 1552.85 664.979C1564.14 666.766 1574.71 666.48 1582 655.689C1582.22 655.403 1582.64 655.403 1583 655.189ZM193.238 1297.37C173.872 1281.93 156.293 1264.85 140.072 1246.2C105.342 1206.18 78.4013 1161.87 64.7524 1110.2C63.0373 1103.63 61.3937 1096.91 60.965 1090.19C60.4647 1082.33 65.3241 1079.05 73.3991 1080.69C74.8283 1080.98 76.186 1081.26 77.3294 1081.48C87.5483 1071.26 98.0529 1062.04 100.411 1045.39C89.6206 1050.89 83.2606 1046.1 77.115 1038.88C69.5402 1030.09 63.7519 1020.95 64.1092 1008.8C64.4665 997.505 63.3231 986.07 64.7524 974.922C66.1101 963.916 74.9712 956.341 83.2606 956.269C90.9784 956.269 97.4098 962.272 100.911 972.992C102.341 977.423 103.555 981.925 104.913 986.356C105.771 986.213 106.7 986.07 107.557 985.856C106.628 962.344 104.056 938.904 102.912 914.963C101.197 920.894 99.9109 926.397 97.91 931.686C95.9091 936.903 92.1932 941.834 86.1905 940.619C70.8265 937.403 61.6796 948.123 50.8176 954.983C48.5308 956.484 47.0302 959.271 45.3151 961.272C59.8216 980.353 64.9668 1000.29 57.8207 1022.73C56.32 1027.38 53.6045 1029.81 48.9596 1030.02C44.5291 1030.24 41.8136 1028.09 41.0275 1023.59C40.7416 1021.95 40.0985 1020.3 39.5983 1018.52C26.2352 1025.38 26.0208 1025.66 22.3763 1038.03C21.9475 1039.45 21.3759 1040.88 20.7327 1042.24C18.8747 1046.32 16.3022 1049.53 11.2285 1048.67C6.01187 1047.82 4.86849 1043.74 4.79703 1039.31C4.79703 1033.74 5.22581 1028.16 5.51165 1022.59C-1.56293 1040.96 -0.491053 1059.89 1.43838 1078.62C7.44106 1136.65 24.2343 1192.03 44.3861 1246.49C48.0306 1256.42 52.6756 1266 57.3205 1275.57C59.3928 1279.86 62.5371 1283.51 65.3241 1287.58C74.1852 1282.86 82.6175 1283.51 90.764 1285.22C135.212 1294.8 174.873 1314.59 210.532 1342.61C213.89 1345.25 218.392 1347.32 222.537 1347.75C230.469 1348.47 238.544 1347.75 247.548 1347.68C236.543 1337.18 236.829 1334.25 250.835 1324.88C227.039 1321.45 209.603 1310.45 193.167 1297.37H193.238ZM962.51 103.409C968.37 99.2645 974.015 94.7622 980.09 90.9746C985.092 87.8301 990.308 84.6142 995.882 83.042C1019.18 76.2529 1042.69 70.3213 1065.91 63.6036C1080.63 59.3157 1095.07 55.4566 1110.15 61.817C1111.51 62.3887 1113.15 62.2458 1114.65 62.6031C1135.59 67.3198 1155.24 74.6092 1172.25 88.259C1179.32 93.9047 1187.25 98.4784 1195.19 102.909C1197.76 104.339 1201.9 105.196 1204.55 104.196C1224.13 96.4774 1243.85 97.7637 1263.79 101.98C1278.79 105.196 1293.87 108.198 1308.88 111.342C1300.38 106.768 1291.51 103.052 1282.44 100.194C1274.29 97.6208 1265.93 94.3335 1257.57 94.1191C1234.2 93.4759 1211.91 87.4014 1189.18 83.1849C1184.04 82.2559 1178.75 80.5408 1174.25 77.8966C1160.03 69.4637 1159.74 58.4581 1172.82 49.3821C1173.1 49.2392 1173.1 48.739 1173.46 47.667C1170.1 46.3806 1166.82 44.9513 1163.39 43.8793C1143.45 37.7334 1123.8 30.6584 1103.57 25.8702C1074.92 19.0096 1046.26 14.0071 1016.11 20.0816C989.522 25.4415 962.01 26.9422 934.855 29.0147C909.558 30.9442 884.118 31.6589 858.75 32.3021C850.46 32.5165 842.028 31.6589 833.953 29.8723C816.159 26.0132 811.228 19.0096 812.229 1.28637C811.872 0.929044 811.514 0.571709 811.157 0.214385C794.578 5.28838 777.928 10.2195 761.492 15.5793C753.989 18.0091 746.628 21.1536 739.411 24.4409C718.401 34.0172 697.535 43.8079 676.668 53.5271C673.953 54.8135 671.237 55.9569 668.45 57.2433C684.1 55.3852 699.321 52.8124 714.614 50.3112C770.925 41.0922 827.664 40.5205 884.475 42.3786C894.337 42.7359 903.984 44.3796 911.988 50.6685C912.273 54.6705 912.559 58.3152 912.845 61.3167C927.78 58.1008 942.001 54.5276 956.436 52.1692C961.724 51.3117 967.798 52.3837 973.015 54.0273C980.375 56.4571 983.734 62.8175 982.162 70.2498C980.018 80.2549 976.445 89.6168 968.084 96.4774C965.797 98.3355 964.368 101.194 962.582 103.624V103.481L962.51 103.409ZM311.077 856.004C319.366 855.647 327.655 854.218 335.945 854.218C346.378 854.218 353.881 859.649 357.526 869.654C358.955 873.513 360.027 877.587 361.099 881.589C366.173 901.099 373.033 919.894 384.324 936.76C393.542 950.552 403.904 963.273 417.553 972.921C411.621 963.702 405.119 954.983 399.116 945.979C393.185 936.974 392.899 926.183 390.112 916.106C384.038 894.31 383.323 872.87 392.756 851.645C394.042 848.787 394.685 844.57 393.542 841.926C388.683 830.563 383.537 819.2 373.676 809.124C370.746 812.268 368.531 815.555 365.529 817.628C351.881 827.204 337.731 820.415 336.302 803.764C335.445 794.259 338.589 785.969 344.091 778.322C348.951 771.605 353.31 764.53 358.026 757.669C362.6 750.951 367.387 744.377 371.818 737.516C374.962 732.585 377.606 727.368 380.536 722.294C370.532 729.44 361.956 737.444 353.024 745.02C348.736 748.664 344.091 752.238 339.018 754.453C336.088 755.74 331.443 755.382 328.584 753.881C324.797 751.88 325.369 747.521 326.798 743.733C328.013 740.66 329.156 737.516 331.086 732.513C311.577 746.806 283.564 792.401 282.635 810.196C286.709 806.837 290.71 803.263 295.713 807.408C300.072 810.982 302.501 815.555 300.715 821.416C299.929 823.988 299.286 826.49 298.357 828.991C295.427 837.138 292.425 845.285 288.567 856.004C297.213 856.004 304.216 856.29 311.291 856.004H311.077ZM999.741 937.546C1001.96 934.544 1004.24 931.543 1006.46 928.541C1012.82 919.823 1018.11 910.318 1026.54 903.1C1038.04 893.309 1046.33 881.446 1047.55 865.724C1047.69 863.508 1048.98 861.436 1049.76 859.292C1056.27 842.355 1062.7 825.346 1069.27 808.48C1080.21 780.466 1081.92 750.737 1086.49 719.364C1084.35 721.937 1083.49 722.651 1083.06 723.58C1073.2 745.663 1064.7 768.46 1049.33 787.756C1047.98 789.471 1047.26 791.829 1046.55 793.973C1039.83 814.055 1032.47 833.993 1026.68 854.361C1019.96 877.944 1014.03 901.67 1002.74 923.753C1000.74 927.755 999.956 932.329 998.598 936.688L999.67 937.76L999.741 937.546ZM1294.73 1112.56C1296.73 1110.35 1297.52 1106.56 1297.95 1103.34C1301.88 1071.04 1317.6 1043.67 1334.46 1016.8C1337.61 1011.8 1341.18 1007.08 1344.54 1002.15C1343.89 1001.65 1343.25 1001.08 1342.61 1000.58C1325.32 1016.94 1308.09 1033.38 1290.59 1049.53C1282.51 1056.96 1281.37 1066.4 1281.22 1076.4C1281.08 1082.4 1281.37 1088.62 1279.79 1094.27C1276.94 1104.42 1272.93 1114.28 1269.08 1124.21C1265.72 1132.86 1262 1141.36 1258.14 1150.73C1270.93 1137.5 1283.01 1125.21 1294.73 1112.49V1112.56ZM1384.63 998.362C1383.48 1001.94 1382.13 1005.51 1380.34 1008.87C1372.91 1022.87 1365.26 1036.74 1357.62 1050.6C1353.47 1058.04 1349.18 1065.4 1344.9 1072.83L1346.97 1074.69C1355.54 1067.68 1364.26 1060.89 1372.76 1053.68C1383.56 1044.53 1392.99 1034.67 1394.85 1019.44C1395.49 1014.01 1398.85 1008.94 1401.21 1003.79C1403.71 998.362 1406.42 993.002 1408.92 987.714C1398.06 978.281 1396.85 974.636 1401.49 960.772C1403.92 953.554 1407.28 946.622 1410.21 939.547C1409.78 939.189 1409.28 938.832 1408.85 938.475C1395.49 950.552 1382.13 962.558 1366.83 976.423C1384.41 977.923 1388.91 984.427 1384.56 998.434L1384.63 998.362ZM899.911 1244.13C914.989 1204.39 925.851 1162.87 948.147 1126.21C941.715 1116.78 939 1116.28 931.925 1123.78C929.853 1125.93 927.78 1128.36 926.494 1131C920.777 1142.94 914.417 1154.58 910.13 1167.02C896.624 1205.61 890.478 1245.84 885.976 1285.01C890.335 1272.22 894.694 1258.07 899.911 1244.2V1244.13ZM1148.38 328.166C1148.09 335.312 1148.45 342.602 1147.24 349.677C1144.81 363.755 1142.23 377.905 1138.3 391.627C1136.3 398.63 1131.94 405.348 1127.37 411.208C1121.58 418.712 1116.15 419.212 1107.5 414.924C1106.36 414.352 1105.36 413.638 1103.5 412.566C1104.79 421.713 1110 428.36 1126.94 443.439C1134.23 438.079 1141.88 439.937 1150.09 445.011C1148.38 435.792 1146.66 428.145 1145.52 420.356C1143.66 407.42 1144.52 395.271 1157.67 387.982C1155.1 367.543 1152.52 347.676 1150.02 327.809C1149.45 327.952 1148.95 328.023 1148.38 328.166ZM288.638 1361.62C308.718 1366.76 328.727 1371.98 348.879 1376.98C350.809 1377.48 353.667 1377.05 355.096 1375.91C366.601 1366.69 380.751 1365.19 394.328 1361.9C400.688 1360.33 407.119 1359.04 413.551 1357.62C411.407 1354.9 409.406 1353.33 407.405 1353.4C395.328 1353.54 383.252 1353.47 371.246 1354.54C359.241 1355.61 347.307 1358.62 335.302 1359.4C319.866 1360.4 304.359 1359.9 288.852 1360.12C288.852 1360.69 288.852 1361.19 288.781 1361.76L288.638 1361.62ZM1582.57 654.974C1591.08 651.472 1599.58 647.899 1609.37 643.897C1604.51 635.179 1600.01 627.103 1595.94 619.814C1592.43 628.818 1589 637.394 1585.72 646.041C1584.57 649.043 1583.79 652.116 1582.86 655.189L1582.64 654.974H1582.57ZM1073.7 469.881C1074.85 476.527 1076.2 483.173 1077.2 489.819C1078.13 496.108 1078.85 502.54 1079.85 510.901C1082.06 508.114 1083.42 507.185 1083.28 506.685C1080.13 494.464 1076.85 482.315 1073.56 470.095L1073.7 469.881ZM962.367 103.552C954.364 102.981 949.504 108.912 942.787 112.414C947.218 117.488 951.148 116.487 954.65 112.914C957.508 110.056 959.723 106.554 962.224 103.409L962.296 103.552H962.367ZM812.086 1.14343C812.586 0.786111 813.015 0.357324 813.515 0C812.729 0 811.872 0.071468 811.085 0.142933C811.443 0.500256 811.8 0.857591 812.157 1.21491L812.086 1.14343ZM476.865 573.504L476.293 573.647C476.65 573.647 476.865 573.504 476.865 573.504ZM735.337 1345.75C735.909 1346.18 736.552 1346.61 737.124 1347.04L736.552 1344.61C736.123 1344.97 735.695 1345.39 735.266 1345.75H735.337Z" fill="url(#paint0_linear_2004_486)"/>
<defs>
<linearGradient id="paint0_linear_2004_486" x1="833.5" y1="0" x2="833.5" y2="1412" gradientUnits="userSpaceOnUse">
<stop stop-color="#3F88D3"/>
<stop offset="1" stop-color="#3F88D3" stop-opacity="0"/>
</linearGradient>
</defs>
</svg>
