<svg width="141" height="45" viewBox="0 0 141 45" fill="none" xmlns="http://www.w3.org/2000/svg">
<mask id="mask0_429_3143" style="mask-type:alpha" maskUnits="userSpaceOnUse" x="0" y="16" width="142" height="13">
<path d="M0.455078 16.2754H73.2891L69.2891 28.7817H0.455078V16.2754Z" fill="#D9D9D9"/>
<path d="M141.246 16.2754H89.5137L86.5137 28.7817H141.246V16.2754Z" fill="#D9D9D9"/>
</mask>
<g mask="url(#mask0_429_3143)">
<path d="M0.5 22.6337C0.5 21.4229 1.48153 20.4414 2.69231 20.4414L23.0802 20.4414L23.0802 24.8756L2.69231 24.8756C1.48153 24.8756 0.5 23.8941 0.5 22.6833L0.5 22.6337Z" fill="#FF5B65"/>
<path d="M25.3398 19.334L25.7381 19.334C26.1417 19.334 26.4689 19.6612 26.4689 20.0648L26.4689 25.2545C26.4689 25.6581 26.1417 25.9853 25.7381 25.9853L25.3398 25.9853L25.3398 19.334Z" fill="#FF5B65"/>
<path d="M23.0801 18.9554C23.0801 18.5518 23.4073 18.2246 23.8108 18.2246L24.6073 18.2246C25.0109 18.2246 25.3381 18.5518 25.3381 18.9554L25.3381 26.3622C25.3381 26.7658 25.0109 27.093 24.6073 27.093L23.8108 27.093C23.4073 27.093 23.0801 26.7658 23.0801 26.3622L23.0801 18.9554Z" fill="#FF5B65"/>
<path fill-rule="evenodd" clip-rule="evenodd" d="M61.4643 23.767L26.465 20.4414L140.497 20.4414L137.11 21.5499L53.5612 21.5499L130.921 23.5755L126.949 24.8756L24.209 24.8756L24.209 20.4414L26.465 20.4414L26.465 23.767L61.4643 23.767Z" fill="#FF5B65"/>
</g>
<path d="M54.893 21.0393C58.1947 13.1269 66.974 7.00586 75.4853 7.00586C84.708 7.00586 90.1236 14.1927 87.5815 23.0581C85.0394 31.9234 75.5022 39.1103 66.2795 39.1103C57.5505 39.1103 52.2318 32.6721 53.8429 24.4662" stroke="#FF5B65" stroke-width="2.50486"/>
<path d="M62.5935 20.9C64.6945 17.0678 69.1163 14.2305 73.4138 14.2305C78.4863 14.2305 81.4649 18.1832 80.0667 23.0592C78.6686 27.9351 73.4231 31.8879 68.3506 31.8879C63.7814 31.8879 60.9112 28.6805 61.4086 24.4801" stroke="#FF5B65" stroke-width="2.50486"/>
<path d="M64.6692 44.7304L68.3516 31.8887" stroke="#FF5B65" stroke-width="2.50486"/>
<path d="M73.4137 14.2303L77.3262 0.585938" stroke="#FF5B65" stroke-width="2.50486"/>
</svg>
