<svg viewBox="0 0 100 79" fill="none" xmlns="http://www.w3.org/2000/svg">
<path d="M20.5013 71.0719C20.5769 71.2246 20.6861 71.4536 20.8289 71.759C20.9717 72.0645 21.1271 72.4038 21.2951 72.7771C21.4715 73.1419 21.6437 73.5194 21.8117 73.9097C21.9882 74.2914 22.1436 74.6477 22.278 74.9786C22.4124 75.301 22.5174 75.5725 22.593 75.793C22.6686 76.0136 22.6938 76.1366 22.6686 76.1621C22.6182 76.2045 22.5426 76.2257 22.4418 76.2257C22.3494 76.2257 22.2528 76.213 22.152 76.1875C22.0596 76.1621 21.9672 76.1281 21.8747 76.0857C21.7907 76.0433 21.7319 75.9966 21.6983 75.9457C21.3623 75.4367 21.0641 74.9701 20.8037 74.5459C20.5433 74.1217 20.3164 73.7527 20.1232 73.4388C19.9048 73.0825 19.7116 72.7559 19.5436 72.4589C19.4848 72.5523 19.4218 72.6456 19.3546 72.7389C19.2958 72.8237 19.237 72.9043 19.1782 72.9807C19.153 73.4134 19.1278 73.8206 19.1026 74.2023C19.0774 74.5841 19.0522 74.9192 19.027 75.2077C19.0018 75.4961 18.9724 75.7209 18.9388 75.8821C18.9136 76.0518 18.8884 76.1366 18.8632 76.1366C18.796 76.1536 18.7161 76.1281 18.6237 76.0603C18.5397 75.9924 18.4557 75.9076 18.3717 75.8058C18.2961 75.704 18.2289 75.5979 18.1701 75.4876C18.1113 75.3688 18.0735 75.267 18.0567 75.1822C18.0063 74.3338 17.9643 73.5746 17.9307 72.9043C17.8971 72.2341 17.8719 71.6403 17.8551 71.1228C17.8383 70.6053 17.8257 70.1556 17.8173 69.7739C17.8089 69.3921 17.8047 69.0655 17.8047 68.794C17.8047 68.1577 17.8257 67.7208 17.8677 67.4833C17.9013 67.3051 17.9853 67.1354 18.1197 66.9742C18.2541 66.8046 18.3969 66.6604 18.5481 66.5416C18.7077 66.4143 18.8548 66.321 18.9892 66.2616C19.1236 66.1937 19.2118 66.1725 19.2538 66.198C19.2874 66.2234 19.3126 66.3846 19.3294 66.6816C19.3462 66.97 19.3504 67.339 19.342 67.7887C19.3336 68.2383 19.321 68.7431 19.3042 69.303C19.2874 69.8545 19.2664 70.4101 19.2412 70.9701C19.5352 70.3932 19.8334 69.8248 20.1358 69.2648C20.4467 68.7049 20.7323 68.2044 20.9927 67.7632C21.2531 67.3221 21.4757 66.9658 21.6605 66.6943C21.8453 66.4143 21.963 66.2743 22.0134 66.2743C22.0638 66.2743 22.1268 66.3295 22.2024 66.4398C22.278 66.5416 22.3452 66.6773 22.404 66.847C22.4712 67.0167 22.5174 67.1991 22.5426 67.3942C22.5678 67.5893 22.551 67.776 22.4922 67.9541C22.4586 68.0559 22.3788 68.2171 22.2528 68.4377C22.1268 68.6498 21.9714 68.8958 21.7865 69.1758C21.6017 69.4557 21.3959 69.7611 21.1691 70.092C20.9507 70.4144 20.7281 70.741 20.5013 71.0719Z" fill="white"/>
<path d="M28.0743 72.3444C28.0911 72.3699 28.0869 72.4547 28.0617 72.5989C28.0449 72.7431 28.0155 72.9001 27.9735 73.0698C27.9399 73.2394 27.9021 73.4006 27.8601 73.5533C27.8265 73.6976 27.7971 73.7824 27.7719 73.8079H27.6459C27.6207 73.8079 27.5955 73.8036 27.5703 73.7951C27.6123 74.2023 27.6459 74.529 27.6711 74.775C27.6963 75.021 27.7089 75.1568 27.7089 75.1822C27.7089 75.2416 27.6795 75.3264 27.6207 75.4367C27.5703 75.547 27.5115 75.6488 27.4443 75.7421C27.3771 75.8355 27.3057 75.9076 27.2301 75.9585C27.1629 76.0178 27.1167 76.0221 27.0915 75.9712C27.0495 75.8948 26.9613 75.6658 26.8269 75.284C26.6925 74.9022 26.5412 74.3805 26.3732 73.7188C26.2052 73.7018 26.0288 73.6848 25.844 73.6679C25.6676 73.6509 25.487 73.6339 25.3022 73.617C25.1174 73.6 24.9325 73.5788 24.7477 73.5533C24.5713 73.5194 24.3991 73.4897 24.2311 73.4643C24.1471 73.8375 24.0631 74.1896 23.9791 74.5205C23.9035 74.8513 23.8279 75.1398 23.7523 75.3858C23.6851 75.6318 23.6263 75.827 23.5759 75.9712C23.5255 76.1154 23.4877 76.1875 23.4625 76.1875C23.3952 76.1875 23.328 76.1451 23.2608 76.0603C23.1936 75.9754 23.1306 75.8736 23.0718 75.7549C23.0214 75.6361 22.9794 75.5131 22.9458 75.3858C22.9122 75.2586 22.8954 75.1525 22.8954 75.0677C22.9122 74.8726 22.9332 74.6689 22.9584 74.4569C22.992 74.2448 23.0172 74.0496 23.034 73.8715C23.0592 73.6594 23.0844 73.4515 23.1096 73.2479H23.0592C23.0256 73.231 22.9794 73.1928 22.9206 73.1334C22.8618 73.074 22.803 73.0146 22.7442 72.9552C22.6854 72.8874 22.635 72.8237 22.593 72.7644C22.551 72.6965 22.53 72.6456 22.53 72.6117C22.53 72.5947 22.5888 72.5777 22.7064 72.5608C22.8324 72.5438 22.9962 72.5268 23.1978 72.5098C23.265 72.0008 23.3364 71.4706 23.412 70.9192C23.4877 70.3677 23.5633 69.8502 23.6389 69.3666C23.7145 68.8831 23.7859 68.4631 23.8531 68.1068C23.9287 67.742 23.9917 67.4918 24.0421 67.356C24.1261 67.127 24.2731 66.9233 24.4831 66.7452C24.6931 66.5585 24.9115 66.4058 25.1384 66.2871C25.3736 66.1598 25.5962 66.0623 25.8062 65.9944C26.0162 65.9265 26.1716 65.8926 26.2724 65.8926C26.3144 65.8926 26.3606 65.9901 26.411 66.1853C26.4698 66.3719 26.5286 66.6264 26.5875 66.9488C26.6547 67.2712 26.7219 67.6487 26.7891 68.0814C26.8647 68.5056 26.9361 68.9552 27.0033 69.4303C27.0705 69.9054 27.1335 70.3932 27.1923 70.8937C27.2595 71.3858 27.3225 71.8566 27.3813 72.3062C27.8013 72.3062 28.0323 72.319 28.0743 72.3444ZM24.4705 72.4208C24.7393 72.4038 25.0081 72.3911 25.277 72.3826C25.5458 72.3741 25.8104 72.3614 26.0708 72.3444C26.0036 72.0136 25.928 71.6445 25.844 71.2373C25.7768 70.8895 25.697 70.4822 25.6046 70.0156C25.5122 69.549 25.4198 69.0358 25.3274 68.4759C25.2266 68.9764 25.1258 69.4642 25.025 69.9393C24.9241 70.4059 24.8317 70.8258 24.7477 71.1991C24.6553 71.6318 24.5629 72.039 24.4705 72.4208Z" fill="white"/>
<path d="M32.5854 66.3507C32.6106 66.3931 32.6232 66.4907 32.6232 66.6434C32.6316 66.7961 32.6274 66.9615 32.6106 67.1397C32.5938 67.3178 32.5686 67.4918 32.535 67.6614C32.5098 67.8226 32.4804 67.9287 32.4468 67.9796C32.4216 68.022 32.2662 68.0389 31.9806 68.0305C31.7034 68.0135 31.3044 67.9711 30.7835 67.9032C30.7835 68.2341 30.7793 68.6583 30.7709 69.1758C30.7625 69.6933 30.7457 70.2489 30.7205 70.8428C30.7037 71.4282 30.6827 72.0178 30.6575 72.6117C30.6407 73.2055 30.6197 73.7442 30.5945 74.2278C30.5693 74.7114 30.5441 75.1059 30.5189 75.4113C30.4937 75.7167 30.4727 75.8779 30.4559 75.8948C30.4223 75.9203 30.3635 75.9076 30.2795 75.8567C30.2039 75.8142 30.1241 75.7506 30.0401 75.6658C29.9561 75.5809 29.8763 75.4961 29.8007 75.4113C29.7335 75.3179 29.6872 75.2374 29.662 75.1695C29.6536 75.1355 29.6368 74.9701 29.6116 74.6732C29.5948 74.3763 29.5738 74.003 29.5486 73.5533C29.5234 73.1037 29.494 72.6032 29.4604 72.0517C29.4268 71.5003 29.3932 70.9531 29.3596 70.4101C29.326 69.8672 29.2882 69.3582 29.2462 68.8831C29.2126 68.408 29.1832 68.0135 29.158 67.6996C28.5868 67.6402 28.1752 67.5808 27.9231 67.5214C27.6711 67.4621 27.5283 67.4154 27.4947 67.3815C27.4611 67.3475 27.4275 67.2839 27.3939 67.1906C27.3519 67.0888 27.3183 66.987 27.2931 66.8852C27.2679 66.7834 27.2553 66.69 27.2553 66.6052C27.2469 66.5119 27.2553 66.4525 27.2805 66.427C27.2973 66.4101 27.4401 66.3931 27.7089 66.3761C27.9693 66.3592 28.2928 66.3422 28.6792 66.3252C29.0656 66.3083 29.4814 66.2956 29.9267 66.2871C30.3803 66.2786 30.8003 66.2743 31.1867 66.2743C31.5732 66.2743 31.8966 66.2828 32.157 66.2998C32.4258 66.3083 32.5686 66.3252 32.5854 66.3507Z" fill="white"/>
<path d="M37.777 72.3444C37.7938 72.3699 37.7896 72.4547 37.7644 72.5989C37.7476 72.7431 37.7182 72.9001 37.6762 73.0698C37.6426 73.2394 37.6048 73.4006 37.5628 73.5533C37.5292 73.6976 37.4998 73.7824 37.4745 73.8079H37.3485C37.3233 73.8079 37.2981 73.8036 37.2729 73.7951C37.3149 74.2023 37.3485 74.529 37.3737 74.775C37.3989 75.021 37.4115 75.1568 37.4115 75.1822C37.4115 75.2416 37.3821 75.3264 37.3233 75.4367C37.2729 75.547 37.2141 75.6488 37.1469 75.7421C37.0797 75.8355 37.0083 75.9076 36.9327 75.9585C36.8655 76.0178 36.8193 76.0221 36.7941 75.9712C36.7521 75.8948 36.6639 75.6658 36.5295 75.284C36.3951 74.9022 36.2439 74.3805 36.0759 73.7188C35.9078 73.7018 35.7314 73.6848 35.5466 73.6679C35.3702 73.6509 35.1896 73.6339 35.0048 73.617C34.82 73.6 34.6352 73.5788 34.4504 73.5533C34.2739 73.5194 34.1017 73.4897 33.9337 73.4643C33.8497 73.8375 33.7657 74.1896 33.6817 74.5205C33.6061 74.8513 33.5305 75.1398 33.4549 75.3858C33.3877 75.6318 33.3289 75.827 33.2785 75.9712C33.2281 76.1154 33.1903 76.1875 33.1651 76.1875C33.0979 76.1875 33.0307 76.1451 32.9635 76.0603C32.8963 75.9754 32.8333 75.8736 32.7744 75.7549C32.724 75.6361 32.682 75.5131 32.6484 75.3858C32.6148 75.2586 32.598 75.1525 32.598 75.0677C32.6148 74.8726 32.6358 74.6689 32.661 74.4569C32.6946 74.2448 32.7198 74.0496 32.7366 73.8715C32.7618 73.6594 32.787 73.4515 32.8122 73.2479H32.7618C32.7282 73.231 32.682 73.1928 32.6232 73.1334C32.5644 73.074 32.5056 73.0146 32.4468 72.9552C32.388 72.8874 32.3376 72.8237 32.2956 72.7644C32.2536 72.6965 32.2326 72.6456 32.2326 72.6117C32.2326 72.5947 32.2914 72.5777 32.409 72.5608C32.535 72.5438 32.6988 72.5268 32.9005 72.5098C32.9677 72.0008 33.0391 71.4706 33.1147 70.9192C33.1903 70.3677 33.2659 69.8502 33.3415 69.3666C33.4171 68.8831 33.4885 68.4631 33.5557 68.1068C33.6313 67.742 33.6943 67.4918 33.7447 67.356C33.8287 67.127 33.9757 66.9233 34.1857 66.7452C34.3958 66.5585 34.6142 66.4058 34.841 66.2871C35.0762 66.1598 35.2988 66.0623 35.5088 65.9944C35.7188 65.9265 35.8742 65.8926 35.9751 65.8926C36.0171 65.8926 36.0633 65.9901 36.1137 66.1853C36.1725 66.3719 36.2313 66.6264 36.2901 66.9488C36.3573 67.2712 36.4245 67.6487 36.4917 68.0814C36.5673 68.5056 36.6387 68.9552 36.7059 69.4303C36.7731 69.9054 36.8361 70.3932 36.8949 70.8937C36.9621 71.3858 37.0251 71.8566 37.0839 72.3062C37.504 72.3062 37.735 72.319 37.777 72.3444ZM34.1731 72.4208C34.442 72.4038 34.7108 72.3911 34.9796 72.3826C35.2484 72.3741 35.513 72.3614 35.7734 72.3444C35.7062 72.0136 35.6306 71.6445 35.5466 71.2373C35.4794 70.8895 35.3996 70.4822 35.3072 70.0156C35.2148 69.549 35.1224 69.0358 35.03 68.4759C34.9292 68.9764 34.8284 69.4642 34.7276 69.9393C34.6268 70.4059 34.5344 70.8258 34.4504 71.1991C34.3579 71.6318 34.2655 72.039 34.1731 72.4208Z" fill="white"/>
<path d="M42.9433 66.8215C42.9601 66.8555 42.9685 66.9742 42.9685 67.1779C42.9769 67.3815 42.9769 67.6275 42.9685 67.9159C42.9685 68.2044 42.9601 68.514 42.9433 68.8449C42.9265 69.1673 42.9055 69.4727 42.8803 69.7611C42.8299 70.4059 42.7711 71.0422 42.7039 71.67C42.6367 72.2978 42.5695 72.8619 42.5023 73.3625C42.4435 73.863 42.3847 74.2745 42.3259 74.5968C42.2755 74.9107 42.2461 75.0846 42.2377 75.1186C42.2209 75.161 42.1831 75.2246 42.1242 75.3095C42.0654 75.3943 42.0024 75.4791 41.9352 75.564C41.868 75.6403 41.8008 75.7082 41.7336 75.7676C41.6748 75.827 41.6286 75.8567 41.595 75.8567C41.5278 75.7973 41.406 75.564 41.2296 75.1568C41.154 74.9786 41.0616 74.758 40.9524 74.495C40.8432 74.2236 40.7172 73.8927 40.5743 73.5024C40.4315 73.1122 40.2635 72.6541 40.0703 72.1281C39.8855 71.5936 39.6755 70.9743 39.4403 70.2702C39.4907 70.9658 39.5327 71.5766 39.5663 72.1026C39.5999 72.6286 39.6251 73.0867 39.6419 73.477C39.6671 73.8672 39.6839 74.1981 39.6923 74.4696C39.7007 74.7326 39.7049 74.9531 39.7049 75.1313C39.7049 75.5385 39.6923 75.7718 39.6671 75.8312C39.5831 75.8312 39.4907 75.793 39.3899 75.7167C39.2975 75.6318 39.2093 75.5343 39.1253 75.424C39.0412 75.3052 38.9656 75.1907 38.8984 75.0804C38.8396 74.9701 38.806 74.8895 38.7976 74.8386C38.7892 74.8047 38.764 74.6477 38.722 74.3678C38.68 74.0878 38.6296 73.7315 38.5708 73.2988C38.5204 72.8577 38.4616 72.3656 38.3944 71.8227C38.3356 71.2712 38.2768 70.7113 38.218 70.1429C38.1676 69.5745 38.1256 69.0231 38.092 68.4886C38.0584 67.9456 38.0416 67.4621 38.0416 67.0379C38.0416 66.97 38.1256 66.8809 38.2936 66.7706C38.4616 66.6519 38.6506 66.5416 38.8606 66.4398C39.0791 66.3295 39.2807 66.2362 39.4655 66.1598C39.6503 66.075 39.7637 66.0326 39.8057 66.0326C39.8393 66.0326 39.8729 66.1301 39.9065 66.3252C39.9485 66.5204 39.9905 66.7664 40.0325 67.0633C40.0829 67.3603 40.1375 67.6911 40.1963 68.0559C40.2635 68.4207 40.3349 68.7685 40.4105 69.0994C40.4777 69.4557 40.5617 69.8587 40.6626 70.3083C40.7466 70.6901 40.8516 71.1482 40.9776 71.6827C41.112 72.2172 41.2674 72.811 41.4438 73.4643C41.4438 73.0061 41.4438 72.5183 41.4438 72.0008C41.4522 71.4833 41.4606 70.9701 41.469 70.461C41.4774 69.952 41.4858 69.4642 41.4942 68.9976C41.511 68.5225 41.5236 68.1026 41.532 67.7378C41.5488 67.373 41.5614 67.0803 41.5698 66.8597C41.5866 66.6391 41.5992 66.5204 41.6076 66.5034C41.6328 66.4695 41.7126 66.461 41.847 66.478C41.9814 66.4864 42.1284 66.5119 42.2881 66.5543C42.4477 66.5882 42.5905 66.6349 42.7165 66.6943C42.8509 66.7452 42.9265 66.7876 42.9433 66.8215Z" fill="white"/>
<path d="M48.9035 72.3444C48.9203 72.3699 48.9161 72.4547 48.8909 72.5989C48.8741 72.7431 48.8447 72.9001 48.8027 73.0698C48.7691 73.2394 48.7313 73.4006 48.6893 73.5533C48.6557 73.6976 48.6263 73.7824 48.6011 73.8079H48.4751C48.4499 73.8079 48.4247 73.8036 48.3994 73.7951C48.4415 74.2023 48.4751 74.529 48.5003 74.775C48.5255 75.021 48.5381 75.1568 48.5381 75.1822C48.5381 75.2416 48.5087 75.3264 48.4499 75.4367C48.3994 75.547 48.3406 75.6488 48.2734 75.7421C48.2062 75.8355 48.1348 75.9076 48.0592 75.9585C47.992 76.0178 47.9458 76.0221 47.9206 75.9712C47.8786 75.8948 47.7904 75.6658 47.656 75.284C47.5216 74.9022 47.3704 74.3805 47.2024 73.7188C47.0344 73.7018 46.858 73.6848 46.6731 73.6679C46.4967 73.6509 46.3161 73.6339 46.1313 73.617C45.9465 73.6 45.7617 73.5788 45.5769 73.5533C45.4005 73.5194 45.2282 73.4897 45.0602 73.4643C44.9762 73.8375 44.8922 74.1896 44.8082 74.5205C44.7326 74.8513 44.657 75.1398 44.5814 75.3858C44.5142 75.6318 44.4554 75.827 44.405 75.9712C44.3546 76.1154 44.3168 76.1875 44.2916 76.1875C44.2244 76.1875 44.1572 76.1451 44.09 76.0603C44.0228 75.9754 43.9598 75.8736 43.901 75.7549C43.8506 75.6361 43.8086 75.5131 43.775 75.3858C43.7414 75.2586 43.7245 75.1525 43.7245 75.0677C43.7414 74.8726 43.7624 74.6689 43.7876 74.4569C43.8212 74.2448 43.8464 74.0496 43.8632 73.8715C43.8884 73.6594 43.9136 73.4515 43.9388 73.2479H43.8884C43.8548 73.231 43.8086 73.1928 43.7498 73.1334C43.6909 73.074 43.6321 73.0146 43.5733 72.9552C43.5145 72.8874 43.4641 72.8237 43.4221 72.7644C43.3801 72.6965 43.3591 72.6456 43.3591 72.6117C43.3591 72.5947 43.4179 72.5777 43.5355 72.5608C43.6615 72.5438 43.8254 72.5268 44.027 72.5098C44.0942 72.0008 44.1656 71.4706 44.2412 70.9192C44.3168 70.3677 44.3924 69.8502 44.468 69.3666C44.5436 68.8831 44.615 68.4631 44.6822 68.1068C44.7578 67.742 44.8208 67.4918 44.8712 67.356C44.9552 67.127 45.1022 66.9233 45.3123 66.7452C45.5223 66.5585 45.7407 66.4058 45.9675 66.2871C46.2027 66.1598 46.4253 66.0623 46.6353 65.9944C46.8453 65.9265 47.0008 65.8926 47.1016 65.8926C47.1436 65.8926 47.1898 65.9901 47.2402 66.1853C47.299 66.3719 47.3578 66.6264 47.4166 66.9488C47.4838 67.2712 47.551 67.6487 47.6182 68.0814C47.6938 68.5056 47.7652 68.9552 47.8324 69.4303C47.8996 69.9054 47.9626 70.3932 48.0214 70.8937C48.0886 71.3858 48.1516 71.8566 48.2104 72.3062C48.6305 72.3062 48.8615 72.319 48.9035 72.3444ZM45.2997 72.4208C45.5685 72.4038 45.8373 72.3911 46.1061 72.3826C46.3749 72.3741 46.6395 72.3614 46.9 72.3444C46.8327 72.0136 46.7571 71.6445 46.6731 71.2373C46.6059 70.8895 46.5261 70.4822 46.4337 70.0156C46.3413 69.549 46.2489 69.0358 46.1565 68.4759C46.0557 68.9764 45.9549 69.4642 45.8541 69.9393C45.7533 70.4059 45.6609 70.8258 45.5769 71.1991C45.4845 71.6318 45.3921 72.039 45.2997 72.4208Z" fill="white"/>
<path d="M55.8717 66.3507C55.8969 66.3931 55.9095 66.4907 55.9095 66.6434C55.9179 66.7961 55.9137 66.9615 55.8969 67.1397C55.8801 67.3178 55.8549 67.4918 55.8213 67.6614C55.7961 67.8226 55.7667 67.9287 55.7331 67.9796C55.7079 68.022 55.5525 68.0389 55.2669 68.0305C54.9897 68.0135 54.5906 67.9711 54.0698 67.9032C54.0698 68.2341 54.0656 68.6583 54.0572 69.1758C54.0488 69.6933 54.032 70.2489 54.0068 70.8428C53.99 71.4282 53.969 72.0178 53.9438 72.6117C53.927 73.2055 53.906 73.7442 53.8808 74.2278C53.8556 74.7114 53.8304 75.1059 53.8052 75.4113C53.78 75.7167 53.759 75.8779 53.7422 75.8948C53.7086 75.9203 53.6498 75.9076 53.5658 75.8567C53.4902 75.8142 53.4104 75.7506 53.3264 75.6658C53.2424 75.5809 53.1626 75.4961 53.0869 75.4113C53.0197 75.3179 52.9735 75.2374 52.9483 75.1695C52.9399 75.1355 52.9231 74.9701 52.8979 74.6732C52.8811 74.3763 52.8601 74.003 52.8349 73.5533C52.8097 73.1037 52.7803 72.6032 52.7467 72.0517C52.7131 71.5003 52.6795 70.9531 52.6459 70.4101C52.6123 69.8672 52.5745 69.3582 52.5325 68.8831C52.4989 68.408 52.4695 68.0135 52.4443 67.6996C51.8731 67.6402 51.4614 67.5808 51.2094 67.5214C50.9574 67.4621 50.8146 67.4154 50.781 67.3815C50.7474 67.3475 50.7138 67.2839 50.6802 67.1906C50.6382 67.0888 50.6046 66.987 50.5794 66.8852C50.5542 66.7834 50.5416 66.69 50.5416 66.6052C50.5332 66.5119 50.5416 66.4525 50.5668 66.427C50.5836 66.4101 50.7264 66.3931 50.9952 66.3761C51.2556 66.3592 51.5791 66.3422 51.9655 66.3252C52.3519 66.3083 52.7677 66.2956 53.213 66.2871C53.6666 66.2786 54.0866 66.2743 54.473 66.2743C54.8595 66.2743 55.1829 66.2828 55.4433 66.2998C55.7121 66.3083 55.8549 66.3252 55.8717 66.3507Z" fill="white"/>
<path d="M60.345 67.6614C60.387 67.7123 60.429 67.8566 60.471 68.0941C60.513 68.3316 60.5424 68.5904 60.5592 68.8703C60.5844 69.1503 60.5928 69.4133 60.5844 69.6593C60.5844 69.9054 60.5634 70.0665 60.5214 70.1429C60.4878 70.1938 60.4038 70.2871 60.2694 70.4229C60.135 70.5501 59.9796 70.6943 59.8032 70.8555C59.6268 71.0167 59.442 71.1779 59.2487 71.3391C59.0639 71.4918 58.9001 71.6233 58.7573 71.7336C58.8245 71.8693 58.9085 72.0475 59.0093 72.2681C59.1101 72.4802 59.2193 72.7092 59.3369 72.9552C59.4546 73.1928 59.568 73.4388 59.6772 73.6933C59.7948 73.9478 59.8998 74.1811 59.9922 74.3932C60.0846 74.5968 60.1602 74.7707 60.219 74.915C60.2778 75.0507 60.3072 75.1313 60.3072 75.1568C60.3072 75.1992 60.2862 75.2586 60.2442 75.3349C60.2106 75.4113 60.1644 75.4834 60.1056 75.5512C60.0468 75.6106 59.9838 75.6615 59.9166 75.704C59.8494 75.7464 59.7864 75.7549 59.7276 75.7294C59.694 75.7209 59.631 75.6531 59.5386 75.5258C59.4462 75.3901 59.3327 75.2246 59.1983 75.0295C59.0723 74.8259 58.9295 74.5968 58.7699 74.3423C58.6187 74.0878 58.4633 73.8333 58.3037 73.5788C58.1441 73.3158 57.9929 73.0655 57.8501 72.828C57.7072 72.582 57.5812 72.3656 57.472 72.179C57.4552 73.0613 57.4342 73.74 57.409 74.2151C57.3922 74.6902 57.3796 75.038 57.3712 75.2586C57.3544 75.5216 57.3376 75.67 57.3208 75.704C57.2956 75.704 57.241 75.67 57.157 75.6021C57.073 75.5258 56.9848 75.4367 56.8924 75.3349C56.8 75.2331 56.7118 75.1313 56.6278 75.0295C56.5522 74.9277 56.506 74.8513 56.4892 74.8004C56.4724 74.6902 56.4472 74.372 56.4136 73.846C56.3968 73.617 56.38 73.3328 56.3632 72.9934C56.3464 72.6541 56.3254 72.2426 56.3002 71.759C56.2834 71.2755 56.2582 70.7071 56.2245 70.0538C56.1909 69.4006 56.1573 68.6498 56.1237 67.8014C55.9725 67.7929 55.8507 67.7929 55.7583 67.8014C55.6659 67.8014 55.5945 67.8056 55.5441 67.8141C55.4937 67.8226 55.4559 67.8269 55.4307 67.8269C55.4055 67.8184 55.3845 67.7972 55.3677 67.7632C55.3341 67.6954 55.3089 67.5808 55.2921 67.4196C55.2753 67.25 55.2669 67.0888 55.2669 66.9361C55.2669 66.7664 55.2921 66.5967 55.3425 66.427C55.3845 66.2574 55.4391 66.1513 55.5063 66.1089C55.5399 66.0835 55.6575 66.0877 55.8591 66.1216C56.0607 66.1471 56.2834 66.181 56.527 66.2234C56.7706 66.2659 57.0016 66.3125 57.22 66.3634C57.4468 66.4143 57.5938 66.4483 57.661 66.4652C57.7198 66.4822 57.8165 66.5119 57.9509 66.5543C58.0853 66.5882 58.2407 66.6391 58.4171 66.707C58.5935 66.7664 58.7783 66.8343 58.9715 66.9106C59.1731 66.987 59.3622 67.0676 59.5386 67.1524C59.715 67.2372 59.8746 67.3221 60.0174 67.4069C60.1602 67.4918 60.2694 67.5766 60.345 67.6614ZM57.5098 71.25C57.5854 71.2076 57.6862 71.127 57.8123 71.0082C57.9383 70.881 58.0727 70.741 58.2155 70.5883C58.3667 70.4271 58.5179 70.2617 58.6691 70.092C58.8203 69.9138 58.9547 69.7484 59.0723 69.5957C59.1983 69.443 59.2991 69.3115 59.3748 69.2012C59.4504 69.0909 59.4882 69.0188 59.4882 68.9849C59.4882 68.9255 59.4336 68.8576 59.3243 68.7813C59.2235 68.6964 59.0891 68.6116 58.9211 68.5268C58.7531 68.4419 58.5557 68.3613 58.3289 68.285C58.1021 68.2001 57.8711 68.128 57.6358 68.0686L57.5098 71.25Z" fill="white"/>
<path d="M66.3934 72.3444C66.4102 72.3699 66.406 72.4547 66.3808 72.5989C66.364 72.7431 66.3346 72.9001 66.2926 73.0698C66.259 73.2394 66.2212 73.4006 66.1792 73.5533C66.1456 73.6976 66.1162 73.7824 66.091 73.8079H65.965C65.9398 73.8079 65.9146 73.8036 65.8894 73.7951C65.9314 74.2023 65.965 74.529 65.9902 74.775C66.0154 75.021 66.028 75.1568 66.028 75.1822C66.028 75.2416 65.9986 75.3264 65.9398 75.4367C65.8894 75.547 65.8306 75.6488 65.7634 75.7421C65.6962 75.8355 65.6248 75.9076 65.5491 75.9585C65.4819 76.0178 65.4357 76.0221 65.4105 75.9712C65.3685 75.8948 65.2803 75.6658 65.1459 75.284C65.0115 74.9022 64.8603 74.3805 64.6923 73.7188C64.5243 73.7018 64.3479 73.6848 64.1631 73.6679C63.9866 73.6509 63.806 73.6339 63.6212 73.617C63.4364 73.6 63.2516 73.5788 63.0668 73.5533C62.8904 73.5194 62.7182 73.4897 62.5502 73.4643C62.4661 73.8375 62.3821 74.1896 62.2981 74.5205C62.2225 74.8513 62.1469 75.1398 62.0713 75.3858C62.0041 75.6318 61.9453 75.827 61.8949 75.9712C61.8445 76.1154 61.8067 76.1875 61.7815 76.1875C61.7143 76.1875 61.6471 76.1451 61.5799 76.0603C61.5127 75.9754 61.4497 75.8736 61.3909 75.7549C61.3405 75.6361 61.2985 75.5131 61.2649 75.3858C61.2313 75.2586 61.2145 75.1525 61.2145 75.0677C61.2313 74.8726 61.2523 74.6689 61.2775 74.4569C61.3111 74.2448 61.3363 74.0496 61.3531 73.8715C61.3783 73.6594 61.4035 73.4515 61.4287 73.2479H61.3783C61.3447 73.231 61.2985 73.1928 61.2397 73.1334C61.1809 73.074 61.1221 73.0146 61.0633 72.9552C61.0045 72.8874 60.9541 72.8237 60.912 72.7644C60.87 72.6965 60.849 72.6456 60.849 72.6117C60.849 72.5947 60.9078 72.5777 61.0255 72.5608C61.1515 72.5438 61.3153 72.5268 61.5169 72.5098C61.5841 72.0008 61.6555 71.4706 61.7311 70.9192C61.8067 70.3677 61.8823 69.8502 61.9579 69.3666C62.0335 68.8831 62.1049 68.4631 62.1721 68.1068C62.2477 67.742 62.3107 67.4918 62.3611 67.356C62.4451 67.127 62.5922 66.9233 62.8022 66.7452C63.0122 66.5585 63.2306 66.4058 63.4574 66.2871C63.6926 66.1598 63.9152 66.0623 64.1253 65.9944C64.3353 65.9265 64.4907 65.8926 64.5915 65.8926C64.6335 65.8926 64.6797 65.9901 64.7301 66.1853C64.7889 66.3719 64.8477 66.6264 64.9065 66.9488C64.9737 67.2712 65.0409 67.6487 65.1081 68.0814C65.1837 68.5056 65.2551 68.9552 65.3223 69.4303C65.3895 69.9054 65.4525 70.3932 65.5113 70.8937C65.5785 71.3858 65.6416 71.8566 65.7004 72.3062C66.1204 72.3062 66.3514 72.319 66.3934 72.3444ZM62.7896 72.4208C63.0584 72.4038 63.3272 72.3911 63.596 72.3826C63.8648 72.3741 64.1295 72.3614 64.3899 72.3444C64.3227 72.0136 64.2471 71.6445 64.1631 71.2373C64.0959 70.8895 64.016 70.4822 63.9236 70.0156C63.8312 69.549 63.7388 69.0358 63.6464 68.4759C63.5456 68.9764 63.4448 69.4642 63.344 69.9393C63.2432 70.4059 63.1508 70.8258 63.0668 71.1991C62.9744 71.6318 62.882 72.039 62.7896 72.4208Z" fill="white"/>
<path d="M68.2205 71.7718C68.2205 71.8821 68.2163 72.056 68.2079 72.2935C68.2079 72.5311 68.2037 72.7983 68.1953 73.0952C68.1869 73.3922 68.1743 73.7018 68.1575 74.0242C68.1491 74.3381 68.1323 74.6265 68.1071 74.8895C68.0819 75.144 68.0525 75.3561 68.0189 75.5258C67.9937 75.6955 67.9601 75.7803 67.9181 75.7803C67.7921 75.7803 67.6703 75.6912 67.5527 75.5131C67.4435 75.3264 67.3301 75.1271 67.2125 74.915C67.1873 74.8641 67.1578 74.7156 67.1242 74.4696C67.099 74.2151 67.0696 73.8969 67.036 73.5152C67.0108 73.1334 66.9856 72.7092 66.9604 72.2426C66.9352 71.776 66.91 71.3009 66.8848 70.8174C66.8596 70.3338 66.8386 69.8587 66.8218 69.3921C66.8134 68.9255 66.805 68.5056 66.7966 68.1323C66.7882 67.759 66.7882 67.4493 66.7966 67.2033C66.805 66.9488 66.8218 66.8003 66.847 66.7579C66.8806 66.6985 66.9982 66.6561 67.1999 66.6307C67.4015 66.5967 67.6451 66.5798 67.9307 66.5798C68.2247 66.5798 68.5397 66.5882 68.8758 66.6052C69.2118 66.6222 69.5226 66.6476 69.8082 66.6816C70.1022 66.707 70.3459 66.7367 70.5391 66.7706C70.7407 66.8046 70.8541 66.8343 70.8793 66.8597C70.9129 66.8937 70.9171 66.987 70.8919 67.1397C70.8751 67.2839 70.8415 67.4451 70.7911 67.6232C70.7491 67.7929 70.6945 67.9541 70.6273 68.1068C70.5685 68.2595 70.5181 68.3571 70.4761 68.3995C70.4341 68.4419 70.2366 68.4377 69.8838 68.3868C69.5394 68.3359 68.985 68.2765 68.2205 68.2086V70.3338C68.8086 70.3847 69.2664 70.4313 69.594 70.4738C69.93 70.5162 70.1064 70.5459 70.1232 70.5628C70.1568 70.5968 70.1694 70.6646 70.161 70.7665C70.1526 70.8683 70.1316 70.9785 70.098 71.0973C70.0644 71.2076 70.0224 71.3136 69.972 71.4155C69.9216 71.5088 69.8712 71.5724 69.8208 71.6063C69.7956 71.6233 69.6444 71.6488 69.3672 71.6827C69.0984 71.7166 68.7161 71.7463 68.2205 71.7718Z" fill="white"/>
<path d="M72.2024 71.7718C72.2024 71.8821 72.1982 72.056 72.1898 72.2935C72.1898 72.5311 72.1856 72.7983 72.1772 73.0952C72.1688 73.3922 72.1562 73.7018 72.1394 74.0242C72.131 74.3381 72.1142 74.6265 72.089 74.8895C72.0638 75.144 72.0344 75.3561 72.0008 75.5258C71.9756 75.6955 71.942 75.7803 71.9 75.7803C71.7739 75.7803 71.6521 75.6912 71.5345 75.5131C71.4253 75.3264 71.3119 75.1271 71.1943 74.915C71.1691 74.8641 71.1397 74.7156 71.1061 74.4696C71.0809 74.2151 71.0515 73.8969 71.0179 73.5152C70.9927 73.1334 70.9675 72.7092 70.9423 72.2426C70.9171 71.776 70.8919 71.3009 70.8667 70.8174C70.8415 70.3338 70.8205 69.8587 70.8037 69.3921C70.7953 68.9255 70.7869 68.5056 70.7785 68.1323C70.7701 67.759 70.7701 67.4493 70.7785 67.2033C70.7869 66.9488 70.8037 66.8003 70.8289 66.7579C70.8625 66.6985 70.9801 66.6561 71.1817 66.6307C71.3833 66.5967 71.6269 66.5798 71.9126 66.5798C72.2066 66.5798 72.5216 66.5882 72.8576 66.6052C73.1936 66.6222 73.5045 66.6476 73.7901 66.6816C74.0841 66.707 74.3277 66.7367 74.5209 66.7706C74.7225 66.8046 74.8359 66.8343 74.8611 66.8597C74.8947 66.8937 74.8989 66.987 74.8737 67.1397C74.8569 67.2839 74.8233 67.4451 74.7729 67.6232C74.7309 67.7929 74.6763 67.9541 74.6091 68.1068C74.5503 68.2595 74.4999 68.3571 74.4579 68.3995C74.4159 68.4419 74.2185 68.4377 73.8657 68.3868C73.5213 68.3359 72.9668 68.2765 72.2024 68.2086V70.3338C72.7904 70.3847 73.2482 70.4313 73.5759 70.4738C73.9119 70.5162 74.0883 70.5459 74.1051 70.5628C74.1387 70.5968 74.1513 70.6646 74.1429 70.7665C74.1345 70.8683 74.1135 70.9785 74.0799 71.0973C74.0463 71.2076 74.0043 71.3136 73.9539 71.4155C73.9035 71.5088 73.8531 71.5724 73.8027 71.6063C73.7775 71.6233 73.6263 71.6488 73.349 71.6827C73.0802 71.7166 72.698 71.7463 72.2024 71.7718Z" fill="white"/>
<path d="M78.0113 67.8269C77.8685 67.8353 77.7257 67.8396 77.5829 67.8396C77.4485 67.8311 77.3225 67.8269 77.2049 67.8269C77.0705 67.8269 76.9445 67.8226 76.8269 67.8141C76.8437 68.2638 76.8479 68.7898 76.8395 69.3921C76.8395 69.986 76.8311 70.5968 76.8143 71.2246C76.8059 71.8524 76.7891 72.4674 76.7639 73.0698C76.7471 73.6636 76.7261 74.1896 76.7009 74.6477C77.0201 74.6393 77.3015 74.6393 77.5451 74.6477C77.7887 74.6562 77.9189 74.6689 77.9357 74.6859C77.9525 74.7114 77.9525 74.7962 77.9357 74.9404C77.9189 75.0762 77.8937 75.2289 77.8601 75.3985C77.8265 75.5597 77.7929 75.7082 77.7593 75.8439C77.7257 75.9882 77.7005 76.0772 77.6837 76.1112C77.4485 76.1197 77.2301 76.1197 77.0285 76.1112C76.8353 76.1112 76.6673 76.1027 76.5245 76.0857C76.3564 76.0772 76.2052 76.0645 76.0708 76.0475C75.9364 76.0221 75.7936 75.9924 75.6424 75.9585C75.5164 75.9245 75.3694 75.8821 75.2014 75.8312C75.0418 75.7803 74.8779 75.7167 74.7099 75.6403C74.6763 75.6234 74.6343 75.5767 74.5839 75.5003C74.5419 75.424 74.4957 75.3434 74.4453 75.2586C74.4033 75.1652 74.3697 75.0762 74.3445 74.9913C74.3109 74.9065 74.2941 74.8471 74.2941 74.8132C74.2941 74.8047 74.3319 74.7962 74.4075 74.7877C74.4831 74.7707 74.5881 74.758 74.7225 74.7495C74.8569 74.7326 75.0082 74.7198 75.1762 74.7114C75.3442 74.6944 75.5248 74.6817 75.718 74.6732C75.7012 74.4272 75.676 74.1048 75.6424 73.706C75.6172 73.2988 75.5878 72.8619 75.5542 72.3953C75.529 71.9202 75.4996 71.4367 75.466 70.9446C75.4408 70.4441 75.4198 69.9817 75.403 69.5575C75.3862 69.1249 75.3778 68.7473 75.3778 68.425C75.3778 68.1026 75.3904 67.8778 75.4156 67.7505C75.424 67.7335 75.4282 67.7208 75.4282 67.7123C75.4282 67.6954 75.4324 67.6784 75.4408 67.6614L75.088 67.5723C74.9872 67.5469 74.8779 67.5172 74.7603 67.4833C74.6427 67.4493 74.5251 67.4112 74.4075 67.3687C74.3739 67.3518 74.3319 67.3051 74.2815 67.2288C74.2227 67.1524 74.1681 67.0676 74.1177 66.9742C74.0589 66.8809 74.0127 66.7961 73.9791 66.7197C73.9371 66.6349 73.9161 66.5755 73.9161 66.5416C73.9161 66.5246 74.0253 66.5076 74.2437 66.4907C74.4537 66.4652 74.7183 66.444 75.0376 66.427C75.3568 66.4101 75.7012 66.3974 76.0708 66.3889C76.4488 66.3804 76.7975 66.3761 77.1167 66.3761C77.4443 66.3761 77.7173 66.3804 77.9357 66.3889C78.1626 66.3889 78.2844 66.3974 78.3012 66.4143C78.3264 66.4398 78.3264 66.5246 78.3012 66.6688C78.2844 66.8046 78.255 66.9573 78.213 67.127C78.1794 67.2881 78.1416 67.4408 78.0996 67.5851C78.0659 67.7208 78.0365 67.8014 78.0113 67.8269Z" fill="white"/>
<path d="M80.9221 67.3815C80.9053 67.356 80.8759 67.3306 80.8339 67.3051C80.8003 67.2797 80.7583 67.2585 80.7079 67.2415C80.6575 67.2245 80.6071 67.2203 80.5567 67.2288C80.5147 67.2288 80.4811 67.2457 80.4559 67.2797C80.4307 67.3221 80.3845 67.4833 80.3173 67.7632C80.2585 68.0347 80.1955 68.3741 80.1283 68.7813C80.0611 69.1885 80.0023 69.6424 79.9519 70.1429C79.9015 70.6434 79.8763 71.1397 79.8763 71.6318C79.8763 71.9881 79.8889 72.3614 79.9141 72.7516C79.9393 73.1334 79.9687 73.4855 80.0023 73.8079C80.0443 74.1302 80.0905 74.3975 80.1409 74.6096C80.1997 74.8132 80.2585 74.915 80.3173 74.915C80.3761 74.9235 80.4559 74.8598 80.5567 74.7241C80.6575 74.5884 80.7541 74.4356 80.8465 74.266C80.9389 74.0878 81.0229 73.9181 81.0985 73.7569C81.1825 73.5873 81.2372 73.4727 81.2624 73.4134C81.296 73.32 81.3422 73.2182 81.401 73.1079C81.4598 72.9892 81.5186 72.8831 81.5774 72.7898C81.6362 72.688 81.695 72.6074 81.7538 72.548C81.8126 72.4802 81.863 72.4462 81.905 72.4462C81.9554 72.4462 81.9974 72.4971 82.031 72.5989C82.073 72.7007 82.1024 72.8237 82.1192 72.968C82.1444 73.1037 82.1612 73.2479 82.1696 73.4006C82.178 73.5449 82.1822 73.6636 82.1822 73.7569C82.1822 73.9266 82.1486 74.1387 82.0814 74.3932C82.0226 74.6477 81.9428 74.8938 81.842 75.1313C81.7496 75.3688 81.6446 75.5725 81.527 75.7421C81.4178 75.9118 81.3128 75.9924 81.212 75.9839C81.1111 75.9754 80.9473 75.916 80.7205 75.8058C80.5021 75.6955 80.2753 75.5682 80.0401 75.424C79.8049 75.2798 79.5906 75.1355 79.3974 74.9913C79.2042 74.8471 79.0908 74.7326 79.0572 74.6477C79.0152 74.5714 78.9522 74.389 78.8682 74.1005C78.7926 73.8036 78.7128 73.4473 78.6288 73.0316C78.5448 72.6159 78.4692 72.1578 78.402 71.6572C78.3432 71.1567 78.3138 70.6519 78.3138 70.1429C78.3138 69.6339 78.318 69.1333 78.3264 68.6413C78.3348 68.1408 78.3516 67.6954 78.3768 67.3051C78.4104 66.9149 78.4608 66.601 78.528 66.3634C78.5952 66.1174 78.6876 65.9859 78.8052 65.9689C79.0404 65.9435 79.2966 65.9604 79.5738 66.0198C79.8511 66.0707 80.1283 66.1513 80.4055 66.2616C80.6827 66.3719 80.9473 66.4992 81.1993 66.6434C81.4598 66.7791 81.6908 66.9233 81.8924 67.0761C82.094 67.2203 82.2536 67.3603 82.3712 67.496C82.4972 67.6317 82.5644 67.7463 82.5728 67.8396C82.5812 67.9838 82.5644 68.145 82.5224 68.3232C82.4804 68.5013 82.43 68.6752 82.3712 68.8449C82.3124 69.0061 82.2494 69.1546 82.1822 69.2903C82.1234 69.4175 82.0772 69.5066 82.0436 69.5575C82.0016 69.6169 81.9512 69.6805 81.8924 69.7484C81.8336 69.8163 81.7706 69.8757 81.7034 69.9266C81.6446 69.9775 81.5816 70.0156 81.5144 70.0411C81.4556 70.0581 81.401 70.0453 81.3506 70.0029C81.317 69.9775 81.2834 69.8969 81.2498 69.7611C81.2246 69.6254 81.1951 69.4642 81.1615 69.2776C81.1363 69.0909 81.1111 68.8916 81.0859 68.6795C81.0607 68.4589 81.0355 68.2553 81.0103 68.0686C80.9935 67.882 80.9767 67.7251 80.9599 67.5978C80.9431 67.4705 80.9305 67.3984 80.9221 67.3815Z" fill="white"/>
<path d="M0 59.4538C0 58.5542 0.729269 57.825 1.62887 57.825H16.129V61.0827H1.62887C0.72927 61.0827 0 60.3534 0 59.4538Z" fill="white"/>
<path d="M17.7422 57.0105C18.1876 57.0105 18.5486 57.3716 18.5486 57.8169V61.0906C18.5486 61.536 18.1876 61.8971 17.7422 61.8971V57.0105Z" fill="white"/>
<path d="M16.129 57.0025C16.129 56.5571 16.4901 56.196 16.9355 56.196C17.3809 56.196 17.7419 56.5571 17.7419 57.0025V61.9051C17.7419 62.3504 17.3809 62.7115 16.9355 62.7115C16.4901 62.7115 16.129 62.3504 16.129 61.9051V57.0025Z" fill="white"/>
<path fill-rule="evenodd" clip-rule="evenodd" d="M43.5479 60.2683L18.5479 57.825H100L97.5806 58.6394H37.9028L93.1601 60.1275L90.3226 61.0827H16.9355V57.825H18.5479L18.5479 60.2683H43.5479Z" fill="white"/>
<path fill-rule="evenodd" clip-rule="evenodd" d="M47.2693 17.9547C45.6102 12.8789 48.2958 11.3409 49.9992 11.3409C51.7027 11.3409 54.3883 12.8789 52.7292 17.9547C54.0638 17.0645 54.7169 16.396 55.5917 14.6916C58.7309 15.0542 61.6383 17.29 62.7117 18.6798C62.5686 22.4504 59.0128 26.3539 57.2834 27.7437C66.6924 23.393 67.221 10.4013 65.9687 3.4523L66.0196 3.41564C61.123 1.21999 55.7023 0 49.9995 0C44.2966 0 38.8758 1.22005 33.9791 3.41579L34.0298 3.4523C32.7775 10.4013 33.3061 23.393 42.7151 27.7437C40.9857 26.3539 37.4299 22.4504 37.2868 18.6798C38.3602 17.29 41.2676 15.0542 44.4068 14.6916C45.2816 16.396 45.9347 17.0645 47.2693 17.9547ZM22.6185 11.133C24.1207 18.1376 27.4814 23.7148 31.5273 28.0277C28.3612 35.2271 24.8577 42.641 23.5691 44.0104C26.1308 45.7496 29.1377 48.1689 31.3715 50.2933C25.1324 51.2603 19.0732 52.7048 13.2414 54.5837C11.4615 50.0409 10.4834 45.0894 10.4834 39.9072C10.4834 28.6017 15.1385 18.3942 22.6185 11.133ZM68.3395 50.249C74.6801 51.216 80.8361 52.6759 86.7577 54.5837C88.5376 50.0409 89.5157 45.0894 89.5157 39.9072C89.5157 28.6015 84.8604 18.3938 77.3801 11.1325C75.8499 18.2682 72.391 23.9226 68.2437 28.268C68.5996 29.076 68.9585 29.8826 69.3194 30.6882C72.1341 36.9629 74.9661 42.8092 76.0959 44.0098C73.5517 45.7371 70.5684 48.1352 68.3395 50.249Z" fill="#FF5B65"/>
<path fill-rule="evenodd" clip-rule="evenodd" d="M49.9999 38.4228C45.1075 38.4228 38.9507 37.0721 37.6915 36.0752C38.7494 40.5284 44.3875 44.822 47.3831 42.5337C47.5499 42.4063 47.7263 42.2177 47.9201 42.0106C48.4396 41.4555 49.0836 40.7672 49.9999 40.7672C50.9163 40.7672 51.5603 41.4555 52.0798 42.0106C52.2735 42.2177 52.45 42.4063 52.6167 42.5337C55.6124 44.822 61.2505 40.5284 62.3084 36.0752C61.0491 37.0721 54.8924 38.4228 49.9999 38.4228Z" fill="white"/>
</svg>
