<svg width="200" height="100" viewBox="0 0 200 100" fill="none" xmlns="http://www.w3.org/2000/svg">
<path d="M69.5813 67.7656C70.7394 67.7656 71.6454 68.0372 72.2991 68.5803C72.9529 69.1231 73.2796 69.8733 73.2796 70.8304V70.9684C73.2796 71.9255 72.9529 72.6802 72.2991 73.2325C71.6454 73.7753 70.7394 74.0469 69.5813 74.0469H66.4153V76.8218H63.5996V67.7656H69.5813ZM69.5114 71.6448C70.109 71.6448 70.4079 71.4193 70.4079 70.9684V70.8304C70.4079 70.3887 70.109 70.1677 69.5114 70.1677H66.4153V71.6448H69.5114Z" fill="#A5B1CC"/>
<path d="M83.2463 76.4075V76.8218H80.5005L79.8981 75.3307H75.8638L75.2614 76.8218H72.5156V76.4075L76.3261 67.7656H79.4361L83.2463 76.4075ZM78.9596 73.0392L77.8811 70.4025L76.8023 73.0392H78.9596Z" fill="#A5B1CC"/>
<path d="M93.8441 70.9546C93.8441 71.6817 93.6247 72.2707 93.1858 72.7216C92.7562 73.1725 92.1304 73.4671 91.3086 73.6051L93.7882 76.4075V76.8218H90.6081L88.0025 73.7017H86.9797V76.8218H84.1641V67.7656H90.1458C91.2945 67.7656 92.1958 68.0372 92.8495 68.5803C93.5125 69.1231 93.8441 69.8686 93.8441 70.8165V70.9546ZM86.9797 71.6448H90.0758C90.6735 71.6448 90.9723 71.4193 90.9723 70.9684V70.8304C90.9723 70.3887 90.6735 70.1677 90.0758 70.1677H86.9797V71.6448Z" fill="#A5B1CC"/>
<path d="M94.3535 70.2507V67.7656H103.613V70.2507H100.391V76.8218H97.5754V70.2507H94.3535Z" fill="#A5B1CC"/>
<path d="M114.405 67.7656V76.8218H111.799L107.358 71.7001V76.8218H104.725V67.7656H107.344L111.771 72.8735V67.7656H114.405Z" fill="#A5B1CC"/>
<path d="M124.721 67.7656V70.1402H119.019V71.1203H124.44V73.4532H119.019V74.4472H124.721V76.8218H116.203V67.7656H124.721Z" fill="#A5B1CC"/>
<path d="M136.008 70.9546C136.008 71.6817 135.789 72.2707 135.35 72.7216C134.92 73.1725 134.294 73.4671 133.472 73.6051L135.952 76.4075V76.8218H132.772L130.167 73.7017H129.144V76.8218H126.328V67.7656H132.31C133.459 67.7656 134.36 68.0372 135.014 68.5803C135.677 69.1231 136.008 69.8686 136.008 70.8165V70.9546ZM129.144 71.6448H132.24C132.838 71.6448 133.136 71.4193 133.136 70.9684V70.8304C133.136 70.3887 132.838 70.1677 132.24 70.1677H129.144V71.6448Z" fill="#A5B1CC"/>
<path d="M142.094 77.0008C140.562 77.0008 139.39 76.7201 138.578 76.1587C137.775 75.5973 137.373 74.7829 137.373 73.7153V73.5773H140.105V73.7153C140.105 74.0282 140.287 74.272 140.651 74.4469C141.015 74.6127 141.529 74.6954 142.192 74.6954C143.397 74.6954 143.999 74.4975 143.999 74.1018V74.019C143.999 73.7705 143.696 73.6003 143.089 73.5082L140.497 73.1078C139.488 72.9514 138.737 72.666 138.242 72.252C137.747 71.8378 137.499 71.2857 137.499 70.5955V70.4572C137.499 69.5462 137.891 68.8421 138.676 68.3453C139.461 67.8391 140.562 67.5859 141.982 67.5859C143.486 67.5859 144.634 67.8575 145.428 68.4003C146.231 68.9342 146.633 69.7026 146.633 70.7057V70.8162H143.929V70.7057C143.929 70.4297 143.771 70.2273 143.453 70.0985C143.135 69.9605 142.645 69.8913 141.982 69.8913C140.861 69.8913 140.301 70.0571 140.301 70.3884V70.4711C140.301 70.5724 140.366 70.6599 140.497 70.7335C140.637 70.7979 140.866 70.8532 141.184 70.899L143.789 71.2994C144.826 71.456 145.596 71.7503 146.101 72.1829C146.605 72.6063 146.857 73.1769 146.857 73.8947V74.0329C146.857 74.9714 146.437 75.7031 145.596 76.2278C144.765 76.7432 143.598 77.0008 142.094 77.0008Z" fill="#A5B1CC"/>
<path d="M66.2081 41.3064C66.7391 38.7582 65.7832 36.9439 64.0519 35.7484C62.4693 34.7103 60.4724 34.553 58.3693 35.5911L49.5743 39.4921C47.365 40.4779 46.4196 43.0261 47.365 45.1549C48.3634 47.3362 50.8915 48.2695 53.1007 47.3362L54.2585 46.8119L52.368 56.9523C51.8367 60.0143 53.8442 62.5103 56.5847 63.0345C59.4846 63.5588 62.3204 61.6818 62.7985 58.8189L66.2081 41.3064Z" fill="#A5B1CC"/>
<path d="M146.253 34.9884C141.42 34.2964 136.534 37.0857 134.665 41.0288L134.983 39.3088C135.769 35.8273 134.303 34.894 131.776 34.894H128.514C125.413 34.894 124.723 36.5614 124.351 38.4806L120.559 59.2754C120.24 60.6804 120.453 63.1238 123.246 63.1238H127.771C130.458 63.1238 130.979 61.0476 131.35 59.0655L133.188 49.0822C133.613 46.7964 133.974 45.7058 134.771 44.8668C135.982 43.5141 138.403 42.8954 140.092 44.2479C141.091 45.0764 141.463 46.4817 141.197 48.4636L139.36 59.2754C138.956 61.6662 139.986 63.1238 141.994 63.1238H146.519C149.1 63.1238 149.62 61.1524 149.992 59.0655L152.647 45.5274C153.837 40.6512 152.095 35.8273 146.253 34.9884Z" fill="#A5B1CC"/>
<path d="M117.118 32.1929C119.998 32.1929 122.333 29.9112 122.333 27.0964C122.333 24.2819 119.998 22 117.118 22C114.237 22 111.902 24.2819 111.902 27.0964C111.902 29.9112 114.237 32.1929 117.118 32.1929Z" fill="#A5B1CC"/>
<path d="M117.436 59.0602C117.065 61.2415 116.438 63.1185 113.857 63.1185H109.279C107.069 63.1185 106.273 61.5036 106.698 59.3748L110.479 38.475C110.851 36.2414 111.849 34.8887 114.643 34.8887H118.116C121.069 34.8887 121.802 36.294 121.175 39.3035L117.436 59.0602Z" fill="#A5B1CC"/>
<path d="M67.1445 34.8887C68.3023 36.2414 69.6724 37.9089 68.9822 41.9565L67.1976 51.4785L67.5163 59.1231C67.5694 61.8809 68.9397 63.0766 71.2551 63.0766H77.1503C78.988 63.0766 79.7846 61.6713 80.5175 59.9095L84.9893 49.0455L85.4672 59.4378C85.5203 61.7239 86.6781 63.1289 88.8342 63.1289H95.526C97.4168 63.1289 98.2134 61.986 99.0525 59.962L107.635 39.1672C108.58 37.0385 108.007 34.9097 105.691 34.9097H101.421C99.8385 34.9097 98.7338 35.434 98.1072 36.9337L92.3076 50.8492L91.7767 38.4227C91.6703 35.7695 90.4063 34.8887 88.8767 34.8887H84.5111C82.7693 34.8887 81.7709 35.5599 81.2503 36.8601L75.4615 50.9017L74.9302 38.1081C74.8772 35.7172 74.038 34.8887 72.0836 34.8887H67.1445Z" fill="#A5B1CC"/>
</svg>
