<svg width="200" height="100" viewBox="0 0 200 100" fill="none" xmlns="http://www.w3.org/2000/svg">
<path d="M30 64.454H40.0405V67.3415H33.2964V70.2291H39.5339V73.1167H33.2964L33.2964 78.6482H30L30 64.454ZM42.8304 64.454H46.1268V78.6339H42.8304V64.454ZM49.5971 64.454H54.0806L60.4391 74.3061H60.4844V64.454L63.7809 64.454L63.7809 78.6339H59.4713L52.9389 68.5381H52.8936V78.6339H49.5971V64.454ZM67.289 64.454H72.279L75.7266 73.7042H75.772L79.2348 64.454H84.2021V78.6339H80.9057V67.7643H80.8603L76.9288 78.641H74.4111L70.6308 67.7643H70.5854V78.641H67.289V64.454ZM87.6648 64.454H90.9613V78.6339H87.6648V64.454ZM94.424 64.454H98.9075L105.266 74.3061H105.311V64.454H108.608V78.6339H104.298L97.7658 68.5381H97.7205V78.6339H94.424V64.454ZM112.078 64.454H115.375V78.6339H112.078V64.454ZM126.239 67.9219C125.975 67.5995 125.612 67.363 125.15 67.2126C124.689 67.0621 124.258 66.9833 123.85 66.9833C123.608 66.9833 123.366 67.0119 123.109 67.0621C122.852 67.1122 122.618 67.1982 122.391 67.3129C122.164 67.4275 121.983 67.578 121.839 67.7643C121.695 67.9506 121.627 68.1799 121.627 68.445C121.627 68.8749 121.793 69.1973 122.134 69.4266C122.474 69.6559 122.897 69.8493 123.411 70.007C123.926 70.1646 124.478 70.3294 125.067 70.487C125.657 70.6447 126.209 70.874 126.723 71.1677C127.237 71.4615 127.661 71.8556 128.001 72.35C128.341 72.8444 128.507 73.5036 128.507 74.3347C128.507 75.1229 128.349 75.8108 128.039 76.3983C127.729 76.9859 127.313 77.4731 126.783 77.86C126.254 78.2469 125.642 78.5335 124.946 78.7198C124.251 78.9061 123.51 78.9993 122.739 78.9993C121.763 78.9993 120.864 78.856 120.032 78.5765C119.2 78.2971 118.429 77.8457 117.711 77.2151L120.055 74.7718C120.395 75.2017 120.818 75.5313 121.332 75.7606C121.846 75.9971 122.376 76.1117 122.928 76.1117C123.192 76.1117 123.464 76.083 123.744 76.0186C124.016 75.9612 124.266 75.8681 124.485 75.7463C124.704 75.6245 124.878 75.474 125.014 75.2877C125.15 75.1014 125.218 74.8793 125.218 74.6285C125.218 74.1986 125.045 73.8618 124.704 73.6182C124.357 73.3746 123.926 73.1597 123.404 72.9877C122.882 72.8157 122.323 72.6438 121.71 72.4646C121.105 72.2927 120.538 72.0562 120.017 71.7624C119.495 71.4687 119.064 71.0818 118.716 70.6017C118.369 70.1216 118.202 69.4839 118.202 68.6957C118.202 67.9362 118.361 67.2699 118.679 66.6895C118.996 66.1163 119.419 65.6362 119.949 65.2493C120.478 64.8624 121.083 64.5686 121.778 64.3751C122.466 64.196 123.177 64.0957 123.91 64.0957C124.757 64.0957 125.574 64.2103 126.36 64.4396C127.146 64.6689 127.857 65.0487 128.492 65.5789L126.239 67.9219ZM134.337 67.2197H130.065V64.454H141.897V67.2197H137.625V78.6339H134.337V67.2197ZM144.037 64.454H149.828C150.592 64.454 151.31 64.5256 151.998 64.6618C152.679 64.8051 153.283 65.0343 153.798 65.3639C154.312 65.6935 154.72 66.1306 155.022 66.6823C155.325 67.2341 155.476 67.9291 155.476 68.7531C155.476 69.7562 155.204 70.6088 154.652 71.3039C154.1 72.0061 153.299 72.4503 152.24 72.6366L156.043 78.6267H152.089L148.959 72.959H147.333V78.6267H144.037V64.454ZM147.333 70.3222H149.276C149.571 70.3222 149.889 70.3151 150.214 70.2936C150.547 70.2721 150.841 70.2148 151.114 70.1145C151.378 70.0141 151.605 69.8565 151.779 69.6416C151.953 69.4266 152.044 69.1257 152.044 68.7387C152.044 68.3805 151.968 68.0939 151.809 67.8789C151.658 67.664 151.454 67.4992 151.219 67.3917C150.977 67.277 150.705 67.1982 150.395 67.1624C150.085 67.1266 149.783 67.1051 149.488 67.1051H147.333V70.3222ZM161.094 72.5864L155.468 64.454H159.566L162.734 69.7634L166.091 64.454H170L164.375 72.5864V78.6339H161.078V72.5864H161.094Z" fill="#A5B1CC"/>
<path d="M106.021 42.0844C106.138 41.4449 106.197 40.7684 106.197 40.0733C106.197 35.2633 103.238 31.6581 100.074 31.6581C96.9096 31.6581 93.9505 35.2633 93.9505 40.0733C93.9505 40.7591 94.0091 41.4171 94.1263 42.0474C94.3216 42.9649 94.7416 43.4746 95.3666 43.5858C96.6166 43.8083 98.355 43.6136 99.2729 41.9083C99.2827 41.8898 99.2925 41.8713 99.3022 41.8527C99.3999 41.5932 99.3901 41.4171 99.2632 41.3152C99.0679 41.1298 98.7358 41.1669 98.2475 41.4264L97.2905 41.9639C97.1733 42.0288 97.017 41.9918 96.9389 41.8805C96.9194 41.8435 96.8998 41.7971 96.8998 41.7601V39.4616C96.8998 39.3319 97.017 39.2207 97.1537 39.2207C97.2026 39.2207 97.2416 39.2299 97.2807 39.2577L98.3843 39.8787C98.7847 40.0733 99.0776 40.0826 99.2437 39.9157C99.4097 39.7767 99.3706 39.4802 99.1069 39.026L98.521 38.0807C98.4526 37.9695 98.4917 37.8212 98.6089 37.7471C98.6479 37.7285 98.6968 37.71 98.7358 37.71H101.158C101.294 37.71 101.412 37.8212 101.412 37.951C101.412 37.9973 101.402 38.0344 101.373 38.0714L100.816 38.9704C100.533 39.4524 100.484 39.7582 100.66 39.9065C100.845 40.0826 101.158 40.064 101.607 39.8231L102.632 39.2485C102.671 39.2299 102.72 39.2114 102.759 39.2114C102.896 39.2114 103.013 39.3226 103.013 39.4524V41.7508C103.013 41.7971 103.004 41.8342 102.974 41.8713C102.906 41.9825 102.75 42.0288 102.623 41.9547L101.509 41.3337C101.119 41.1484 100.845 41.1484 100.669 41.3059C100.543 41.4171 100.533 41.6118 100.66 41.9083C101.568 43.5951 103.306 43.799 104.556 43.5673C105.211 43.4746 105.689 42.9741 106.021 42.0844ZM100.103 44.318V44.8555C99.4683 44.8555 98.9507 45.3467 98.9507 45.9491C98.9507 46.5515 99.4683 47.0427 100.103 47.0427V48.0993C97.9546 48.09 95.8549 48.1364 93.804 48.2383C91.597 48.3403 89.4289 48.5441 87.2902 48.8222C87.007 48.8593 86.7531 48.6739 86.714 48.4144C86.714 48.3959 86.7042 48.3681 86.7042 48.3495V44.9945C86.7042 44.9853 86.7042 44.976 86.7042 44.9667C85.9034 44.1975 85.1905 43.3078 84.5753 42.3069C81.5088 37.2651 82.3877 31.343 86.5382 29.0723C89.175 27.6265 92.5052 28.0065 95.3666 29.7767C96.7631 28.8314 98.3647 28.2938 100.074 28.2938C101.793 28.2938 103.404 28.8406 104.8 29.786C107.623 28.1085 110.865 27.7748 113.453 29.1928C117.604 31.4634 118.482 37.3949 115.416 42.4273C114.859 43.3541 114.195 44.179 113.482 44.9019C113.492 44.9297 113.492 44.9667 113.492 44.9945V48.3495C113.492 48.3681 113.492 48.3959 113.482 48.4144C113.443 48.6832 113.189 48.8593 112.906 48.8222C110.767 48.5349 108.599 48.3403 106.392 48.2383C104.332 48.1364 102.232 48.09 100.093 48.0993V47.0427C100.728 47.0427 101.246 46.5515 101.246 45.9491C101.246 45.3467 100.728 44.8555 100.093 44.8555V44.318H100.103ZM100.074 27.2929C98.2378 27.2929 96.7533 25.8842 96.7533 24.1418C96.7533 22.3995 98.2475 21 100.074 21C101.91 21 103.394 22.4087 103.394 24.1511C103.394 25.8934 101.91 27.2929 100.074 27.2929ZM107.359 32.2697C108.863 34.3457 109.771 37.0798 109.771 40.064C109.771 41.3893 109.596 42.6683 109.263 43.8546C110.406 43.141 111.49 42.0844 112.33 40.7035C114.488 37.1539 113.922 33.3263 111.676 32.0937C110.494 31.4542 108.912 31.5376 107.359 32.2697ZM92.8177 32.2419C91.2063 31.4264 89.5363 31.3152 88.3254 31.9824C86.0792 33.2151 85.5128 37.0334 87.6711 40.5923C88.55 42.0288 89.6926 43.1224 90.884 43.8361C90.5618 42.6498 90.386 41.3801 90.386 40.064C90.386 37.0612 91.304 34.3179 92.8177 32.2419ZM87.8566 50.546C89.8196 50.3606 91.802 50.2309 93.8236 50.1568C95.8744 50.0826 97.9643 50.0455 100.103 50.0548V53.3264C97.9546 53.3171 95.8549 53.3542 93.804 53.4283C91.8802 53.5025 89.9856 53.6229 88.1105 53.7898C87.4074 53.8546 86.7824 53.3634 86.714 52.7054C86.714 52.6684 86.7042 52.6313 86.7042 52.5849V51.7508C86.7042 51.1299 87.2023 50.6109 87.8566 50.546ZM92.4466 47.0242C93.013 47.0242 93.472 46.5886 93.472 46.0511C93.472 45.5135 93.013 45.078 92.4466 45.078C91.8802 45.078 91.4212 45.5135 91.4212 46.0511C91.4212 46.5886 91.8802 47.0242 92.4466 47.0242ZM88.8039 47.2744C89.3313 47.2744 89.761 46.8667 89.761 46.3662C89.761 45.8657 89.3313 45.4579 88.8039 45.4579C88.2765 45.4579 87.8468 45.8657 87.8468 46.3662C87.8468 46.8667 88.2765 47.2744 88.8039 47.2744ZM96.1479 46.9037C96.7143 46.9037 97.1733 46.4681 97.1733 45.9306C97.1733 45.3931 96.7143 44.9575 96.1479 44.9575C95.5814 44.9575 95.1224 45.3931 95.1224 45.9306C95.1224 46.4681 95.5814 46.9037 96.1479 46.9037ZM112.34 50.546C112.994 50.6109 113.492 51.1299 113.492 51.7508V52.5849C113.492 52.622 113.492 52.6591 113.482 52.7054C113.414 53.3727 112.789 53.8546 112.086 53.7898C110.221 53.6137 108.316 53.4932 106.392 53.4283C104.332 53.3542 102.232 53.3171 100.093 53.3264V50.0548C102.232 50.0455 104.322 50.0826 106.373 50.1568C108.394 50.2309 110.387 50.3606 112.34 50.546ZM107.75 47.0242C108.316 47.0242 108.775 46.5886 108.775 46.0511C108.775 45.5135 108.316 45.078 107.75 45.078C107.183 45.078 106.724 45.5135 106.724 46.0511C106.724 46.5886 107.193 47.0242 107.75 47.0242ZM111.392 47.2744C111.92 47.2744 112.349 46.8667 112.349 46.3662C112.349 45.8657 111.92 45.4579 111.392 45.4579C110.865 45.4579 110.435 45.8657 110.435 46.3662C110.435 46.8667 110.855 47.2744 111.392 47.2744ZM104.048 46.9037C104.615 46.9037 105.074 46.4681 105.074 45.9306C105.074 45.3931 104.615 44.9575 104.048 44.9575C103.482 44.9575 103.023 45.3931 103.023 45.9306C103.023 46.4681 103.492 46.9037 104.048 46.9037Z" fill="#A5B1CC"/>
</svg>
