<svg width="200" height="100" viewBox="0 0 200 100" fill="none" xmlns="http://www.w3.org/2000/svg">
<path fill-rule="evenodd" clip-rule="evenodd" d="M66.3527 57.645C64.0647 57.645 62.2096 55.7214 62.2096 53.3483C62.2096 50.9756 64.0647 49.052 66.3527 49.052C68.6411 49.052 70.4959 50.9756 70.4959 53.3483C70.4959 55.7214 68.6411 57.645 66.3527 57.645ZM66.5795 44.6211C64.8463 44.6211 63.3889 45.0836 62.2421 45.9362V37.2135H57.3223V52.4084C57.3223 58.5136 61.3697 62.0759 66.191 62.0759C71.0121 62.0759 75.254 58.6199 75.254 53.3483C75.254 48.0771 71.2272 44.6211 66.5795 44.6211ZM163.066 57.645C160.778 57.645 158.923 55.7214 158.923 53.3483C158.923 50.9756 160.778 49.052 163.066 49.052C165.354 49.052 167.209 50.9756 167.209 53.3483C167.209 55.7214 165.354 57.645 163.066 57.645ZM163.066 44.6211C158.418 44.6211 154.132 48.0771 154.132 53.3483C154.132 58.6199 158.418 62.0759 163.066 62.0759C167.714 62.0759 171.999 58.6199 171.999 53.3483C171.999 48.0771 167.714 44.6211 163.066 44.6211ZM152.031 53.2141V61.6731H146.982V53.2141C146.982 50.6841 145.967 49.3206 144.004 49.3206C142.04 49.3206 141.026 50.6841 141.026 53.2141V61.6731H135.976V53.2141C135.976 50.6841 134.962 49.3206 132.999 49.3206C131.036 49.3206 130.021 50.6841 130.021 53.2141V61.6731H124.971V53.2141C124.971 47.9429 128.434 44.6211 132.999 44.6211C135.343 44.6211 137.224 45.4993 138.501 47.0655C139.778 45.4993 141.66 44.6211 144.004 44.6211C148.568 44.6211 152.031 47.9429 152.031 53.2141ZM102.929 53.3483V61.6731H97.8796V53.7512C97.8796 50.9545 96.8316 49.3206 94.5781 49.3206C92.3246 49.3206 91.2766 50.9545 91.2766 53.7512V61.6731H86.2273V53.3483C86.2273 48.0771 89.4827 44.6211 94.5781 44.6211C99.6732 44.6211 102.929 48.0771 102.929 53.3483ZM83.3999 39.8771C83.3999 41.5029 82.0217 42.7541 80.4014 42.7541C78.7814 42.7541 77.4033 41.5029 77.4033 39.8771C77.4033 38.251 78.7814 37 80.4014 37C82.0217 37 83.3999 38.251 83.3999 39.8771ZM77.8768 61.6731H82.9263V45.0239H77.8768V61.6731ZM113.936 57.645C111.648 57.645 109.794 55.7214 109.794 53.3483C109.794 50.9756 111.648 49.052 113.936 49.052C116.225 49.052 118.08 50.9756 118.08 53.3483C118.08 55.7214 116.225 57.645 113.936 57.645ZM113.936 44.6211C109.289 44.6211 105.003 48.0771 105.003 53.3483C105.003 58.6199 109.289 62.0759 113.936 62.0759C118.584 62.0759 122.87 58.6199 122.87 53.3483C122.87 48.0771 118.584 44.6211 113.936 44.6211Z" fill="#A5B1CC"/>
<path fill-rule="evenodd" clip-rule="evenodd" d="M35.5207 64.5076C37.2136 65.5213 39.3782 64.9197 40.3555 63.1639L46.1059 52.8316C47.0831 51.0763 46.5033 48.8321 44.811 47.8184C43.1182 46.8047 40.9535 47.4062 39.9763 49.1621L34.2256 59.4947C33.2487 61.2496 33.8285 63.4938 35.5207 64.5076ZM28.4744 49.1684L34.2253 38.8361C35.2026 37.0803 37.3672 36.4787 39.0598 37.4924C40.7523 38.5062 41.3321 40.7504 40.3549 42.5056L34.6045 52.8379C33.6273 54.5938 31.4623 55.1953 29.7698 54.1816C28.0775 53.1679 27.4977 50.9237 28.4744 49.1684Z" fill="#A5B1CC"/>
</svg>
