<svg width="200" height="100" viewBox="0 0 200 100" fill="none" xmlns="http://www.w3.org/2000/svg">
<path d="M89.6572 42.9766H87.2487C86.9236 42.9766 86.6602 43.2431 86.6602 43.5724V59.7853C86.6602 60.1145 86.9236 60.3811 87.2487 60.3811H89.6572C89.9825 60.3811 90.2458 60.1145 90.2458 59.7853V43.5724C90.2458 43.2431 89.9825 42.9766 89.6572 42.9766Z" fill="#A5B1CC"/>
<path d="M75.7938 51.6857L83.8555 43.4851C84.0414 43.297 83.9098 42.9755 83.6464 42.9755H80.1383C79.906 42.9755 79.6813 43.0696 79.511 43.2421L72.154 50.7292V36.6017C72.154 36.2724 71.8906 36.0059 71.5653 36.0059H69.1569C68.8316 36.0059 68.5684 36.2724 68.5684 36.6017V59.7843C68.5684 60.1134 68.8316 60.3801 69.1569 60.3801H71.5653C71.8906 60.3801 72.154 60.1134 72.154 59.7843V52.642L79.511 60.1291C79.6736 60.2938 79.8983 60.3958 80.1383 60.3958H83.6464C83.9098 60.3958 84.0414 60.0743 83.8555 59.8861L75.7938 51.6857Z" fill="#A5B1CC"/>
<path d="M151.458 42.9766H149.049C148.724 42.9766 148.461 43.2431 148.461 43.5724V59.7853C148.461 60.1145 148.724 60.3811 149.049 60.3811H151.458C151.783 60.3811 152.046 60.1145 152.046 59.7853V43.5724C152.046 43.2431 151.783 42.9766 151.458 42.9766Z" fill="#A5B1CC"/>
<path d="M150.586 39.6856C151.679 39.5059 152.422 38.4629 152.244 37.356C152.067 36.249 151.036 35.4973 149.943 35.6769C148.849 35.8566 148.107 36.8996 148.284 38.0066C148.462 39.1135 149.492 39.8652 150.586 39.6856Z" fill="#A5B1CC"/>
<path d="M88.7728 39.6876C89.8662 39.5079 90.6088 38.4649 90.4314 37.3579C90.2538 36.251 89.2237 35.4992 88.1301 35.6789C87.0367 35.8585 86.2941 36.9015 86.4715 38.0085C86.6491 39.1155 87.6794 39.8672 88.7728 39.6876Z" fill="#A5B1CC"/>
<path d="M145.438 36.0059H139.731C139.158 36.0059 138.6 36.0999 138.082 36.2724C136.626 36.7585 135.448 37.8796 134.875 39.3143C134.628 39.9258 134.496 40.6 134.496 41.2978V42.9755H131.731C131.406 42.9755 131.143 43.2421 131.143 43.5713V46.0096C131.143 46.3388 131.406 46.6054 131.731 46.6054H134.496V59.7843C134.496 60.1134 134.759 60.3801 135.084 60.3801H137.493C137.818 60.3801 138.082 60.1134 138.082 59.7843V46.5975H143.712C144.037 46.5975 144.3 46.331 144.3 46.0017V43.5635C144.3 43.2342 144.037 42.9677 143.712 42.9677H138.082V41.141C138.082 40.1296 138.887 39.3143 139.886 39.3143H145.431C145.756 39.3143 146.019 39.0477 146.019 38.7185V36.6017C146.027 36.2724 145.764 36.0059 145.438 36.0059Z" fill="#A5B1CC"/>
<path d="M171.76 50.8858V59.784C171.76 60.1133 171.497 60.38 171.172 60.38H168.763C168.438 60.38 168.175 60.1133 168.175 59.784V50.8466C168.175 50.6741 168.167 50.5017 168.144 50.337C167.888 48.0243 165.906 46.2368 163.528 46.3152C161.329 46.3936 159.578 48.1106 159.261 50.2587C159.214 50.486 159.207 50.7212 159.207 50.9565V59.784C159.207 60.1133 158.943 60.38 158.618 60.38H156.218C155.892 60.38 155.621 60.1133 155.621 59.784V43.5712C155.621 43.2419 155.892 42.9675 156.218 42.9675H158.618C158.943 42.9675 159.207 43.2419 159.207 43.5712V45.5939C160.028 43.9162 161.747 42.7559 163.722 42.7559C165.371 42.7559 166.889 43.2576 168.167 44.1122C170.335 45.5704 171.76 48.0556 171.76 50.8858Z" fill="#A5B1CC"/>
<path d="M109.95 50.8858V59.784C109.95 60.1133 109.686 60.38 109.361 60.38H106.953C106.627 60.38 106.364 60.1133 106.364 59.784V50.8466C106.364 50.6741 106.356 50.5017 106.333 50.337C106.078 48.0243 104.095 46.2368 101.717 46.3152C99.5182 46.3936 97.7679 48.1106 97.4503 50.2587C97.4039 50.486 97.3962 50.7212 97.3962 50.9565V59.784C97.3962 60.1133 97.1329 60.38 96.8076 60.38H94.407C94.0817 60.38 93.8105 60.1133 93.8105 59.784V43.5712C93.8105 43.2419 94.0817 42.9675 94.407 42.9675H96.8076C97.1329 42.9675 97.3962 43.2419 97.3962 43.5712V45.5939C98.2171 43.9162 99.9363 42.7559 101.911 42.7559C103.561 42.7559 105.079 43.2576 106.356 44.1122C108.525 45.5704 109.95 48.0556 109.95 50.8858Z" fill="#A5B1CC"/>
<path d="M120.649 42.7637C116.072 42.7637 112.362 46.6993 112.184 51.3327C111.991 56.4208 116.01 60.5994 120.997 60.5994C123.747 60.5994 125.373 59.204 126.225 57.6908V61.0777C126.225 64.5664 123.878 66.7381 120.997 66.7381C119.185 66.7381 117.605 65.7503 116.653 64.2527C116.653 64.2527 116.591 64.1273 116.483 63.9549C116.32 63.6726 115.956 63.5786 115.685 63.7275L113.687 64.9114C113.408 65.0602 113.307 65.4288 113.478 65.7189L113.64 66.0246C115.22 68.4235 117.923 69.9994 120.997 69.9994C122.949 69.9994 124.753 69.3566 126.225 68.2668C128.401 66.6361 129.803 64.0176 129.803 61.0777V51.6776C129.81 48.3379 127.448 42.7637 120.649 42.7637ZM120.997 57.3146C118.109 57.3146 115.77 54.7822 115.77 51.6776C115.77 48.5573 118.109 46.0407 120.997 46.0407C123.886 46.0407 126.232 48.5573 126.232 51.6776C126.232 54.7901 123.886 57.3146 120.997 57.3146Z" fill="#A5B1CC"/>
<path d="M46.3408 59.7207H42.1608C42.0616 59.7209 41.9666 59.7606 41.8965 59.8314C41.8265 59.902 41.7871 59.9979 41.7871 60.098V66.4168C41.7871 66.5168 41.8265 66.6128 41.8967 66.6836C41.9668 66.7542 42.062 66.7939 42.1612 66.7939H46.3408C46.44 66.7939 46.5351 66.7542 46.6051 66.6836C46.6753 66.6128 46.7147 66.5168 46.7147 66.4168V60.098C46.7147 59.9979 46.6753 59.902 46.6051 59.8312C46.5351 59.7604 46.44 59.7207 46.3408 59.7207Z" fill="#A5B1CC"/>
<path d="M61.1246 46.9115H53.908C53.8806 46.9115 53.8541 46.9025 53.8324 46.8858C53.8108 46.869 53.7952 46.8456 53.788 46.819C53.781 46.7924 53.7828 46.7642 53.7932 46.7388C53.8037 46.7134 53.8221 46.6921 53.8458 46.6784L60.0958 43.0395C60.1817 42.9892 60.2442 42.9066 60.2699 42.8099C60.2955 42.7132 60.2822 42.6102 60.2327 42.5233L58.1437 38.8717C58.0938 38.7852 58.0117 38.7222 57.9157 38.6966C57.8198 38.671 57.7176 38.6848 57.6319 38.7352L51.3822 42.374C51.3586 42.388 51.3311 42.3938 51.304 42.3903C51.2768 42.3869 51.2515 42.3745 51.2322 42.355C51.2129 42.3356 51.2004 42.3102 51.1969 42.2828C51.1933 42.2555 51.199 42.2278 51.2128 42.2039L54.8207 35.9015C54.846 35.8586 54.8626 35.811 54.8694 35.7616C54.8763 35.7121 54.8733 35.6617 54.8607 35.6135C54.8482 35.5651 54.8262 35.5199 54.796 35.4802C54.7659 35.4406 54.7282 35.4074 54.6854 35.3826L51.0655 33.2755C50.9795 33.2254 50.8771 33.2118 50.7812 33.2377C50.6853 33.2636 50.6033 33.3269 50.5537 33.4136L46.9456 39.7164C46.932 39.7403 46.9109 39.7589 46.8858 39.7694C46.8606 39.7799 46.8326 39.7817 46.8062 39.7746C46.7799 39.7674 46.7566 39.7517 46.74 39.7299C46.7235 39.708 46.7146 39.6813 46.7146 39.6538V32.3765C46.7146 32.327 46.7048 32.2779 46.686 32.2322C46.6673 32.1865 46.6397 32.1449 46.605 32.11C46.5701 32.075 46.529 32.0473 46.4836 32.0284C46.4383 32.0096 46.3896 31.9999 46.3404 32H42.1605C42.1114 31.9998 42.0627 32.0095 42.0173 32.0283C41.9718 32.0471 41.9305 32.0748 41.8957 32.1098C41.8609 32.1448 41.8333 32.1863 41.8144 32.2321C41.7955 32.2778 41.7858 32.3269 41.7857 32.3765V39.6541C41.7857 39.6817 41.7768 39.7084 41.7602 39.7303C41.7436 39.7521 41.7203 39.7678 41.694 39.775C41.6676 39.7821 41.6397 39.7803 41.6145 39.7698C41.5893 39.7593 41.5682 39.7407 41.5545 39.7168L37.9466 33.414C37.8968 33.3273 37.815 33.264 37.719 33.2381C37.6231 33.2122 37.5208 33.2258 37.4348 33.2759L33.8141 35.3826C33.7713 35.4075 33.7337 35.4407 33.7036 35.4803C33.6736 35.52 33.6516 35.5653 33.639 35.6135C33.6264 35.6618 33.6235 35.7121 33.6303 35.7616C33.6371 35.811 33.6536 35.8586 33.6788 35.9015L37.2867 42.2055C37.3003 42.2293 37.3057 42.2568 37.3021 42.284C37.2985 42.3111 37.2862 42.3363 37.267 42.3557C37.2478 42.3751 37.2228 42.3875 37.1959 42.3911C37.169 42.3947 37.1416 42.3893 37.1181 42.3756L30.8676 38.736C30.7818 38.6856 30.6797 38.6718 30.5837 38.6974C30.4877 38.723 30.4058 38.786 30.3558 38.8725L28.2666 42.5241C28.2171 42.6107 28.2036 42.7135 28.2291 42.8101C28.2545 42.9066 28.3168 42.9891 28.4024 43.0395L34.6529 46.6803C34.6765 46.6941 34.695 46.7154 34.7054 46.7408C34.7158 46.7662 34.7176 46.7944 34.7106 46.821C34.7035 46.8475 34.6879 46.871 34.6662 46.8878C34.6446 46.9045 34.618 46.9135 34.5908 46.9135H27.3733C27.3241 46.9135 27.2755 46.9234 27.2301 46.9424C27.1848 46.9614 27.1436 46.9893 27.1089 47.0244C27.0742 47.0595 27.0467 47.1012 27.0281 47.1471C27.0094 47.1929 26.9998 47.242 27 47.2915V51.5044C26.9999 51.554 27.0095 51.6029 27.0282 51.6488C27.0469 51.6946 27.0744 51.7361 27.109 51.7712C27.1437 51.8062 27.1849 51.8341 27.2302 51.8529C27.2756 51.8719 27.3242 51.8818 27.3733 51.8818H34.5908C34.618 51.8818 34.6446 51.8908 34.6662 51.9074C34.6879 51.9242 34.7035 51.9476 34.7106 51.9742C34.7176 52.0008 34.7158 52.029 34.7054 52.0545C34.695 52.0798 34.6765 52.101 34.6529 52.1148L28.4024 55.7544C28.3598 55.7793 28.3225 55.8122 28.2926 55.8515C28.2626 55.8908 28.2406 55.9357 28.2279 55.9835C28.2152 56.0314 28.212 56.0814 28.2184 56.1305C28.2249 56.1796 28.2408 56.2271 28.2655 56.27L30.3546 59.9207C30.3792 59.9637 30.4119 60.0014 30.451 60.0317C30.49 60.0619 30.5346 60.0841 30.5821 60.0969C30.6297 60.1097 30.6792 60.113 30.728 60.1065C30.7768 60.0999 30.8238 60.0837 30.8664 60.0589L37.1181 56.4212C37.1417 56.4072 37.1692 56.4017 37.1963 56.4052C37.2235 56.4088 37.2486 56.4213 37.2679 56.441C37.2872 56.4604 37.2995 56.4859 37.3029 56.5132C37.3063 56.5406 37.3006 56.5683 37.2867 56.592L33.6788 62.8932C33.654 62.9361 33.6379 62.9835 33.6313 63.0327C33.6247 63.0818 33.6278 63.1318 33.6403 63.1796C33.6529 63.2276 33.6747 63.2726 33.7046 63.312C33.7344 63.3514 33.7716 63.3845 33.8141 63.4095L37.4348 65.5173C37.5209 65.5668 37.623 65.5801 37.7188 65.5543C37.8146 65.5285 37.8965 65.4655 37.9466 65.3792L41.3903 59.3602L43.6172 55.4702C43.6523 55.4091 43.6696 55.3393 43.6674 55.2688C43.665 55.1982 43.6431 55.1297 43.6041 55.0711L41.6487 52.1269C41.6335 52.1029 41.6249 52.0754 41.6238 52.0469C41.6227 52.0186 41.6291 51.9904 41.6423 51.9654C41.6556 51.9403 41.6753 51.9193 41.6993 51.9044C41.7233 51.8895 41.7508 51.8814 41.779 51.881H46.719C46.7471 51.8814 46.7745 51.8895 46.7985 51.9044C46.8226 51.9193 46.8422 51.9403 46.8555 51.9654C46.8689 51.9904 46.8752 52.0186 46.8741 52.0469C46.873 52.0754 46.8643 52.1029 46.8491 52.1269L44.893 55.0711C44.8539 55.1297 44.8321 55.1982 44.8297 55.2688C44.8274 55.3393 44.8448 55.4091 44.8798 55.4702L46.9927 59.161L50.5517 65.3792C50.6018 65.4655 50.6837 65.5285 50.7795 65.5543C50.8752 65.5801 50.9773 65.5668 51.0635 65.5173L54.6833 63.4095C54.726 63.3847 54.7634 63.3517 54.7934 63.3123C54.8234 63.2729 54.8452 63.2279 54.8579 63.1799C54.8706 63.132 54.8736 63.0819 54.867 63.0327C54.8604 62.9836 54.8442 62.9361 54.8194 62.8932L51.2115 56.5901C51.1977 56.5662 51.1922 56.5385 51.1957 56.5111C51.1993 56.4837 51.2117 56.4584 51.231 56.4387C51.2503 56.4193 51.2756 56.4068 51.3026 56.4033C51.3297 56.3996 51.3574 56.4053 51.3809 56.4193L57.6306 60.0589C57.6732 60.0837 57.7203 60.0999 57.7691 60.1064C57.8178 60.1129 57.8674 60.1095 57.915 60.0967C57.9625 60.0839 58.0069 60.0617 58.046 60.0317C58.0851 60.0014 58.1178 59.9637 58.1424 59.9207L60.2316 56.27C60.2811 56.1832 60.2944 56.0803 60.2688 55.9837C60.2431 55.887 60.1805 55.8046 60.0946 55.7544L53.8445 52.1148C53.821 52.101 53.8025 52.0798 53.7921 52.0545C53.7816 52.029 53.7799 52.0008 53.7869 51.9742C53.794 51.9476 53.8095 51.9242 53.8312 51.9074C53.8529 51.8908 53.8794 51.8818 53.9067 51.8818H61.1233C61.1725 51.8818 61.2211 51.8719 61.2665 51.8529C61.3119 51.8341 61.353 51.8062 61.3877 51.7712C61.4224 51.7361 61.45 51.6946 61.4687 51.6488C61.4876 51.6031 61.4971 51.554 61.4971 51.5044V47.2887C61.4971 47.1889 61.458 47.0932 61.3882 47.0224C61.3183 46.9517 61.2235 46.9118 61.1246 46.9115Z" fill="#A5B1CC"/>
</svg>
