<svg width="200" height="100" viewBox="0 0 200 100" fill="none" xmlns="http://www.w3.org/2000/svg">
<path d="M61.9621 44.3034C61.4883 43.9009 60.896 43.5991 60.1854 43.3979C59.4747 43.1714 58.7772 43.0583 58.0928 43.0583C57.3295 43.0583 56.632 43.1966 56.0002 43.4733C55.3685 43.7248 54.8157 44.0895 54.342 44.5675C53.8945 45.0203 53.5392 45.5737 53.2759 46.2276C53.0127 46.8817 52.8812 47.5859 52.8812 48.3406C52.8812 49.0952 53.0259 49.7996 53.3154 50.4535C53.605 51.1076 53.9998 51.6735 54.4999 52.1514C55 52.6042 55.5791 52.9689 56.2372 53.2456C56.9215 53.4971 57.6453 53.6229 58.4086 53.6229C59.3036 53.6229 60.1196 53.4468 60.8565 53.0947C61.5935 52.7174 62.2253 52.2143 62.7517 51.5855H60.3828V46.3031H70.5297V54.6794C69.9243 55.7107 69.2005 56.6539 68.3582 57.5092C67.5159 58.3393 66.5684 59.0562 65.5155 59.6598C64.4889 60.2636 63.3703 60.7289 62.1595 61.056C60.9487 61.3829 59.6984 61.5464 58.4086 61.5464C56.5135 61.5464 54.7236 61.2069 53.0391 60.5277C51.3545 59.8486 49.8804 58.9179 48.617 57.7356C47.3799 56.5533 46.3929 55.1573 45.6559 53.5474C44.9452 51.9376 44.5898 50.202 44.5898 48.3406C44.5898 46.5295 44.932 44.819 45.6164 43.2092C46.3007 41.5994 47.2351 40.2033 48.4196 39.0211C49.6304 37.8137 51.0518 36.8704 52.6838 36.1912C54.342 35.4869 56.1186 35.1348 58.0138 35.1348C59.4878 35.1348 60.7645 35.2731 61.8436 35.5499C62.9228 35.8265 63.8309 36.1409 64.5679 36.4931C65.4365 36.8956 66.1604 37.3358 66.7394 37.8137L61.9621 44.3034Z" fill="#A5B1CC"/>
<path d="M72.7129 35.7383H81.478V54.3019H88.7427V60.9048H72.7129V35.7383Z" fill="#A5B1CC"/>
<path d="M88.3535 48.3406C88.3535 46.5295 88.7088 44.819 89.4196 43.2092C90.1565 41.5994 91.1436 40.2033 92.3807 39.0211C93.6441 37.8137 95.1181 36.8704 96.8027 36.1912C98.4872 35.4869 100.277 35.1348 102.172 35.1348C104.067 35.1348 105.857 35.4869 107.542 36.1912C109.226 36.8704 110.687 37.8137 111.924 39.0211C113.188 40.2033 114.175 41.5994 114.886 43.2092C115.623 44.819 115.991 46.5295 115.991 48.3406C115.991 50.1516 115.623 51.8621 114.886 53.472C114.175 55.0819 113.188 56.4905 111.924 57.6979C110.687 58.8801 109.226 59.8234 107.542 60.5277C105.857 61.2069 104.067 61.5464 102.172 61.5464C100.277 61.5464 98.4872 61.2069 96.8027 60.5277C95.1181 59.8234 93.6441 58.8801 92.3807 57.6979C91.1436 56.4905 90.1565 55.0819 89.4196 53.472C88.7088 51.8621 88.3535 50.1516 88.3535 48.3406ZM96.6447 48.3406C96.6447 49.0701 96.7895 49.7618 97.0791 50.4158C97.3686 51.0446 97.7635 51.5981 98.2636 52.076C98.7637 52.5539 99.3428 52.9312 100.001 53.2078C100.685 53.4846 101.409 53.6229 102.172 53.6229C102.936 53.6229 103.646 53.4846 104.304 53.2078C104.989 52.9312 105.581 52.5539 106.081 52.076C106.581 51.5981 106.976 51.0446 107.266 50.4158C107.555 49.7618 107.7 49.0701 107.7 48.3406C107.7 47.6111 107.555 46.932 107.266 46.3031C106.976 45.6491 106.581 45.0832 106.081 44.6053C105.581 44.1273 104.989 43.75 104.304 43.4733C103.646 43.1966 102.936 43.0583 102.172 43.0583C101.409 43.0583 100.685 43.1966 100.001 43.4733C99.3428 43.75 98.7637 44.1273 98.2636 44.6053C97.7635 45.0832 97.3686 45.6491 97.0791 46.3031C96.7895 46.932 96.6447 47.6111 96.6447 48.3406Z" fill="#A5B1CC"/>
<path d="M118.172 35.7383H127.253C128.937 35.7383 130.49 35.952 131.912 36.3796C133.359 36.8073 134.609 37.4362 135.663 38.2663C136.716 39.0963 137.532 40.1276 138.111 41.3602C138.716 42.5676 139.019 43.9636 139.019 45.5483C139.019 46.8059 138.835 47.875 138.466 48.7554C138.097 49.6358 137.689 50.3653 137.242 50.9438C136.716 51.5978 136.123 52.1512 135.466 52.604L140.4 60.9048H130.53L126.582 54.5282V60.9048H118.172V35.7383ZM126.582 48.1139H127.016C128.016 48.1139 128.858 47.9002 129.543 47.4726C130.253 47.045 130.609 46.328 130.609 45.3219C130.609 44.3158 130.253 43.5989 129.543 43.1712C128.858 42.7436 128.016 42.5298 127.016 42.5298H126.582V48.1139Z" fill="#A5B1CC"/>
<path d="M145.417 50.076L137.244 35.7383H146.602L149.641 41.0583L152.642 35.7383H161.999L153.826 50.076V60.9048H145.417V50.076Z" fill="#A5B1CC"/>
<path fill-rule="evenodd" clip-rule="evenodd" d="M38.087 30.9174C37.9292 30.6973 37.9894 30.388 38.2401 30.2765C39.2942 29.8075 39.9817 30.2315 40.3775 30.7431C40.5667 30.9878 40.9418 31.0746 41.2325 30.9636C41.2743 30.9476 41.3171 30.933 41.3608 30.9199C42.3501 30.6218 43.4076 31.186 43.7228 32.1801C43.9096 32.769 43.7939 33.3767 43.4627 33.8362C43.2641 34.1118 43.2696 34.5457 43.5871 34.6738C44.5473 35.0609 45.6351 35.1379 46.6916 34.8196C48.3939 34.3068 49.5694 32.902 49.8746 31.2649C49.9066 31.0932 49.7078 30.9686 49.5367 31.0201C48.6463 31.2883 47.6946 30.7805 47.4108 29.8859C47.1272 28.9913 47.619 28.0486 48.5094 27.7804C48.6322 27.7434 48.7561 27.7212 48.8792 27.7127C48.9614 27.707 49.0105 27.5978 48.9587 27.5354C48.8153 27.3633 48.7068 27.1653 48.6394 26.9525C48.5719 26.7398 48.5468 26.5166 48.5655 26.2957C48.5842 26.0747 48.6464 25.8604 48.7484 25.6649C48.8503 25.4693 48.9903 25.2965 49.1601 25.1562C49.3298 25.0158 49.5262 24.9108 49.7379 24.847C49.9497 24.7832 50.1726 24.762 50.394 24.7844C50.6153 24.8069 50.831 24.8727 51.0284 24.978C51.2258 25.0833 51.4011 25.2261 51.5444 25.3982C51.6878 25.5704 51.7963 25.7684 51.8637 25.9812C51.9312 26.1939 51.9563 26.4171 51.9376 26.638C51.9308 26.718 52.0346 26.7812 52.1057 26.7407C52.2124 26.6799 52.3275 26.6301 52.4503 26.5932C53.3407 26.3249 54.2925 26.8327 54.5761 27.7273C54.8598 28.6219 54.368 29.5646 53.4775 29.8329C53.3065 29.8844 53.2145 30.0966 53.3403 30.2208C54.5399 31.4046 56.3237 31.9179 58.026 31.4051C59.0827 31.0867 59.9365 30.4246 60.505 29.5766C60.6934 29.2956 60.4519 28.936 60.1309 28.8203C59.5877 28.6246 59.1368 28.185 58.9491 27.593C58.6339 26.599 59.1803 25.5516 60.1696 25.2535C60.2116 25.2409 60.2537 25.2298 60.2958 25.2202C60.6015 25.1508 60.8636 24.8675 60.8795 24.5582C60.9125 23.9203 61.2369 23.1977 62.3736 23.006C62.6452 22.9602 62.8739 23.1825 62.871 23.451L62.7509 34.6881C62.345 34.5564 61.9095 34.4313 61.4443 34.3128C60.2864 34.0175 58.9168 33.8699 57.3354 33.8699C55.3021 33.8699 53.3959 34.2456 51.6168 34.997C49.866 35.7216 48.341 36.7281 47.042 38.0163C46.2664 38.786 45.5908 39.6407 45.0151 40.5804L38.087 30.9174Z" fill="#A5B1CC"/>
<path d="M62.3877 65.4473C63.4389 65.4473 64.3519 65.6199 65.1264 65.965C65.9011 66.2994 66.4985 66.7849 66.919 67.4213C67.3396 68.0469 67.5498 68.7858 67.5498 69.638C67.5498 70.4901 67.3396 71.229 66.919 71.8546C66.4985 72.4802 65.9011 72.9656 65.1264 73.3109C64.3519 73.6452 63.4389 73.8124 62.3877 73.8124H60.3627V76.7733H57.0762V65.4473H62.3877ZM62.1885 71.2883C62.8635 71.2883 63.3726 71.1481 63.7156 70.8676C64.0586 70.5764 64.2302 70.1664 64.2302 69.638C64.2302 69.1094 64.0586 68.6995 63.7156 68.4082C63.3726 68.117 62.8635 67.9714 62.1885 67.9714H60.3627V71.2883H62.1885Z" fill="#A5B1CC"/>
<path d="M76.3547 74.5729H71.4416L70.5286 76.7733H67.1758L72.3046 65.4473H75.5413L80.6869 76.7733H77.2676L76.3547 74.5729ZM75.392 72.2106L73.8981 68.5863L72.4042 72.2106H75.392Z" fill="#A5B1CC"/>
<path d="M86.6982 73.7638H84.9056V76.7733H81.6191V65.4473H86.9306C87.9818 65.4473 88.8948 65.6199 89.6693 65.965C90.4439 66.2994 91.0415 66.7849 91.462 67.4213C91.8824 68.0469 92.0927 68.7858 92.0927 69.638C92.0927 70.4577 91.8936 71.175 91.4952 71.7899C91.1079 72.3939 90.5491 72.8686 89.8187 73.2137L92.3251 76.7733H88.8062L86.6982 73.7638ZM88.773 69.638C88.773 69.1094 88.6015 68.6995 88.2584 68.4082C87.9154 68.117 87.4064 67.9714 86.7314 67.9714H84.9056V71.2883H86.7314C87.4064 71.2883 87.9154 71.1481 88.2584 70.8676C88.6015 70.5764 88.773 70.1664 88.773 69.638Z" fill="#A5B1CC"/>
<path d="M96.2151 67.9876H92.6465V65.4473H103.054V67.9876H99.5017V76.7733H96.2151V67.9876Z" fill="#A5B1CC"/>
<path d="M115.332 65.4473V76.7733H112.626L107.498 70.7382V76.7733H104.277V65.4473H106.983L112.112 71.4825V65.4473H115.332Z" fill="#A5B1CC"/>
<path d="M126.981 74.2978V76.7733H117.652V65.4473H126.765V67.9229H120.906V69.8321H126.068V72.2268H120.906V74.2978H126.981Z" fill="#A5B1CC"/>
<path d="M133.884 73.7638H132.092V76.7733H128.805V65.4473H134.117C135.168 65.4473 136.08 65.6199 136.855 65.965C137.63 66.2994 138.227 66.7849 138.647 67.4213C139.068 68.0469 139.278 68.7858 139.278 69.638C139.278 70.4577 139.079 71.175 138.681 71.7899C138.293 72.3939 137.734 72.8686 137.004 73.2137L139.511 76.7733H135.992L133.884 73.7638ZM135.958 69.638C135.958 69.1094 135.787 68.6995 135.444 68.4082C135.101 68.117 134.592 67.9714 133.917 67.9714H132.092V71.2883H133.917C134.592 71.2883 135.101 71.1481 135.444 70.8676C135.787 70.5764 135.958 70.1664 135.958 69.638Z" fill="#A5B1CC"/>
<path d="M145.175 76.9998C144.235 76.9998 143.322 76.8866 142.437 76.6601C141.551 76.4335 140.833 76.1315 140.279 75.754L141.358 73.3917C141.879 73.7261 142.481 73.9957 143.167 74.2007C143.853 74.4056 144.528 74.5081 145.192 74.5081C146.454 74.5081 147.085 74.2007 147.085 73.5859C147.085 73.2622 146.901 73.025 146.537 72.874C146.183 72.7121 145.608 72.5449 144.811 72.3724C143.936 72.1889 143.206 71.9948 142.62 71.7899C142.033 71.5741 141.529 71.2344 141.109 70.7705C140.689 70.3067 140.478 69.681 140.478 68.8936C140.478 68.2033 140.672 67.583 141.059 67.0329C141.446 66.472 142.022 66.0297 142.786 65.7062C143.56 65.3825 144.506 65.2207 145.624 65.2207C146.387 65.2207 147.139 65.307 147.882 65.4796C148.623 65.6415 149.276 65.8841 149.84 66.2078L148.827 68.5862C147.721 68.0038 146.647 67.7125 145.608 67.7125C144.954 67.7125 144.479 67.8095 144.18 68.0038C143.881 68.1871 143.731 68.4298 143.731 68.7318C143.731 69.0338 143.909 69.2604 144.263 69.4114C144.617 69.5624 145.186 69.7188 145.972 69.8806C146.858 70.064 147.588 70.2635 148.163 70.4793C148.75 70.6842 149.253 71.0186 149.674 71.4824C150.105 71.9355 150.321 72.5557 150.321 73.3431C150.321 74.0227 150.127 74.6375 149.74 75.1877C149.353 75.7378 148.772 76.1801 147.997 76.5145C147.222 76.8381 146.282 76.9998 145.175 76.9998Z" fill="#A5B1CC"/>
</svg>
