<svg width="200" height="100" viewBox="0 0 200 100" fill="none" xmlns="http://www.w3.org/2000/svg">
<g clip-path="url(#clip0_429_2956)">
<path d="M73.8061 31.1551C73.8061 33.2114 72.0513 34.9429 69.9675 34.9429C67.8837 34.9429 66.1289 33.2114 66.1289 31.1551C66.1289 29.0988 67.8837 27.3672 69.9675 27.3672C72.1609 27.3672 73.8061 29.0988 73.8061 31.1551Z" fill="#A5B1CC"/>
<path d="M66.1289 37.973C66.1289 37.1072 66.8966 36.3496 67.7739 36.3496H72.1609C73.0384 36.3496 73.8061 37.1072 73.8061 37.973V55.5054H66.2385L66.1289 37.973Z" fill="#A5B1CC"/>
<path d="M99.1406 39.598C99.1406 38.7321 99.9085 37.9746 100.786 37.9746H110.437C111.315 37.9746 112.082 38.7321 112.082 39.598V42.953C112.082 43.8187 111.315 44.5763 110.437 44.5763H100.786C99.9085 44.5763 99.1406 43.8187 99.1406 42.953V39.598Z" fill="#A5B1CC"/>
<path d="M97.0577 37.6486C97.0577 31.9126 92.2322 27.3672 86.4196 27.3672C80.6068 27.3672 75.8908 31.9126 75.7812 37.5404V55.5057H83.6777V37.7568C83.6777 36.1335 84.9937 34.8347 86.5292 34.8347C88.1746 34.8347 89.3809 36.1335 89.3809 37.7568V55.5057H96.9481V54.8564L97.0577 37.6486Z" fill="#A5B1CC"/>
<path d="M50.4464 55.5069H42.8789V38.732C42.8789 35.5935 43.6466 33.1043 45.2917 31.1562C46.2788 29.9658 47.4852 29.0999 48.911 28.4506C50.4464 27.8012 51.8722 27.4766 53.4076 27.4766C56.4785 27.4766 59.0009 28.4506 61.0848 30.5069C63.1686 32.5631 64.1555 35.0523 64.1555 37.9744C64.1555 40.8965 63.1686 43.3856 61.0848 45.4419C59.0009 47.4981 56.5882 48.5805 53.7366 48.5805C53.2979 48.5805 52.6399 48.5805 51.8722 48.4722V40.2471C52.4205 40.5718 52.9689 40.7883 53.5173 40.7883C54.285 40.7883 54.943 40.4636 55.4914 39.9225C56.0398 39.3813 56.3688 38.6237 56.3688 37.8662C56.3688 37.0004 56.0398 36.351 55.4914 35.8099C54.943 35.2688 54.285 34.9441 53.4076 34.9441C51.4335 34.9441 50.4464 36.2428 50.4464 38.9484V55.5069Z" fill="#A5B1CC"/>
<path d="M137.527 55.5069H145.204V38.9484C145.204 36.2428 146.191 34.9441 148.166 34.9441C149.043 34.9441 149.701 35.2688 150.249 35.8099C150.798 36.351 151.127 37.0004 151.127 37.8662C151.127 38.6237 150.798 39.3813 150.249 39.9225C149.701 40.4636 149.043 40.7883 148.275 40.7883C147.727 40.7883 147.179 40.5718 146.63 40.2471V48.4722C147.398 48.5805 148.056 48.5805 148.494 48.5805C151.346 48.5805 153.759 47.4981 155.843 45.4419C157.926 43.3856 158.914 40.8965 158.914 37.9744C158.914 35.0523 157.926 32.5631 155.843 30.5069C153.759 28.4506 151.236 27.4766 148.166 27.4766C146.63 27.4766 145.204 27.8012 143.669 28.4506C142.243 29.0999 141.037 29.9658 140.05 31.1562C138.404 33.1043 137.637 35.5935 137.637 38.732L137.527 55.5069Z" fill="#A5B1CC"/>
<path d="M114.166 45.3335V28.3422L114.276 28.0176H122.172V45.1171C122.172 46.7405 123.379 48.0392 125.024 48.0392C126.559 48.0392 127.875 46.7405 127.875 45.1171V28.0176H135.443V45.2253C135.443 50.9614 130.617 55.5068 124.804 55.5068C118.992 55.5068 114.276 50.9614 114.166 45.3335Z" fill="#A5B1CC"/>
<path d="M72.9089 63.3574L71.6934 66.363H74.1112L72.9089 63.3574Z" fill="#A5B1CC"/>
<path d="M61.2207 65.2292H62.1959C63.2379 65.2292 63.8122 64.7281 63.8122 63.8318C63.8122 62.9486 63.2646 62.4609 62.1959 62.4609H61.2207V65.2292Z" fill="#A5B1CC"/>
<path d="M83.2871 62.4082H84.1688C85.0905 62.4082 85.6517 62.8696 85.6517 63.6737C85.6517 64.4778 85.0771 64.9261 84.1554 64.9261H83.2871V62.4082Z" fill="#A5B1CC"/>
<path d="M127.732 62.4082H128.614C129.536 62.4082 130.097 62.8696 130.097 63.6737C130.097 64.4778 129.522 64.9261 128.601 64.9261H127.732V62.4082Z" fill="#A5B1CC"/>
<path fill-rule="evenodd" clip-rule="evenodd" d="M159.001 58.6875H42.418V65.5055C42.418 69.0202 45.3052 71.8693 48.8668 71.8693H152.552C156.113 71.8693 159.001 69.0202 159.001 65.5055V58.6875ZM142.396 67.1405C142.396 68.7091 141.22 69.7111 139.377 69.7111C137.707 69.7111 136.719 69.0123 136.331 67.5755L137.76 67.0482C138.054 67.9579 138.549 68.3005 139.457 68.3005C140.285 68.3005 140.806 67.8788 140.806 67.1932C140.806 66.5473 140.445 66.1914 139.056 65.8488C137.36 65.427 136.572 64.6491 136.572 63.252C136.572 61.8282 137.627 60.8661 139.377 60.8661C140.779 60.8661 141.688 61.4461 142.088 62.6191L140.673 63.1991C140.499 62.5796 140.058 62.2764 139.31 62.2764C138.589 62.2764 138.134 62.6191 138.148 63.1596C138.161 63.7791 138.535 64.0561 140.018 64.4514C141.674 64.8996 142.396 65.7038 142.396 67.1405ZM77.0902 69.5529H75.4071L74.659 67.7073H71.1458L70.3978 69.5529H68.7413L72.535 60.8923H73.2565L77.0902 69.5529ZM62.2374 61.0373C64.2946 61.0373 65.4034 62.0523 65.4034 63.7791C65.4168 65.5191 64.2545 66.6264 62.224 66.6396H61.2221V69.5529H59.5791V61.0373H62.2374ZM85.7459 69.5529H87.5625L85.5722 65.9805C86.6275 65.5852 87.282 64.7152 87.282 63.542C87.282 61.9732 86.1599 61.0373 84.3431 61.0373H81.6447V69.5529H83.2878V66.1914H83.9559L85.7459 69.5529ZM91.4755 61.0373H98.4084V62.5532H95.7501V69.5529H94.1204V62.5532H91.4755V61.0373ZM108.694 61.0373V66.4023L103.858 60.9582H103.123V69.5529H104.7V64.1614L109.535 69.6188H110.257V61.0373H108.694ZM117.541 65.9014V68.1423H120.961V69.5529H115.898V61.0373H120.827V62.4479H117.541V64.4779H120.507V65.9014H117.541ZM130.19 69.5529H132.007L130.017 65.9805C131.072 65.5852 131.727 64.7152 131.727 63.542C131.727 61.9732 130.605 61.0373 128.788 61.0373H126.089V69.5529H127.732V66.1914H128.4L130.19 69.5529Z" fill="#A5B1CC"/>
</g>
<defs>
<clipPath id="clip0_429_2956">
<rect width="117" height="45" fill="white" transform="translate(42 27)"/>
</clipPath>
</defs>
</svg>
