<svg width="200" height="100" viewBox="0 0 200 100" fill="none" xmlns="http://www.w3.org/2000/svg">
<path fill-rule="evenodd" clip-rule="evenodd" d="M100.278 25.3122C101.93 24.4568 103.814 24 105.807 24C112.733 24 118.356 29.515 118.356 36.3087C118.356 43.1014 112.733 48.6164 105.807 48.6164C103.814 48.6164 101.93 48.1606 100.277 47.3043C104.443 45.337 107.296 41.1469 107.296 36.3087C107.296 31.4705 104.444 27.2804 100.278 25.3122Z" fill="#A5B1CC"/>
<path fill-rule="evenodd" clip-rule="evenodd" d="M100.27 47.3032C98.6171 48.1596 96.7322 48.6164 94.7405 48.6164H87.3344L84.0009 51.886C83.6982 52.1829 83.2425 52.2717 82.8462 52.1109C82.4499 51.9501 82.1914 51.5713 82.1914 51.1499V25.5884C82.1914 24.7113 82.9166 24 83.8108 24H94.7808C96.7592 24.0059 98.6301 24.4627 100.271 25.3122C96.1044 27.2794 93.2508 31.4695 93.2508 36.3077C93.2508 41.147 96.1044 45.337 100.27 47.3032Z" fill="#A5B1CC"/>
<path fill-rule="evenodd" clip-rule="evenodd" d="M83.6657 76.0188C80.3037 75.9546 77.5977 73.2965 77.5977 70.0102C77.5977 66.723 80.3136 64.0545 83.6657 64.0545C87.0169 64.0545 89.7435 66.723 89.7435 70.0102C89.7435 70.3427 89.7139 70.6686 89.6647 70.9869H80.5972C80.9883 72.3688 82.2679 73.3758 83.714 73.4108C85.0724 73.4079 86.2061 73.0886 87.1046 72.315L88.913 74.1504C88.8146 74.2552 88.7072 74.3554 88.5999 74.4498C87.3784 75.5409 85.688 76.0207 83.6657 76.0188ZM99.7497 74.9826L99.3389 75.1989C96.4271 76.7783 92.5381 76.1435 92.3815 72.315L92.3519 71.5697V66.6427H90.437V64.2944H92.4307L92.6553 60.2969H95.2352V64.2944H98.2248V66.6427H95.2352V71.7785H95.245C95.2352 73.7744 96.8566 73.5515 97.7363 73.0036L99.7497 74.9826ZM62.8324 75.1309C61.9237 75.6608 60.8683 75.9659 59.7348 75.9659C56.3832 75.9659 53.6569 73.2965 53.6569 70.0102C53.6569 66.723 56.3832 64.0545 59.7348 64.0545C60.8586 64.0545 61.9139 64.3558 62.8227 64.882C63.1939 65.0973 63.9268 65.6546 64.3763 66.4065L62.3634 68.3354C61.8357 67.3256 60.8781 66.6446 59.7348 66.6446C58.0248 66.6446 56.7739 68.1521 56.7739 70.0102C56.7739 71.8673 58.0248 73.3758 59.7348 73.3758C60.8781 73.3758 61.8357 72.6947 62.3634 71.684L64.3763 73.6101C63.9268 74.3591 63.1939 74.9146 62.8227 75.13L62.8324 75.1309ZM46.1328 64.0545C49.4844 64.0545 52.201 66.723 52.201 70.0102C52.201 73.2965 49.4844 75.9659 46.1328 75.9659C42.7811 75.9659 40.0549 73.2965 40.0549 70.0102C40.0549 66.723 42.7811 64.0545 46.1328 64.0545ZM69.0178 69.0335L70.6497 67.0196L73.4052 64.2821H77.3919L71.9004 69.7977L77.8509 75.7807H73.8645L69.907 71.8021L69.2817 72.2952L69.2718 75.7807H66.3013V60.2969H69.2718V65.8105L69.0178 69.0335ZM32.6187 60.2969C35.9997 60.2969 38.7357 63.2809 38.7357 66.5945C38.7357 66.5945 38.7357 66.5974 38.7357 66.5993C38.7357 69.912 35.9997 73.0301 32.6187 73.0301H30.3809V75.7807H27V60.2969H32.6187ZM46.1328 66.6446C47.833 66.6446 49.0545 68.1521 49.0545 70.0102C49.0545 71.8673 47.833 73.3758 46.1328 73.3758C44.4227 73.3758 43.1525 71.8673 43.1525 70.0102C43.1525 68.1521 44.4227 66.6446 46.1328 66.6446ZM35.3938 66.5954C35.3938 64.949 34.143 63.3168 32.4721 63.3168H30.3809V70.0102H32.4721C34.143 70.0102 35.3938 68.5527 35.3938 66.5983V66.5954ZM86.7046 69.0335C86.3135 67.6515 85.0625 66.5993 83.6657 66.5993C82.2777 66.5993 80.9883 67.6515 80.5972 69.0335H86.7046Z" fill="#A5B1CC"/>
<path fill-rule="evenodd" clip-rule="evenodd" d="M121.191 65.6839C122.295 64.6496 123.789 64.0148 125.441 64.0148C128.841 64.0148 131.607 66.724 131.607 70.0613C131.607 73.3985 128.841 76.1076 125.441 76.1076C123.789 76.1076 122.295 75.4729 121.191 74.4395V79.9985H119.276V64.3322H121.191V65.6839ZM141.046 75.1687L140.626 75.384C137.675 76.988 134.46 76.0358 134.314 72.3188V65.9994H132.085V64.3445H134.314V60.2251H136.228V64.3445H139.649V65.9994H136.228V71.9637C136.228 74.8504 138.633 74.6293 139.62 73.7716L141.046 75.1687ZM153.202 64.0148C156.602 64.0148 159.367 66.724 159.367 70.0613C159.367 73.3985 156.602 76.1076 153.202 76.1076C149.802 76.1076 147.036 73.3985 147.036 70.0613C147.036 66.724 149.802 64.0148 153.202 64.0148ZM108.917 60.0664C113.413 60.0664 117.047 63.6389 117.047 68.0407C117.047 72.4426 113.413 76.016 108.917 76.016C104.432 76.016 100.787 72.4426 100.787 68.0407C100.787 63.6389 104.432 60.0664 108.917 60.0664ZM144.886 64.3322H142.971V75.7779H144.886V64.3322ZM171.094 70.0613C171.094 67.5505 169.755 65.6273 167.391 65.6273C165.446 65.6273 163.149 66.7343 163.149 70.0603V75.7779H161.273V64.3322H163.149V65.7708C164.303 64.3917 166.052 64.0148 167.528 64.0148C170.859 64.0148 173.028 66.0486 173 69.7136C173 69.8072 172.99 69.9961 172.98 70.1793V75.7779H171.094V70.0613ZM153.202 65.512C155.615 65.512 157.58 67.5505 157.58 70.0613C157.58 72.572 155.615 74.6104 153.202 74.6104C150.789 74.6104 148.834 72.572 148.834 70.0613C148.834 67.5505 150.789 65.512 153.202 65.512ZM125.441 65.512C127.854 65.512 129.809 67.5505 129.809 70.0613C129.809 72.572 127.854 74.6104 125.441 74.6104C123.028 74.6104 121.073 72.572 121.073 70.0613C121.073 67.5505 123.028 65.512 125.441 65.512ZM108.917 61.7232C112.269 61.7232 114.986 64.5542 114.986 68.0407C114.986 71.5272 112.269 74.3582 108.917 74.3582C105.575 74.3582 102.849 71.5272 102.849 68.0407C102.849 64.5542 105.575 61.7232 108.917 61.7232ZM143.929 60.2251C144.652 60.2251 145.248 60.807 145.248 61.5239C145.248 62.2399 144.652 62.8218 143.929 62.8218C143.196 62.8218 142.6 62.2399 142.6 61.5239C142.6 60.807 143.196 60.2251 143.929 60.2251Z" fill="#A5B1CC"/>
</svg>
