<svg width="60" height="60" viewBox="0 0 60 60" fill="none" xmlns="http://www.w3.org/2000/svg">
<path fill-rule="evenodd" clip-rule="evenodd" d="M47.9455 54.0141C55.2412 48.5416 59.9614 39.822 59.9614 30C59.9614 13.4315 46.5299 0 29.9614 0C14.6501 0 2.01792 11.4703 0.188915 26.2868C0.605908 25.756 1.03057 25.2327 1.47229 24.725C1.71696 24.455 2.23159 24.6654 2.58896 25.4014C2.77428 25.8111 3.13372 26.2239 3.49541 26.6393C3.6728 26.8431 3.85073 27.0474 4.00893 27.2523C4.11239 27.3951 4.20991 27.6376 4.15937 27.7029C4.05413 27.7467 3.75236 27.722 3.64087 27.6357C1.86505 26.1985 1.26244 26.8388 0.809964 27.6997C0.418139 28.4823 1.00978 28.7315 1.88266 28.8015C2.65643 28.8606 3.25433 29.4081 3.83922 29.9438C4.06874 30.154 4.2963 30.3624 4.53166 30.5387C4.63968 30.6224 4.60685 30.8879 4.57102 31.1778C4.54768 31.3667 4.52306 31.5659 4.53526 31.7318C4.5369 31.92 4.60094 32.1366 4.66261 32.3452C4.69054 32.4397 4.71799 32.5326 4.73893 32.6204C4.83187 32.6109 4.93684 32.6107 5.04182 32.6105C5.28677 32.6101 5.53171 32.6096 5.6237 32.4908C6.41789 31.7109 6.4483 31.3333 6.57218 29.7952C6.58742 29.6059 6.60408 29.3992 6.62374 29.1719C6.66586 28.7008 6.53195 28.2477 6.39546 27.7858C6.35088 27.635 6.30602 27.4832 6.26693 27.3295C6.37777 27.3622 6.49578 27.3856 6.61378 27.409C6.8667 27.4591 7.11971 27.5093 7.30215 27.6505C8.06028 28.2374 9.14221 30.2025 8.90973 30.5028C8.74312 30.7514 8.55201 30.9864 8.36113 31.2212C7.49614 32.285 6.63588 33.3431 8.08217 35.6259C8.21444 35.8466 8.01445 36.1036 7.81977 36.3537C7.73964 36.4567 7.6604 36.5585 7.60562 36.6561C7.35916 37.1127 5.74908 37.5693 5.53503 38.0301C5.50679 38.1127 4.30756 38.407 4.40686 38.463C4.58317 38.5577 4.86471 38.6085 4.94766 38.5474C5.13142 38.4197 6.65228 38.257 6.80799 38.0959C7.11 37.7833 7.40627 37.4766 7.87924 37.4431C8.20641 37.4169 6.48419 38.321 6.11584 39.2498C5.71366 40.2639 3.93619 41.3074 4.39054 41.2013C4.40065 41.1882 7.57644 41.6 7.57644 41.6L7.67875 41.5854C8.80845 41.4248 9.96151 41.2609 10.9006 40.8527C11.3036 40.6676 11.4134 40.799 11.6223 41.0489C11.8434 41.3135 12.1755 41.7108 13.0839 42.0059C13.1981 41.899 13.312 41.7912 13.426 41.6832C13.9584 41.1788 14.4961 40.6693 15.1026 40.2272C15.1711 40.1693 15.4435 40.3153 15.7279 40.4677C15.8718 40.5448 16.0188 40.6235 16.144 40.6784C16.0715 40.8001 15.9675 40.9113 15.8634 41.0227C15.4541 41.4603 15.042 41.9009 16.5238 42.9979C17.0467 43.3818 17.1264 43.9238 16.7988 44.2549C16.4834 44.6164 16.068 44.4619 15.4196 44.148C14.0071 43.4551 14.0217 43.502 14.339 44.5231L14.3814 44.66C14.6647 45.5691 18.1204 46.1236 18.8923 46.7112C18.9848 46.7816 19.078 46.8526 19.1711 46.9246C18.7735 47.4383 18.5 47.235 17.9632 46.8359C17.5447 46.5249 15.9221 46.6657 15 46.3636C13.5698 45.8949 14.3884 46.2546 14.2105 46.9885L14.203 47.0197C14.0939 47.4558 14.6474 47.854 15.2021 48.253C15.4262 48.4142 15.6505 48.5755 15.8313 48.7395C16.8856 49.6809 16.9852 49.9668 16.5443 50.3982C16.0221 50.8991 15.3854 50.4029 14.7354 49.8963L14.6157 49.8033C14.4959 49.7106 14.3793 49.6086 14.2636 49.5073C14.0345 49.3069 13.8086 49.1092 13.5677 48.9921C12.5788 48.519 12.3244 49.0321 12.1103 49.4929C12.002 49.729 11.9792 50.0112 11.9564 50.2942C11.9465 50.4174 11.9365 50.5409 11.9195 50.6607C11.9785 50.674 12.0445 50.6989 12.1101 50.7238C12.2134 50.7628 12.3156 50.8015 12.3874 50.7932C13.2133 50.7213 15.2764 51.2576 15.9997 51.8122C16.1471 51.9252 16.2955 52.0389 16.4461 52.1485C17.1029 52.636 17.3506 53.0991 17.1749 53.4643C16.9614 53.908 16.573 54.2335 15.6924 53.2477C15.7034 53.2163 15.7071 53.1851 15.7002 53.1582C15.6351 52.9198 15.4606 52.6386 15.4205 52.9207C15.1463 52.3536 14.8648 52.3027 14.8446 52.3288C14.8773 52.5629 14.9323 52.8144 15.0521 53.0742C15.0801 53.1439 15.1912 53.2433 15.299 53.3177C15.0353 54.1208 14.7189 54.5807 13.6807 54.247C13.5607 54.2117 13.4687 54.2277 13.374 54.2441C13.3313 54.2515 13.2879 54.259 13.2413 54.2619C13.5157 54.6904 13.6398 54.986 13.6556 55.186C16.4815 57.0193 19.6353 58.3899 23.0098 59.1905C23.0877 58.452 23.3119 57.7826 23.9262 57.308C24.7992 56.6372 25.4034 55.7154 26.0056 54.7966C26.1318 54.6041 26.2581 54.4114 26.3866 54.2215C26.7665 53.6385 27.382 53.4884 28.3298 53.5538C28.786 53.5871 28.9726 53.3141 29.1677 53.0285C29.4057 52.6803 29.6564 52.3134 30.4242 52.4603C31.4337 52.6482 31.7087 52.0942 31.9854 51.5371C32.1274 51.2513 32.2697 50.9646 32.5118 50.7768C32.6942 50.6385 32.8496 50.4665 33.0042 50.2954C33.2886 49.9807 33.5701 49.6692 34.0108 49.5773C34.252 49.5271 34.6722 49.7498 35.1198 49.9871C35.461 50.1679 35.8182 50.3573 36.124 50.4404C37.0924 50.7097 37.9551 50.7928 38.2842 50.0452C38.3771 49.8302 38.6632 49.7352 38.9453 49.6415C39.074 49.5988 39.2018 49.5563 39.3102 49.5028C39.3717 49.6054 39.4388 49.7056 39.5048 49.804C39.6393 50.0047 39.769 50.1982 39.8359 50.39C40.0834 51.0979 40.3111 51.798 40.5242 52.4532C40.6645 52.8845 40.7985 53.2966 40.9276 53.6784C42.7712 54.291 43.8769 54.2906 44.3008 53.2823C44.3594 53.1606 44.4514 53.0647 44.5434 52.9689C44.6354 52.8731 44.7274 52.7772 44.786 52.6555C44.9899 52.2077 45.5489 52.2227 46.0739 52.65C46.4027 52.9203 46.7653 53.1731 47.1289 53.4266C47.4053 53.6194 47.6823 53.8126 47.9455 54.0141ZM39.8161 44.8409C39.8471 45.2616 39.878 45.6823 39.8946 46.0293L39.8845 46.0424L38.8357 46.1075C38.8191 46.0219 38.7949 45.9304 38.7706 45.8382C38.7113 45.6133 38.651 45.3846 38.6968 45.2274C38.7592 45.0311 38.9693 44.9344 39.1714 44.8414C39.2108 44.8233 39.2499 44.8053 39.2875 44.7867C39.3686 44.7467 39.5169 44.7793 39.6541 44.8096C39.7121 44.8223 39.768 44.8347 39.8161 44.8409ZM6.67439 20.5034C6.66643 20.6949 6.65991 20.8519 6.66133 21.015C6.66341 21.0584 6.90869 21.2483 7.02821 21.2781C7.74531 21.4573 8.26081 20.7913 7.76193 20.2381C7.65511 20.1272 7.34708 20.1082 7.06163 20.0906C6.9244 20.0821 6.79237 20.074 6.69045 20.0561C6.68578 20.2291 6.67975 20.3742 6.67439 20.5034ZM16.9283 41.1494C16.8254 41.1409 16.7246 41.1326 16.6486 41.1316L16.1803 40.7691C16.2039 40.7387 16.2223 40.6995 16.2407 40.6604C16.2775 40.5822 16.3143 40.5039 16.3926 40.4949C16.7996 40.4758 17.314 40.4563 17.3999 41.1284C17.4028 41.1885 17.16 41.1685 16.9283 41.1494ZM40.2967 48.3661L39.7458 48.2947C39.8156 48.3861 39.8799 48.4787 39.9436 48.5704C40.0576 48.7345 40.1699 48.896 40.3077 49.0429C40.3617 49.0847 40.4691 49.0912 40.5864 49.0984C40.6628 49.1031 40.7433 49.108 40.8161 49.1231C40.6537 48.8722 40.4691 48.604 40.2967 48.3661ZM19.9554 47.3956C19.8525 47.3872 19.7517 47.3789 19.6757 47.3779L19.2075 47.0154C19.231 46.9849 19.2494 46.9458 19.2678 46.9067C19.3046 46.8284 19.3414 46.7502 19.4197 46.7412C19.8267 46.7221 20.3411 46.7026 20.427 47.3747C20.4299 47.4347 20.1871 47.4147 19.9554 47.3956Z" fill="white"/>
<path d="M0.0906905 32.804C0.0517277 32.3836 0.0214374 31.9607 0 31.5355C0.10082 31.5057 0.195138 31.4791 0.292457 31.4548C0.334971 31.4459 0.580245 31.6358 0.639113 31.744C0.941405 32.2997 0.607394 32.8676 0.0906905 32.804Z" fill="white"/>
<path d="M30.32 20.9062C31.016 20.9099 32.7575 20.9258 34.6085 20.9955L35.2655 21.0223C37.1282 21.1042 38.9896 21.246 39.9138 21.4867C41.1456 21.8118 42.1128 22.7577 42.44 23.9577C42.9614 25.8641 43.0266 29.5816 43.0344 30.4823L43.0357 30.668V30.8807C43.0266 31.7813 42.9614 35.5 42.44 37.4052C42.1089 38.6089 41.1404 39.556 39.9138 39.8762C38.9896 40.117 37.1282 40.2587 35.2655 40.3406L34.6085 40.3687C32.7575 40.4371 31.016 40.4543 30.32 40.4567L30.0136 40.4579H29.6812C28.2083 40.4494 22.0479 40.387 20.0874 39.8762C18.8569 39.5512 17.8884 38.6053 17.5612 37.4052C17.0398 35.4988 16.9746 31.7813 16.9668 30.8807V30.4823C16.9746 29.5816 17.0398 25.8629 17.5612 23.9577C17.8923 22.754 18.8608 21.8069 20.0887 21.4879C22.0479 20.9759 28.2096 20.9136 29.6825 20.9062H30.32ZM27.3936 26.4055V34.9599L35.2146 30.6827L27.3936 26.4055Z" fill="#00172D"/>
</svg>
