<svg width="49" height="52" viewBox="0 0 49 52" fill="none" xmlns="http://www.w3.org/2000/svg">
<g clip-path="url(#clip0_611_985)">
<g filter="url(#filter0_f_611_985)">
<path fill-rule="evenodd" clip-rule="evenodd" d="M18.5552 18.0317H16.7579L15.5079 19.2817V23.015H21.25V24.3606L20.9763 24.6343H15.8333V26.301H18.0473V27.6668H19.714V26.301H21.6667L22.9166 25.051V21.3484H17.1745V19.9721L17.4482 19.6984H22.4359V18.0317H20.2219V16.8335H18.5552V18.0317Z" fill="#FF5B65"/>
<path fill-rule="evenodd" clip-rule="evenodd" d="M28.208 25.1668H33.4983V26.8335H28.8983L28.6447 27.0871V32.8254L28.8983 33.079H33.4983V34.7457H28.208L26.978 33.5158V26.3968L28.208 25.1668Z" fill="#FF5B65"/>
<path fill-rule="evenodd" clip-rule="evenodd" d="M25.8333 28.0973H32.262V29.3473H25.8333V28.0973ZM25.8333 30.5469H31.5202V31.7969H25.8333V30.5469Z" fill="#FF5B65"/>
<path fill-rule="evenodd" clip-rule="evenodd" d="M23.6785 32.2502L21.0059 29.5776L19.8274 30.7561L20.4881 31.4168H16.6666L16.6667 33.0835L20.4881 33.0835L19.8274 33.7442L21.0059 34.9228L23.6785 32.2502Z" fill="#FF5B65"/>
<path fill-rule="evenodd" clip-rule="evenodd" d="M26.3215 19.7502L28.9941 17.0776L30.1726 18.2561L29.5118 18.9168L33.3333 18.9168V20.5835H29.5118L30.1726 21.2442L28.9941 22.4228L26.3215 19.7502Z" fill="#FF5B65"/>
<path fill-rule="evenodd" clip-rule="evenodd" d="M18.5552 18.0317H16.7579L15.5079 19.2817V23.015H21.25V24.3606L20.9763 24.6343H15.8333V26.301H18.0473V27.6668H19.714V26.301H21.6667L22.9166 25.051V21.3484H17.1745V19.9721L17.4482 19.6984H22.4359V18.0317H20.2219V16.8335H18.5552V18.0317Z" stroke="#FF5B65"/>
<path fill-rule="evenodd" clip-rule="evenodd" d="M28.208 25.1668H33.4983V26.8335H28.8983L28.6447 27.0871V32.8254L28.8983 33.079H33.4983V34.7457H28.208L26.978 33.5158V26.3968L28.208 25.1668Z" stroke="#FF5B65"/>
<path fill-rule="evenodd" clip-rule="evenodd" d="M25.8333 28.0973H32.262V29.3473H25.8333V28.0973ZM25.8333 30.5469H31.5202V31.7969H25.8333V30.5469Z" stroke="#FF5B65"/>
<path fill-rule="evenodd" clip-rule="evenodd" d="M23.6785 32.2502L21.0059 29.5776L19.8274 30.7561L20.4881 31.4168H16.6666L16.6667 33.0835L20.4881 33.0835L19.8274 33.7442L21.0059 34.9228L23.6785 32.2502Z" stroke="#FF5B65"/>
<path fill-rule="evenodd" clip-rule="evenodd" d="M26.3215 19.7502L28.9941 17.0776L30.1726 18.2561L29.5118 18.9168L33.3333 18.9168V20.5835H29.5118L30.1726 21.2442L28.9941 22.4228L26.3215 19.7502Z" stroke="#FF5B65"/>
</g>
</g>
<g opacity="0.5" filter="url(#filter1_f_611_985)">
<path fill-rule="evenodd" clip-rule="evenodd" d="M18.5552 18.0317H16.7579L15.5079 19.2817V23.015H21.25V24.3606L20.9763 24.6343H15.8333V26.301H18.0473V27.6668H19.714V26.301H21.6667L22.9166 25.051V21.3484H17.1745V19.9721L17.4482 19.6984H22.4359V18.0317H20.2219V16.8335H18.5552V18.0317Z" fill="#FF5B65"/>
<path fill-rule="evenodd" clip-rule="evenodd" d="M28.208 25.1668H33.4983V26.8335H28.8983L28.6447 27.0871V32.8254L28.8983 33.079H33.4983V34.7457H28.208L26.978 33.5158V26.3968L28.208 25.1668Z" fill="#FF5B65"/>
<path fill-rule="evenodd" clip-rule="evenodd" d="M25.8333 28.0973H32.262V29.3473H25.8333V28.0973ZM25.8333 30.5469H31.5202V31.7969H25.8333V30.5469Z" fill="#FF5B65"/>
<path fill-rule="evenodd" clip-rule="evenodd" d="M23.6785 32.2502L21.0059 29.5776L19.8274 30.7561L20.4881 31.4168H16.6666L16.6667 33.0835L20.4881 33.0835L19.8274 33.7442L21.0059 34.9228L23.6785 32.2502Z" fill="#FF5B65"/>
<path fill-rule="evenodd" clip-rule="evenodd" d="M26.3215 19.7502L28.9941 17.0776L30.1726 18.2561L29.5118 18.9168L33.3333 18.9168V20.5835H29.5118L30.1726 21.2442L28.9941 22.4228L26.3215 19.7502Z" fill="#FF5B65"/>
<path fill-rule="evenodd" clip-rule="evenodd" d="M18.5552 18.0317H16.7579L15.5079 19.2817V23.015H21.25V24.3606L20.9763 24.6343H15.8333V26.301H18.0473V27.6668H19.714V26.301H21.6667L22.9166 25.051V21.3484H17.1745V19.9721L17.4482 19.6984H22.4359V18.0317H20.2219V16.8335H18.5552V18.0317Z" stroke="#FF5B65" stroke-width="2"/>
<path fill-rule="evenodd" clip-rule="evenodd" d="M28.208 25.1668H33.4983V26.8335H28.8983L28.6447 27.0871V32.8254L28.8983 33.079H33.4983V34.7457H28.208L26.978 33.5158V26.3968L28.208 25.1668Z" stroke="#FF5B65" stroke-width="2"/>
<path fill-rule="evenodd" clip-rule="evenodd" d="M25.8333 28.0973H32.262V29.3473H25.8333V28.0973ZM25.8333 30.5469H31.5202V31.7969H25.8333V30.5469Z" stroke="#FF5B65" stroke-width="2"/>
<path fill-rule="evenodd" clip-rule="evenodd" d="M23.6785 32.2502L21.0059 29.5776L19.8274 30.7561L20.4881 31.4168H16.6666L16.6667 33.0835L20.4881 33.0835L19.8274 33.7442L21.0059 34.9228L23.6785 32.2502Z" stroke="#FF5B65" stroke-width="2"/>
<path fill-rule="evenodd" clip-rule="evenodd" d="M26.3215 19.7502L28.9941 17.0776L30.1726 18.2561L29.5118 18.9168L33.3333 18.9168V20.5835H29.5118L30.1726 21.2442L28.9941 22.4228L26.3215 19.7502Z" stroke="#FF5B65" stroke-width="2"/>
</g>
<g opacity="0.5" filter="url(#filter2_f_611_985)">
<path fill-rule="evenodd" clip-rule="evenodd" d="M18.5552 18.0317H16.7579L15.5079 19.2817V23.015H21.25V24.3606L20.9763 24.6343H15.8333V26.301H18.0473V27.6668H19.714V26.301H21.6667L22.9166 25.051V21.3484H17.1745V19.9721L17.4482 19.6984H22.4359V18.0317H20.2219V16.8335H18.5552V18.0317Z" fill="#FF5B65"/>
<path fill-rule="evenodd" clip-rule="evenodd" d="M28.208 25.1668H33.4983V26.8335H28.8983L28.6447 27.0871V32.8254L28.8983 33.079H33.4983V34.7457H28.208L26.978 33.5158V26.3968L28.208 25.1668Z" fill="#FF5B65"/>
<path fill-rule="evenodd" clip-rule="evenodd" d="M25.8333 28.0973H32.262V29.3473H25.8333V28.0973ZM25.8333 30.5469H31.5202V31.7969H25.8333V30.5469Z" fill="#FF5B65"/>
<path fill-rule="evenodd" clip-rule="evenodd" d="M23.6785 32.2502L21.0059 29.5776L19.8274 30.7561L20.4881 31.4168H16.6666L16.6667 33.0835L20.4881 33.0835L19.8274 33.7442L21.0059 34.9228L23.6785 32.2502Z" fill="#FF5B65"/>
<path fill-rule="evenodd" clip-rule="evenodd" d="M26.3215 19.7502L28.9941 17.0776L30.1726 18.2561L29.5118 18.9168L33.3333 18.9168V20.5835H29.5118L30.1726 21.2442L28.9941 22.4228L26.3215 19.7502Z" fill="#FF5B65"/>
<path fill-rule="evenodd" clip-rule="evenodd" d="M18.5552 18.0317H16.7579L15.5079 19.2817V23.015H21.25V24.3606L20.9763 24.6343H15.8333V26.301H18.0473V27.6668H19.714V26.301H21.6667L22.9166 25.051V21.3484H17.1745V19.9721L17.4482 19.6984H22.4359V18.0317H20.2219V16.8335H18.5552V18.0317Z" stroke="#FF5B65" stroke-width="5"/>
<path fill-rule="evenodd" clip-rule="evenodd" d="M28.208 25.1668H33.4983V26.8335H28.8983L28.6447 27.0871V32.8254L28.8983 33.079H33.4983V34.7457H28.208L26.978 33.5158V26.3968L28.208 25.1668Z" stroke="#FF5B65" stroke-width="5"/>
<path fill-rule="evenodd" clip-rule="evenodd" d="M25.8333 28.0973H32.262V29.3473H25.8333V28.0973ZM25.8333 30.5469H31.5202V31.7969H25.8333V30.5469Z" stroke="#FF5B65" stroke-width="5"/>
<path fill-rule="evenodd" clip-rule="evenodd" d="M23.6785 32.2502L21.0059 29.5776L19.8274 30.7561L20.4881 31.4168H16.6666L16.6667 33.0835L20.4881 33.0835L19.8274 33.7442L21.0059 34.9228L23.6785 32.2502Z" stroke="#FF5B65" stroke-width="5"/>
<path fill-rule="evenodd" clip-rule="evenodd" d="M26.3215 19.7502L28.9941 17.0776L30.1726 18.2561L29.5118 18.9168L33.3333 18.9168V20.5835H29.5118L30.1726 21.2442L28.9941 22.4228L26.3215 19.7502Z" stroke="#FF5B65" stroke-width="5"/>
</g>
<path fill-rule="evenodd" clip-rule="evenodd" d="M18.5552 18.0317H16.7579L15.5079 19.2817V23.015H21.25V24.3606L20.9763 24.6343H15.8333V26.301H18.0473V27.6668H19.714V26.301H21.6667L22.9166 25.051V21.3484H17.1745V19.9721L17.4482 19.6984H22.4359V18.0317H20.2219V16.8335H18.5552V18.0317Z" fill="white"/>
<path fill-rule="evenodd" clip-rule="evenodd" d="M28.208 25.1668H33.4983V26.8335H28.8983L28.6447 27.0871V32.8254L28.8983 33.079H33.4983V34.7457H28.208L26.978 33.5158V26.3968L28.208 25.1668Z" fill="white"/>
<path fill-rule="evenodd" clip-rule="evenodd" d="M25.8333 28.0973H32.262V29.3473H25.8333V28.0973ZM25.8333 30.5469H31.5202V31.7969H25.8333V30.5469Z" fill="white"/>
<path fill-rule="evenodd" clip-rule="evenodd" d="M23.6785 32.2502L21.0059 29.5776L19.8274 30.7561L20.4881 31.4168H16.6666L16.6667 33.0835L20.4881 33.0835L19.8274 33.7442L21.0059 34.9228L23.6785 32.2502Z" fill="white"/>
<path fill-rule="evenodd" clip-rule="evenodd" d="M26.3215 19.7502L28.9941 17.0776L30.1726 18.2561L29.5118 18.9168L33.3333 18.9168V20.5835H29.5118L30.1726 21.2442L28.9941 22.4228L26.3215 19.7502Z" fill="white"/>
<defs>
<filter id="filter0_f_611_985" x="13.0079" y="14.3335" width="22.9904" height="23.2964" filterUnits="userSpaceOnUse" color-interpolation-filters="sRGB">
<feFlood flood-opacity="0" result="BackgroundImageFix"/>
<feBlend mode="normal" in="SourceGraphic" in2="BackgroundImageFix" result="shape"/>
<feGaussianBlur stdDeviation="1" result="effect1_foregroundBlur_611_985"/>
</filter>
<filter id="filter1_f_611_985" x="10.5079" y="11.6636" width="27.9904" height="28.6733" filterUnits="userSpaceOnUse" color-interpolation-filters="sRGB">
<feFlood flood-opacity="0" result="BackgroundImageFix"/>
<feBlend mode="normal" in="SourceGraphic" in2="BackgroundImageFix" result="shape"/>
<feGaussianBlur stdDeviation="2" result="effect1_foregroundBlur_611_985"/>
</filter>
<filter id="filter2_f_611_985" x="0.00787354" y="0.541992" width="48.9904" height="50.9165" filterUnits="userSpaceOnUse" color-interpolation-filters="sRGB">
<feFlood flood-opacity="0" result="BackgroundImageFix"/>
<feBlend mode="normal" in="SourceGraphic" in2="BackgroundImageFix" result="shape"/>
<feGaussianBlur stdDeviation="6.5" result="effect1_foregroundBlur_611_985"/>
</filter>
<clipPath id="clip0_611_985">
<rect width="20" height="20" fill="white" transform="translate(15 16)"/>
</clipPath>
</defs>
</svg>
