<svg width="44" height="50" viewBox="0 0 44 50" fill="none" xmlns="http://www.w3.org/2000/svg">
<g clip-path="url(#clip0_611_969)">
<g filter="url(#filter0_f_611_969)">
<path fill-rule="evenodd" clip-rule="evenodd" d="M18.4811 18.348H16.2432V31.652H18.4811V34.3994H20.1478V31.652H22.5094V34.3994H24.1761V31.652H26.3735L27.7568 30.2687V25.55L26.6531 24.4462L27.3092 23.4619V19.7313L25.9259 18.348H24.1761V15.6006H22.5094V18.348H20.1478V15.6006H18.4811V18.348ZM25.1347 23.7191L25.6426 22.9573V20.4217L25.2356 20.0146H17.9098V23.7191H25.1347ZM17.9098 25.3857V29.9854H25.6831L26.0902 29.5783V26.2404L25.2356 25.3857H17.9098Z" fill="#FF5B65"/>
<path fill-rule="evenodd" clip-rule="evenodd" d="M18.4811 18.348H16.2432V31.652H18.4811V34.3994H20.1478V31.652H22.5094V34.3994H24.1761V31.652H26.3735L27.7568 30.2687V25.55L26.6531 24.4462L27.3092 23.4619V19.7313L25.9259 18.348H24.1761V15.6006H22.5094V18.348H20.1478V15.6006H18.4811V18.348ZM25.1347 23.7191L25.6426 22.9573V20.4217L25.2356 20.0146H17.9098V23.7191H25.1347ZM17.9098 25.3857V29.9854H25.6831L26.0902 29.5783V26.2404L25.2356 25.3857H17.9098Z" stroke="#FF5B65"/>
</g>
</g>
<g opacity="0.5" filter="url(#filter1_f_611_969)">
<path fill-rule="evenodd" clip-rule="evenodd" d="M18.4811 18.348H16.2432V31.652H18.4811V34.3994H20.1478V31.652H22.5094V34.3994H24.1761V31.652H26.3735L27.7568 30.2687V25.55L26.6531 24.4462L27.3092 23.4619V19.7313L25.9259 18.348H24.1761V15.6006H22.5094V18.348H20.1478V15.6006H18.4811V18.348ZM25.1347 23.7191L25.6426 22.9573V20.4217L25.2356 20.0146H17.9098V23.7191H25.1347ZM17.9098 25.3857V29.9854H25.6831L26.0902 29.5783V26.2404L25.2356 25.3857H17.9098Z" fill="#FF5B65"/>
<path fill-rule="evenodd" clip-rule="evenodd" d="M18.4811 18.348H16.2432V31.652H18.4811V34.3994H20.1478V31.652H22.5094V34.3994H24.1761V31.652H26.3735L27.7568 30.2687V25.55L26.6531 24.4462L27.3092 23.4619V19.7313L25.9259 18.348H24.1761V15.6006H22.5094V18.348H20.1478V15.6006H18.4811V18.348ZM25.1347 23.7191L25.6426 22.9573V20.4217L25.2356 20.0146H17.9098V23.7191H25.1347ZM17.9098 25.3857V29.9854H25.6831L26.0902 29.5783V26.2404L25.2356 25.3857H17.9098Z" stroke="#FF5B65" stroke-width="2"/>
</g>
<g opacity="0.5" filter="url(#filter2_f_611_969)">
<path fill-rule="evenodd" clip-rule="evenodd" d="M18.4811 18.348H16.2432V31.652H18.4811V34.3994H20.1478V31.652H22.5094V34.3994H24.1761V31.652H26.3735L27.7568 30.2687V25.55L26.6531 24.4462L27.3092 23.4619V19.7313L25.9259 18.348H24.1761V15.6006H22.5094V18.348H20.1478V15.6006H18.4811V18.348ZM25.1347 23.7191L25.6426 22.9573V20.4217L25.2356 20.0146H17.9098V23.7191H25.1347ZM17.9098 25.3857V29.9854H25.6831L26.0902 29.5783V26.2404L25.2356 25.3857H17.9098Z" fill="#FF5B65"/>
<path fill-rule="evenodd" clip-rule="evenodd" d="M18.4811 18.348H16.2432V31.652H18.4811V34.3994H20.1478V31.652H22.5094V34.3994H24.1761V31.652H26.3735L27.7568 30.2687V25.55L26.6531 24.4462L27.3092 23.4619V19.7313L25.9259 18.348H24.1761V15.6006H22.5094V18.348H20.1478V15.6006H18.4811V18.348ZM25.1347 23.7191L25.6426 22.9573V20.4217L25.2356 20.0146H17.9098V23.7191H25.1347ZM17.9098 25.3857V29.9854H25.6831L26.0902 29.5783V26.2404L25.2356 25.3857H17.9098Z" stroke="#FF5B65" stroke-width="5"/>
</g>
<path fill-rule="evenodd" clip-rule="evenodd" d="M18.4811 18.348H16.2432V31.652H18.4811V34.3994H20.1478V31.652H22.5094V34.3994H24.1761V31.652H26.3735L27.7568 30.2687V25.55L26.6531 24.4462L27.3092 23.4619V19.7313L25.9259 18.348H24.1761V15.6006H22.5094V18.348H20.1478V15.6006H18.4811V18.348ZM25.1347 23.7191L25.6426 22.9573V20.4217L25.2356 20.0146H17.9098V23.7191H25.1347ZM17.9098 25.3857V29.9854H25.6831L26.0902 29.5783V26.2404L25.2356 25.3857H17.9098Z" fill="white"/>
<defs>
<filter id="filter0_f_611_969" x="13.7432" y="13.1006" width="16.5137" height="23.7988" filterUnits="userSpaceOnUse" color-interpolation-filters="sRGB">
<feFlood flood-opacity="0" result="BackgroundImageFix"/>
<feBlend mode="normal" in="SourceGraphic" in2="BackgroundImageFix" result="shape"/>
<feGaussianBlur stdDeviation="1" result="effect1_foregroundBlur_611_969"/>
</filter>
<filter id="filter1_f_611_969" x="11.2432" y="10.6006" width="21.5137" height="28.7988" filterUnits="userSpaceOnUse" color-interpolation-filters="sRGB">
<feFlood flood-opacity="0" result="BackgroundImageFix"/>
<feBlend mode="normal" in="SourceGraphic" in2="BackgroundImageFix" result="shape"/>
<feGaussianBlur stdDeviation="2" result="effect1_foregroundBlur_611_969"/>
</filter>
<filter id="filter2_f_611_969" x="0.743164" y="0.100586" width="42.5137" height="49.7988" filterUnits="userSpaceOnUse" color-interpolation-filters="sRGB">
<feFlood flood-opacity="0" result="BackgroundImageFix"/>
<feBlend mode="normal" in="SourceGraphic" in2="BackgroundImageFix" result="shape"/>
<feGaussianBlur stdDeviation="6.5" result="effect1_foregroundBlur_611_969"/>
</filter>
<clipPath id="clip0_611_969">
<rect width="20" height="20" fill="white" transform="translate(12 15)"/>
</clipPath>
</defs>
</svg>
