<svg width="48" height="48" viewBox="0 0 48 48" fill="none" xmlns="http://www.w3.org/2000/svg">
<g clip-path="url(#clip0_611_989)">
<g filter="url(#filter0_f_611_989)">
<path fill-rule="evenodd" clip-rule="evenodd" d="M18.2382 15.6665H29.7619L32.3334 18.238V29.7617L29.7619 32.3332H18.2382L15.6667 29.7617V18.238L18.2382 15.6665ZM18.9285 17.3332L17.3334 18.9283V29.0713L18.9285 30.6665H29.0715L30.6667 29.0713V18.9283L29.0715 17.3332H18.9285Z" fill="#FF5B65"/>
<path d="M19.8343 19.8901H21.5009V21.5568H19.8343V19.8901Z" fill="#FF5B65"/>
<path d="M19.8343 26.4429H21.5009V28.1095H19.8343V26.4429Z" fill="#FF5B65"/>
<path d="M26.4991 19.8901H28.1658V21.5568H26.4991V19.8901Z" fill="#FF5B65"/>
<path d="M26.4991 26.4429H28.1658V28.1095H26.4991V26.4429Z" fill="#FF5B65"/>
<path d="M23.1667 23.1584H24.8334V24.825H23.1667V23.1584Z" fill="#FF5B65"/>
<path fill-rule="evenodd" clip-rule="evenodd" d="M18.2382 15.6665H29.7619L32.3334 18.238V29.7617L29.7619 32.3332H18.2382L15.6667 29.7617V18.238L18.2382 15.6665ZM18.9285 17.3332L17.3334 18.9283V29.0713L18.9285 30.6665H29.0715L30.6667 29.0713V18.9283L29.0715 17.3332H18.9285Z" stroke="#FF5B65"/>
<path d="M19.8343 19.8901H21.5009V21.5568H19.8343V19.8901Z" stroke="#FF5B65"/>
<path d="M19.8343 26.4429H21.5009V28.1095H19.8343V26.4429Z" stroke="#FF5B65"/>
<path d="M26.4991 19.8901H28.1658V21.5568H26.4991V19.8901Z" stroke="#FF5B65"/>
<path d="M26.4991 26.4429H28.1658V28.1095H26.4991V26.4429Z" stroke="#FF5B65"/>
<path d="M23.1667 23.1584H24.8334V24.825H23.1667V23.1584Z" stroke="#FF5B65"/>
</g>
</g>
<g opacity="0.5" filter="url(#filter1_f_611_989)">
<path fill-rule="evenodd" clip-rule="evenodd" d="M18.2382 15.6665H29.7619L32.3334 18.238V29.7617L29.7619 32.3332H18.2382L15.6667 29.7617V18.238L18.2382 15.6665ZM18.9285 17.3332L17.3334 18.9283V29.0713L18.9285 30.6665H29.0715L30.6667 29.0713V18.9283L29.0715 17.3332H18.9285Z" fill="#FF5B65"/>
<path d="M19.8343 19.8901H21.5009V21.5568H19.8343V19.8901Z" fill="#FF5B65"/>
<path d="M19.8343 26.4429H21.5009V28.1095H19.8343V26.4429Z" fill="#FF5B65"/>
<path d="M26.4991 19.8901H28.1658V21.5568H26.4991V19.8901Z" fill="#FF5B65"/>
<path d="M26.4991 26.4429H28.1658V28.1095H26.4991V26.4429Z" fill="#FF5B65"/>
<path d="M23.1667 23.1584H24.8334V24.825H23.1667V23.1584Z" fill="#FF5B65"/>
<path fill-rule="evenodd" clip-rule="evenodd" d="M18.2382 15.6665H29.7619L32.3334 18.238V29.7617L29.7619 32.3332H18.2382L15.6667 29.7617V18.238L18.2382 15.6665ZM18.9285 17.3332L17.3334 18.9283V29.0713L18.9285 30.6665H29.0715L30.6667 29.0713V18.9283L29.0715 17.3332H18.9285Z" stroke="#FF5B65" stroke-width="2"/>
<path d="M19.8343 19.8901H21.5009V21.5568H19.8343V19.8901Z" stroke="#FF5B65" stroke-width="2"/>
<path d="M19.8343 26.4429H21.5009V28.1095H19.8343V26.4429Z" stroke="#FF5B65" stroke-width="2"/>
<path d="M26.4991 19.8901H28.1658V21.5568H26.4991V19.8901Z" stroke="#FF5B65" stroke-width="2"/>
<path d="M26.4991 26.4429H28.1658V28.1095H26.4991V26.4429Z" stroke="#FF5B65" stroke-width="2"/>
<path d="M23.1667 23.1584H24.8334V24.825H23.1667V23.1584Z" stroke="#FF5B65" stroke-width="2"/>
</g>
<g opacity="0.5" filter="url(#filter2_f_611_989)">
<path fill-rule="evenodd" clip-rule="evenodd" d="M18.2382 15.6665H29.7619L32.3334 18.238V29.7617L29.7619 32.3332H18.2382L15.6667 29.7617V18.238L18.2382 15.6665ZM18.9285 17.3332L17.3334 18.9283V29.0713L18.9285 30.6665H29.0715L30.6667 29.0713V18.9283L29.0715 17.3332H18.9285Z" fill="#FF5B65"/>
<path d="M19.8343 19.8901H21.5009V21.5568H19.8343V19.8901Z" fill="#FF5B65"/>
<path d="M19.8343 26.4429H21.5009V28.1095H19.8343V26.4429Z" fill="#FF5B65"/>
<path d="M26.4991 19.8901H28.1658V21.5568H26.4991V19.8901Z" fill="#FF5B65"/>
<path d="M26.4991 26.4429H28.1658V28.1095H26.4991V26.4429Z" fill="#FF5B65"/>
<path d="M23.1667 23.1584H24.8334V24.825H23.1667V23.1584Z" fill="#FF5B65"/>
<path fill-rule="evenodd" clip-rule="evenodd" d="M18.2382 15.6665H29.7619L32.3334 18.238V29.7617L29.7619 32.3332H18.2382L15.6667 29.7617V18.238L18.2382 15.6665ZM18.9285 17.3332L17.3334 18.9283V29.0713L18.9285 30.6665H29.0715L30.6667 29.0713V18.9283L29.0715 17.3332H18.9285Z" stroke="#FF5B65" stroke-width="5"/>
<path d="M19.8343 19.8901H21.5009V21.5568H19.8343V19.8901Z" stroke="#FF5B65" stroke-width="5"/>
<path d="M19.8343 26.4429H21.5009V28.1095H19.8343V26.4429Z" stroke="#FF5B65" stroke-width="5"/>
<path d="M26.4991 19.8901H28.1658V21.5568H26.4991V19.8901Z" stroke="#FF5B65" stroke-width="5"/>
<path d="M26.4991 26.4429H28.1658V28.1095H26.4991V26.4429Z" stroke="#FF5B65" stroke-width="5"/>
<path d="M23.1667 23.1584H24.8334V24.825H23.1667V23.1584Z" stroke="#FF5B65" stroke-width="5"/>
</g>
<path fill-rule="evenodd" clip-rule="evenodd" d="M18.2382 15.6665H29.7619L32.3334 18.238V29.7617L29.7619 32.3332H18.2382L15.6667 29.7617V18.238L18.2382 15.6665ZM18.9285 17.3332L17.3334 18.9283V29.0713L18.9285 30.6665H29.0715L30.6667 29.0713V18.9283L29.0715 17.3332H18.9285Z" fill="white"/>
<path d="M19.8343 19.8901H21.5009V21.5568H19.8343V19.8901Z" fill="white"/>
<path d="M19.8343 26.4429H21.5009V28.1095H19.8343V26.4429Z" fill="white"/>
<path d="M26.4991 19.8901H28.1658V21.5568H26.4991V19.8901Z" fill="white"/>
<path d="M26.4991 26.4429H28.1658V28.1095H26.4991V26.4429Z" fill="white"/>
<path d="M23.1667 23.1584H24.8334V24.825H23.1667V23.1584Z" fill="white"/>
<defs>
<filter id="filter0_f_611_989" x="13.1667" y="13.1665" width="21.6667" height="21.6665" filterUnits="userSpaceOnUse" color-interpolation-filters="sRGB">
<feFlood flood-opacity="0" result="BackgroundImageFix"/>
<feBlend mode="normal" in="SourceGraphic" in2="BackgroundImageFix" result="shape"/>
<feGaussianBlur stdDeviation="1" result="effect1_foregroundBlur_611_989"/>
</filter>
<filter id="filter1_f_611_989" x="10.6667" y="10.6665" width="26.6667" height="26.6665" filterUnits="userSpaceOnUse" color-interpolation-filters="sRGB">
<feFlood flood-opacity="0" result="BackgroundImageFix"/>
<feBlend mode="normal" in="SourceGraphic" in2="BackgroundImageFix" result="shape"/>
<feGaussianBlur stdDeviation="2" result="effect1_foregroundBlur_611_989"/>
</filter>
<filter id="filter2_f_611_989" x="0.166687" y="0.166504" width="47.6667" height="47.6665" filterUnits="userSpaceOnUse" color-interpolation-filters="sRGB">
<feFlood flood-opacity="0" result="BackgroundImageFix"/>
<feBlend mode="normal" in="SourceGraphic" in2="BackgroundImageFix" result="shape"/>
<feGaussianBlur stdDeviation="6.5" result="effect1_foregroundBlur_611_989"/>
</filter>
<clipPath id="clip0_611_989">
<rect width="20" height="20" fill="white" transform="translate(14 14)"/>
</clipPath>
</defs>
</svg>
