<svg width="51" height="52" viewBox="0 0 51 52" fill="none" xmlns="http://www.w3.org/2000/svg">
<g clip-path="url(#clip0_611_991)">
<g filter="url(#filter0_f_611_991)">
<path fill-rule="evenodd" clip-rule="evenodd" d="M19.0539 23.5032L17.8121 25.0017L16.5288 23.9382L19.2494 20.6554L22.4228 16.9355L23.6908 18.0172L20.7206 21.4989V34.9603H19.0539V23.5032ZM28.1099 18.3918V17.0396H29.7766V18.3918H33.0184V20.0584H29.7766V21.8885H34.8296V23.5552H32.0405V25.8224H34.3768V27.4891H32.0405V34.5235L30.8047 35.2532L27.6351 33.5048L28.4401 32.0454L30.3739 33.1121V27.4891H24.4152V25.8224H30.3739V23.5552H23.5097V21.8885H28.1099V20.0584H26.2264V18.3918H28.1099ZM25.8095 29.0404L27.6207 30.3517L26.6433 31.7017L24.8321 30.3904L25.8095 29.0404Z" fill="#FF5B65"/>
<path fill-rule="evenodd" clip-rule="evenodd" d="M19.0539 23.5032L17.8121 25.0017L16.5288 23.9382L19.2494 20.6554L22.4228 16.9355L23.6908 18.0172L20.7206 21.4989V34.9603H19.0539V23.5032ZM28.1099 18.3918V17.0396H29.7766V18.3918H33.0184V20.0584H29.7766V21.8885H34.8296V23.5552H32.0405V25.8224H34.3768V27.4891H32.0405V34.5235L30.8047 35.2532L27.6351 33.5048L28.4401 32.0454L30.3739 33.1121V27.4891H24.4152V25.8224H30.3739V23.5552H23.5097V21.8885H28.1099V20.0584H26.2264V18.3918H28.1099ZM25.8095 29.0404L27.6207 30.3517L26.6433 31.7017L24.8321 30.3904L25.8095 29.0404Z" stroke="#FF5B65"/>
</g>
</g>
<g opacity="0.5" filter="url(#filter1_f_611_991)">
<path fill-rule="evenodd" clip-rule="evenodd" d="M19.0539 23.5032L17.8121 25.0017L16.5288 23.9382L19.2494 20.6554L22.4228 16.9355L23.6908 18.0172L20.7206 21.4989V34.9603H19.0539V23.5032ZM28.1099 18.3918V17.0396H29.7766V18.3918H33.0184V20.0584H29.7766V21.8885H34.8296V23.5552H32.0405V25.8224H34.3768V27.4891H32.0405V34.5235L30.8047 35.2532L27.6351 33.5048L28.4401 32.0454L30.3739 33.1121V27.4891H24.4152V25.8224H30.3739V23.5552H23.5097V21.8885H28.1099V20.0584H26.2264V18.3918H28.1099ZM25.8095 29.0404L27.6207 30.3517L26.6433 31.7017L24.8321 30.3904L25.8095 29.0404Z" fill="#FF5B65"/>
<path fill-rule="evenodd" clip-rule="evenodd" d="M19.0539 23.5032L17.8121 25.0017L16.5288 23.9382L19.2494 20.6554L22.4228 16.9355L23.6908 18.0172L20.7206 21.4989V34.9603H19.0539V23.5032ZM28.1099 18.3918V17.0396H29.7766V18.3918H33.0184V20.0584H29.7766V21.8885H34.8296V23.5552H32.0405V25.8224H34.3768V27.4891H32.0405V34.5235L30.8047 35.2532L27.6351 33.5048L28.4401 32.0454L30.3739 33.1121V27.4891H24.4152V25.8224H30.3739V23.5552H23.5097V21.8885H28.1099V20.0584H26.2264V18.3918H28.1099ZM25.8095 29.0404L27.6207 30.3517L26.6433 31.7017L24.8321 30.3904L25.8095 29.0404Z" stroke="#FF5B65" stroke-width="2"/>
</g>
<g opacity="0.5" filter="url(#filter2_f_611_991)">
<path fill-rule="evenodd" clip-rule="evenodd" d="M19.0539 23.5032L17.8121 25.0017L16.5288 23.9382L19.2494 20.6554L22.4228 16.9355L23.6908 18.0172L20.7206 21.4989V34.9603H19.0539V23.5032ZM28.1099 18.3918V17.0396H29.7766V18.3918H33.0184V20.0584H29.7766V21.8885H34.8296V23.5552H32.0405V25.8224H34.3768V27.4891H32.0405V34.5235L30.8047 35.2532L27.6351 33.5048L28.4401 32.0454L30.3739 33.1121V27.4891H24.4152V25.8224H30.3739V23.5552H23.5097V21.8885H28.1099V20.0584H26.2264V18.3918H28.1099ZM25.8095 29.0404L27.6207 30.3517L26.6433 31.7017L24.8321 30.3904L25.8095 29.0404Z" fill="#FF5B65"/>
<path fill-rule="evenodd" clip-rule="evenodd" d="M19.0539 23.5032L17.8121 25.0017L16.5288 23.9382L19.2494 20.6554L22.4228 16.9355L23.6908 18.0172L20.7206 21.4989V34.9603H19.0539V23.5032ZM28.1099 18.3918V17.0396H29.7766V18.3918H33.0184V20.0584H29.7766V21.8885H34.8296V23.5552H32.0405V25.8224H34.3768V27.4891H32.0405V34.5235L30.8047 35.2532L27.6351 33.5048L28.4401 32.0454L30.3739 33.1121V27.4891H24.4152V25.8224H30.3739V23.5552H23.5097V21.8885H28.1099V20.0584H26.2264V18.3918H28.1099ZM25.8095 29.0404L27.6207 30.3517L26.6433 31.7017L24.8321 30.3904L25.8095 29.0404Z" stroke="#FF5B65" stroke-width="5"/>
</g>
<path fill-rule="evenodd" clip-rule="evenodd" d="M19.0539 23.5032L17.8121 25.0017L16.5288 23.9382L19.2494 20.6554L22.4228 16.9355L23.6908 18.0172L20.7206 21.4989V34.9603H19.0539V23.5032ZM28.1099 18.3918V17.0396H29.7766V18.3918H33.0184V20.0584H29.7766V21.8885H34.8296V23.5552H32.0405V25.8224H34.3768V27.4891H32.0405V34.5235L30.8047 35.2532L27.6351 33.5048L28.4401 32.0454L30.3739 33.1121V27.4891H24.4152V25.8224H30.3739V23.5552H23.5097V21.8885H28.1099V20.0584H26.2264V18.3918H28.1099ZM25.8095 29.0404L27.6207 30.3517L26.6433 31.7017L24.8321 30.3904L25.8095 29.0404Z" fill="white"/>
<defs>
<filter id="filter0_f_611_991" x="13.8248" y="14.2305" width="23.5048" height="23.5981" filterUnits="userSpaceOnUse" color-interpolation-filters="sRGB">
<feFlood flood-opacity="0" result="BackgroundImageFix"/>
<feBlend mode="normal" in="SourceGraphic" in2="BackgroundImageFix" result="shape"/>
<feGaussianBlur stdDeviation="1" result="effect1_foregroundBlur_611_991"/>
</filter>
<filter id="filter1_f_611_991" x="11.1207" y="11.5259" width="28.7089" height="28.8784" filterUnits="userSpaceOnUse" color-interpolation-filters="sRGB">
<feFlood flood-opacity="0" result="BackgroundImageFix"/>
<feBlend mode="normal" in="SourceGraphic" in2="BackgroundImageFix" result="shape"/>
<feGaussianBlur stdDeviation="2" result="effect1_foregroundBlur_611_991"/>
</filter>
<filter id="filter2_f_611_991" x="0.00866699" y="0.411133" width="50.3209" height="50.7202" filterUnits="userSpaceOnUse" color-interpolation-filters="sRGB">
<feFlood flood-opacity="0" result="BackgroundImageFix"/>
<feBlend mode="normal" in="SourceGraphic" in2="BackgroundImageFix" result="shape"/>
<feGaussianBlur stdDeviation="6.5" result="effect1_foregroundBlur_611_991"/>
</filter>
<clipPath id="clip0_611_991">
<rect width="20" height="20" fill="white" transform="translate(16 16)"/>
</clipPath>
</defs>
</svg>
