<svg width="52" height="49" viewBox="0 0 52 49" fill="none" xmlns="http://www.w3.org/2000/svg">
<g clip-path="url(#clip0_611_993)">
<g filter="url(#filter0_f_611_993)">
<path fill-rule="evenodd" clip-rule="evenodd" d="M25.4583 16.066L26.5143 16.0435L35.1804 22.8404L34.1518 24.1518L26.023 17.7763L17.8757 24.7472L16.7922 23.4808L25.4583 16.066ZM25.1667 23.0473H24.0305V21.3806H27.9696V23.0473H26.8334V24.5319H32.3026V26.1986H26.8334V31.6223H34.6661V33.289H17.3339V31.6223H25.1667V26.1986H20.4852V24.5319H25.1667V23.0473ZM28.735 29.3986L31.8408 27.3305L32.7645 28.7178L29.6587 30.7858L28.735 29.3986ZM22.6484 30.7193L20.2849 28.6513L21.3824 27.397L23.7459 29.465L22.6484 30.7193Z" fill="#FF5B65"/>
<path fill-rule="evenodd" clip-rule="evenodd" d="M25.4583 16.066L26.5143 16.0435L35.1804 22.8404L34.1518 24.1518L26.023 17.7763L17.8757 24.7472L16.7922 23.4808L25.4583 16.066ZM25.1667 23.0473H24.0305V21.3806H27.9696V23.0473H26.8334V24.5319H32.3026V26.1986H26.8334V31.6223H34.6661V33.289H17.3339V31.6223H25.1667V26.1986H20.4852V24.5319H25.1667V23.0473ZM28.735 29.3986L31.8408 27.3305L32.7645 28.7178L29.6587 30.7858L28.735 29.3986ZM22.6484 30.7193L20.2849 28.6513L21.3824 27.397L23.7459 29.465L22.6484 30.7193Z" stroke="#FF5B65"/>
</g>
</g>
<g opacity="0.5" filter="url(#filter1_f_611_993)">
<path fill-rule="evenodd" clip-rule="evenodd" d="M25.4583 16.066L26.5143 16.0435L35.1804 22.8404L34.1518 24.1518L26.023 17.7763L17.8757 24.7472L16.7922 23.4808L25.4583 16.066ZM25.1667 23.0473H24.0305V21.3806H27.9696V23.0473H26.8334V24.5319H32.3026V26.1986H26.8334V31.6223H34.6661V33.289H17.3339V31.6223H25.1667V26.1986H20.4852V24.5319H25.1667V23.0473ZM28.735 29.3986L31.8408 27.3305L32.7645 28.7178L29.6587 30.7858L28.735 29.3986ZM22.6484 30.7193L20.2849 28.6513L21.3824 27.397L23.7459 29.465L22.6484 30.7193Z" fill="#FF5B65"/>
<path fill-rule="evenodd" clip-rule="evenodd" d="M25.4583 16.066L26.5143 16.0435L35.1804 22.8404L34.1518 24.1518L26.023 17.7763L17.8757 24.7472L16.7922 23.4808L25.4583 16.066ZM25.1667 23.0473H24.0305V21.3806H27.9696V23.0473H26.8334V24.5319H32.3026V26.1986H26.8334V31.6223H34.6661V33.289H17.3339V31.6223H25.1667V26.1986H20.4852V24.5319H25.1667V23.0473ZM28.735 29.3986L31.8408 27.3305L32.7645 28.7178L29.6587 30.7858L28.735 29.3986ZM22.6484 30.7193L20.2849 28.6513L21.3824 27.397L23.7459 29.465L22.6484 30.7193Z" stroke="#FF5B65" stroke-width="2"/>
</g>
<g opacity="0.5" filter="url(#filter2_f_611_993)">
<path fill-rule="evenodd" clip-rule="evenodd" d="M25.4583 16.066L26.5143 16.0435L35.1804 22.8404L34.1518 24.1518L26.023 17.7763L17.8757 24.7472L16.7922 23.4808L25.4583 16.066ZM25.1667 23.0473H24.0305V21.3806H27.9696V23.0473H26.8334V24.5319H32.3026V26.1986H26.8334V31.6223H34.6661V33.289H17.3339V31.6223H25.1667V26.1986H20.4852V24.5319H25.1667V23.0473ZM28.735 29.3986L31.8408 27.3305L32.7645 28.7178L29.6587 30.7858L28.735 29.3986ZM22.6484 30.7193L20.2849 28.6513L21.3824 27.397L23.7459 29.465L22.6484 30.7193Z" fill="#FF5B65"/>
<path fill-rule="evenodd" clip-rule="evenodd" d="M25.4583 16.066L26.5143 16.0435L35.1804 22.8404L34.1518 24.1518L26.023 17.7763L17.8757 24.7472L16.7922 23.4808L25.4583 16.066ZM25.1667 23.0473H24.0305V21.3806H27.9696V23.0473H26.8334V24.5319H32.3026V26.1986H26.8334V31.6223H34.6661V33.289H17.3339V31.6223H25.1667V26.1986H20.4852V24.5319H25.1667V23.0473ZM28.735 29.3986L31.8408 27.3305L32.7645 28.7178L29.6587 30.7858L28.735 29.3986ZM22.6484 30.7193L20.2849 28.6513L21.3824 27.397L23.7459 29.465L22.6484 30.7193Z" stroke="#FF5B65" stroke-width="5"/>
</g>
<path fill-rule="evenodd" clip-rule="evenodd" d="M25.4583 16.066L26.5143 16.0435L35.1804 22.8404L34.1518 24.1518L26.023 17.7763L17.8757 24.7472L16.7922 23.4808L25.4583 16.066ZM25.1667 23.0473H24.0305V21.3806H27.9696V23.0473H26.8334V24.5319H32.3026V26.1986H26.8334V31.6223H34.6661V33.289H17.3339V31.6223H25.1667V26.1986H20.4852V24.5319H25.1667V23.0473ZM28.735 29.3986L31.8408 27.3305L32.7645 28.7178L29.6587 30.7858L28.735 29.3986ZM22.6484 30.7193L20.2849 28.6513L21.3824 27.397L23.7459 29.465L22.6484 30.7193Z" fill="white"/>
<defs>
<filter id="filter0_f_611_993" x="14.0872" y="13.5396" width="23.7952" height="22.2495" filterUnits="userSpaceOnUse" color-interpolation-filters="sRGB">
<feFlood flood-opacity="0" result="BackgroundImageFix"/>
<feBlend mode="normal" in="SourceGraphic" in2="BackgroundImageFix" result="shape"/>
<feGaussianBlur stdDeviation="1" result="effect1_foregroundBlur_611_993"/>
</filter>
<filter id="filter1_f_611_993" x="11.3822" y="11.0361" width="29.2021" height="27.2529" filterUnits="userSpaceOnUse" color-interpolation-filters="sRGB">
<feFlood flood-opacity="0" result="BackgroundImageFix"/>
<feBlend mode="normal" in="SourceGraphic" in2="BackgroundImageFix" result="shape"/>
<feGaussianBlur stdDeviation="2" result="effect1_foregroundBlur_611_993"/>
</filter>
<filter id="filter2_f_611_993" x="0.267273" y="0.524902" width="51.4231" height="48.2642" filterUnits="userSpaceOnUse" color-interpolation-filters="sRGB">
<feFlood flood-opacity="0" result="BackgroundImageFix"/>
<feBlend mode="normal" in="SourceGraphic" in2="BackgroundImageFix" result="shape"/>
<feGaussianBlur stdDeviation="6.5" result="effect1_foregroundBlur_611_993"/>
</filter>
<clipPath id="clip0_611_993">
<rect width="20" height="20" fill="white" transform="translate(16 15)"/>
</clipPath>
</defs>
</svg>
