<svg width="50" height="50" viewBox="0 0 50 50" fill="none" xmlns="http://www.w3.org/2000/svg">
<g clip-path="url(#clip0_611_971)">
<g filter="url(#filter0_f_611_971)">
<path fill-rule="evenodd" clip-rule="evenodd" d="M19.733 19.5833H30.2671L33.2902 21.7427L34.2091 30.6035L30.522 33.5663L29.2647 33.3088L27.8334 30.625H22.1667L20.7353 33.3088L19.478 33.5663L15.791 30.6035L16.7099 21.7427L19.733 19.5833ZM20.2671 21.25L18.2902 22.6621L17.5424 29.8727L19.738 31.6371L21.1667 28.9583H28.8334L30.262 31.6371L32.4577 29.8727L31.7099 22.6621L29.733 21.25H20.2671Z" fill="#FF5B65"/>
<path d="M20.4986 25.0134H22.1653V26.6801H20.4986V25.0134Z" fill="#FF5B65"/>
<path d="M27.8348 25.0134H29.5015V26.6801H27.8348V25.0134Z" fill="#FF5B65"/>
<path fill-rule="evenodd" clip-rule="evenodd" d="M18.9359 16.25H21.6667V17.9167H19.3975L17.5121 19.0479L16.6546 17.6188L18.9359 16.25Z" fill="#FF5B65"/>
<path fill-rule="evenodd" clip-rule="evenodd" d="M31.0642 16.25H28.3334V17.9167H30.6026L32.488 19.0479L33.3455 17.6188L31.0642 16.25Z" fill="#FF5B65"/>
<path fill-rule="evenodd" clip-rule="evenodd" d="M19.733 19.5833H30.2671L33.2902 21.7427L34.2091 30.6035L30.522 33.5663L29.2647 33.3088L27.8334 30.625H22.1667L20.7353 33.3088L19.478 33.5663L15.791 30.6035L16.7099 21.7427L19.733 19.5833ZM20.2671 21.25L18.2902 22.6621L17.5424 29.8727L19.738 31.6371L21.1667 28.9583H28.8334L30.262 31.6371L32.4577 29.8727L31.7099 22.6621L29.733 21.25H20.2671Z" stroke="#FF5B65"/>
<path d="M20.4986 25.0134H22.1653V26.6801H20.4986V25.0134Z" stroke="#FF5B65"/>
<path d="M27.8348 25.0134H29.5015V26.6801H27.8348V25.0134Z" stroke="#FF5B65"/>
<path fill-rule="evenodd" clip-rule="evenodd" d="M18.9359 16.25H21.6667V17.9167H19.3975L17.5121 19.0479L16.6546 17.6188L18.9359 16.25Z" stroke="#FF5B65"/>
<path fill-rule="evenodd" clip-rule="evenodd" d="M31.0642 16.25H28.3334V17.9167H30.6026L32.488 19.0479L33.3455 17.6188L31.0642 16.25Z" stroke="#FF5B65"/>
</g>
</g>
<g opacity="0.5" filter="url(#filter1_f_611_971)">
<path fill-rule="evenodd" clip-rule="evenodd" d="M19.733 19.5833H30.2671L33.2902 21.7427L34.2091 30.6035L30.522 33.5663L29.2647 33.3088L27.8334 30.625H22.1667L20.7353 33.3088L19.478 33.5663L15.791 30.6035L16.7099 21.7427L19.733 19.5833ZM20.2671 21.25L18.2902 22.6621L17.5424 29.8727L19.738 31.6371L21.1667 28.9583H28.8334L30.262 31.6371L32.4577 29.8727L31.7099 22.6621L29.733 21.25H20.2671Z" fill="#FF5B65"/>
<path d="M20.4986 25.0134H22.1653V26.6801H20.4986V25.0134Z" fill="#FF5B65"/>
<path d="M27.8348 25.0134H29.5015V26.6801H27.8348V25.0134Z" fill="#FF5B65"/>
<path fill-rule="evenodd" clip-rule="evenodd" d="M18.9359 16.25H21.6667V17.9167H19.3975L17.5121 19.0479L16.6546 17.6188L18.9359 16.25Z" fill="#FF5B65"/>
<path fill-rule="evenodd" clip-rule="evenodd" d="M31.0642 16.25H28.3334V17.9167H30.6026L32.488 19.0479L33.3455 17.6188L31.0642 16.25Z" fill="#FF5B65"/>
<path fill-rule="evenodd" clip-rule="evenodd" d="M19.733 19.5833H30.2671L33.2902 21.7427L34.2091 30.6035L30.522 33.5663L29.2647 33.3088L27.8334 30.625H22.1667L20.7353 33.3088L19.478 33.5663L15.791 30.6035L16.7099 21.7427L19.733 19.5833ZM20.2671 21.25L18.2902 22.6621L17.5424 29.8727L19.738 31.6371L21.1667 28.9583H28.8334L30.262 31.6371L32.4577 29.8727L31.7099 22.6621L29.733 21.25H20.2671Z" stroke="#FF5B65" stroke-width="2"/>
<path d="M20.4986 25.0134H22.1653V26.6801H20.4986V25.0134Z" stroke="#FF5B65" stroke-width="2"/>
<path d="M27.8348 25.0134H29.5015V26.6801H27.8348V25.0134Z" stroke="#FF5B65" stroke-width="2"/>
<path fill-rule="evenodd" clip-rule="evenodd" d="M18.9359 16.25H21.6667V17.9167H19.3975L17.5121 19.0479L16.6546 17.6188L18.9359 16.25Z" stroke="#FF5B65" stroke-width="2"/>
<path fill-rule="evenodd" clip-rule="evenodd" d="M31.0642 16.25H28.3334V17.9167H30.6026L32.488 19.0479L33.3455 17.6188L31.0642 16.25Z" stroke="#FF5B65" stroke-width="2"/>
</g>
<g opacity="0.5" filter="url(#filter2_f_611_971)">
<path fill-rule="evenodd" clip-rule="evenodd" d="M19.733 19.5833H30.2671L33.2902 21.7427L34.2091 30.6035L30.522 33.5663L29.2647 33.3088L27.8334 30.625H22.1667L20.7353 33.3088L19.478 33.5663L15.791 30.6035L16.7099 21.7427L19.733 19.5833ZM20.2671 21.25L18.2902 22.6621L17.5424 29.8727L19.738 31.6371L21.1667 28.9583H28.8334L30.262 31.6371L32.4577 29.8727L31.7099 22.6621L29.733 21.25H20.2671Z" fill="#FF5B65"/>
<path d="M20.4986 25.0134H22.1653V26.6801H20.4986V25.0134Z" fill="#FF5B65"/>
<path d="M27.8348 25.0134H29.5015V26.6801H27.8348V25.0134Z" fill="#FF5B65"/>
<path fill-rule="evenodd" clip-rule="evenodd" d="M18.9359 16.25H21.6667V17.9167H19.3975L17.5121 19.0479L16.6546 17.6188L18.9359 16.25Z" fill="#FF5B65"/>
<path fill-rule="evenodd" clip-rule="evenodd" d="M31.0642 16.25H28.3334V17.9167H30.6026L32.488 19.0479L33.3455 17.6188L31.0642 16.25Z" fill="#FF5B65"/>
<path fill-rule="evenodd" clip-rule="evenodd" d="M19.733 19.5833H30.2671L33.2902 21.7427L34.2091 30.6035L30.522 33.5663L29.2647 33.3088L27.8334 30.625H22.1667L20.7353 33.3088L19.478 33.5663L15.791 30.6035L16.7099 21.7427L19.733 19.5833ZM20.2671 21.25L18.2902 22.6621L17.5424 29.8727L19.738 31.6371L21.1667 28.9583H28.8334L30.262 31.6371L32.4577 29.8727L31.7099 22.6621L29.733 21.25H20.2671Z" stroke="#FF5B65" stroke-width="5"/>
<path d="M20.4986 25.0134H22.1653V26.6801H20.4986V25.0134Z" stroke="#FF5B65" stroke-width="5"/>
<path d="M27.8348 25.0134H29.5015V26.6801H27.8348V25.0134Z" stroke="#FF5B65" stroke-width="5"/>
<path fill-rule="evenodd" clip-rule="evenodd" d="M18.9359 16.25H21.6667V17.9167H19.3975L17.5121 19.0479L16.6546 17.6188L18.9359 16.25Z" stroke="#FF5B65" stroke-width="5"/>
<path fill-rule="evenodd" clip-rule="evenodd" d="M31.0642 16.25H28.3334V17.9167H30.6026L32.488 19.0479L33.3455 17.6188L31.0642 16.25Z" stroke="#FF5B65" stroke-width="5"/>
</g>
<path fill-rule="evenodd" clip-rule="evenodd" d="M19.733 19.5833H30.2671L33.2902 21.7427L34.2091 30.6035L30.522 33.5663L29.2647 33.3088L27.8334 30.625H22.1667L20.7353 33.3088L19.478 33.5663L15.791 30.6035L16.7099 21.7427L19.733 19.5833ZM20.2671 21.25L18.2902 22.6621L17.5424 29.8727L19.738 31.6371L21.1667 28.9583H28.8334L30.262 31.6371L32.4577 29.8727L31.7099 22.6621L29.733 21.25H20.2671Z" fill="white"/>
<path d="M20.4986 25.0134H22.1653V26.6801H20.4986V25.0134Z" fill="white"/>
<path d="M27.8348 25.0134H29.5015V26.6801H27.8348V25.0134Z" fill="white"/>
<path fill-rule="evenodd" clip-rule="evenodd" d="M18.9359 16.25H21.6667V17.9167H19.3975L17.5121 19.0479L16.6546 17.6188L18.9359 16.25Z" fill="white"/>
<path fill-rule="evenodd" clip-rule="evenodd" d="M31.0642 16.25H28.3334V17.9167H30.6026L32.488 19.0479L33.3455 17.6188L31.0642 16.25Z" fill="white"/>
<defs>
<filter id="filter0_f_611_971" x="13.2656" y="13.75" width="23.4689" height="22.353" filterUnits="userSpaceOnUse" color-interpolation-filters="sRGB">
<feFlood flood-opacity="0" result="BackgroundImageFix"/>
<feBlend mode="normal" in="SourceGraphic" in2="BackgroundImageFix" result="shape"/>
<feGaussianBlur stdDeviation="1" result="effect1_foregroundBlur_611_971"/>
</filter>
<filter id="filter1_f_611_971" x="10.7402" y="11.25" width="28.5197" height="27.3901" filterUnits="userSpaceOnUse" color-interpolation-filters="sRGB">
<feFlood flood-opacity="0" result="BackgroundImageFix"/>
<feBlend mode="normal" in="SourceGraphic" in2="BackgroundImageFix" result="shape"/>
<feGaussianBlur stdDeviation="2" result="effect1_foregroundBlur_611_971"/>
</filter>
<filter id="filter2_f_611_971" x="0.16394" y="0.75" width="49.6722" height="48.501" filterUnits="userSpaceOnUse" color-interpolation-filters="sRGB">
<feFlood flood-opacity="0" result="BackgroundImageFix"/>
<feBlend mode="normal" in="SourceGraphic" in2="BackgroundImageFix" result="shape"/>
<feGaussianBlur stdDeviation="6.5" result="effect1_foregroundBlur_611_971"/>
</filter>
<clipPath id="clip0_611_971">
<rect width="20" height="20" fill="white" transform="translate(15 15)"/>
</clipPath>
</defs>
</svg>
